<?xml version="1.0" encoding="utf-8"?>
<!-- Generator: Adobe Illustrator 23.0.1, SVG Export Plug-In . SVG Version: 6.00 Build 0)  -->
<svg version="1.1" id="ceramics-made-in-italy" xmlns="http://www.w3.org/2000/svg" xmlns:xlink="http://www.w3.org/1999/xlink"
	 x="0px" y="0px" viewBox="0 0 213 39" style="enable-background:new 0 0 213 39;" xml:space="preserve">
<style type="text/css">
	.st0{fill-rule:evenodd;clip-rule:evenodd;fill:#FFFFFF;}
	.st1{fill-rule:evenodd;clip-rule:evenodd;fill:#E31319;}
	.st2{fill-rule:evenodd;clip-rule:evenodd;fill:#26A232;}
	.st3{fill-rule:evenodd;clip-rule:evenodd;fill:#191919;}
</style>
<g id="Shape_1672_copy">
	<rect x="4" y="28.3" class="st0" width="206" height="5"/>
</g>
<path id="Shape_1672_copy_2" class="st1" d="M142,33.3v-5h68v5H142z"/>
<path id="Shape_1672_copy_4" class="st2" d="M4,33.3v-5h68v5H4z"/>
<path id="Ceramics_made_in_Italy_copy" class="st3" d="M7.7,9.8c0.6,0,1.1-0.1,1.6-0.3s0.9-0.5,1.3-0.8l-0.4-0.6
	C9.9,8.5,9.5,8.7,9,8.9C8.6,9.1,8.1,9.2,7.7,9.2C6.8,9.3,6,8.9,5.4,8.2C4.8,7.4,4.5,6.4,4.5,5.5c-0.1-1,0.2-1.9,0.8-2.7
	c0.6-0.7,1.4-1,2.3-1C8.1,1.8,8.5,1.9,9,2c0.5,0.2,0.9,0.5,1.2,0.8l0.3-0.6c-0.4-0.4-0.8-0.7-1.3-0.8c-0.4-0.2-1-0.3-1.5-0.3
	c-0.8,0-1.5,0.2-2.1,0.5C5,2,4.5,2.5,4.3,3.1C3.9,3.9,3.8,4.7,3.8,5.5s0.1,1.6,0.5,2.3C4.5,8.4,5,9,5.6,9.3C6.2,9.7,6.9,9.9,7.7,9.8
	L7.7,9.8L7.7,9.8z M15,9.7h5.3V9.1h-4.5V5.7H20V5.1h-4.3V1.8h4.5V1.2H15V9.7L15,9.7z M30.2,6.8c-0.1-0.3-0.2-0.5-0.4-0.7
	c-0.2-0.2-0.4-0.3-0.6-0.3c0.5-0.1,0.9-0.4,1.2-0.8c0.3-0.4,0.5-0.9,0.4-1.4c0-0.7-0.2-1.3-0.7-1.7c-0.6-0.5-1.3-0.8-2.1-0.7h-3.3
	v8.5h0.8V5.9h2.4c0.4,0,0.7,0,1.1,0.2c0.3,0.2,0.5,0.5,0.6,0.8l1.1,2.8h0.8L30.2,6.8z M25.5,5.3V1.8H28c1.4,0,2.1,0.6,2.1,1.7
	c0,1.2-0.7,1.8-2.1,1.8H25.5z M42.2,9.7H43l-3.7-8.5h-0.7l-3.7,8.5h0.8l1-2.3h4.6L42.2,9.7z M36.9,6.8l2-4.7l2,4.7H36.9z M54.4,1.2
	l-3.3,7.7l-3.4-7.7h-0.6v8.5h0.7V2.9l3,6.8h0.6l3-6.8v6.8H55V1.2H54.4L54.4,1.2z M59.9,9.7h0.7V1.2h-0.7V9.7L59.9,9.7z M69.1,9.8
	c0.6,0,1.1-0.1,1.6-0.3c0.5-0.1,1-0.4,1.3-0.8l-0.3-0.6c-0.4,0.3-0.8,0.6-1.2,0.8c-0.4,0.2-0.9,0.3-1.4,0.2c-0.9,0.1-1.7-0.3-2.3-1
	C66.2,7.4,66,6.4,66,5.5c-0.1-1,0.2-1.9,0.8-2.7c0.6-0.7,1.4-1,2.3-1c0.5,0,0.9,0.1,1.4,0.2c0.5,0.2,0.9,0.5,1.2,0.8L72,2.2
	c-0.4-0.4-0.8-0.7-1.3-0.8c-0.5-0.2-1-0.3-1.6-0.3c-0.7,0-1.4,0.2-2.1,0.5c-0.5,0.4-1,0.9-1.3,1.5c-0.3,0.7-0.5,1.5-0.5,2.3
	s0.1,1.6,0.5,2.3C66,8.3,66.5,8.9,67,9.2C67.7,9.7,68.4,9.9,69.1,9.8L69.1,9.8L69.1,9.8z M79,9.8c0.5,0,1.1-0.1,1.6-0.3
	c0.4-0.1,0.8-0.4,1.1-0.8c0.3-0.4,0.4-0.8,0.4-1.2c0-0.4-0.1-0.8-0.4-1.2c-0.3-0.3-0.6-0.5-1-0.6c-0.5-0.2-1-0.3-1.5-0.4l-0.4-0.2
	c-0.5-0.1-1.1-0.3-1.6-0.6c-0.4-0.2-0.6-0.6-0.5-1.1c0-0.5,0.2-1,0.6-1.3c0.5-0.3,1.1-0.5,1.7-0.5c0.5,0,0.9,0.1,1.4,0.3
	s0.9,0.5,1.2,0.8l0.3-0.6c-0.4-0.4-0.8-0.7-1.3-0.8c-0.5-0.1-1-0.2-1.6-0.2c-0.5,0-1.1,0.1-1.6,0.3c-0.4,0.2-0.8,0.5-1.1,0.9
	C76.1,2.6,76,3.1,76,3.5c0,0.5,0.1,0.9,0.4,1.2s0.6,0.6,1,0.7c0.5,0.2,1.1,0.3,1.6,0.5c0.4,0.1,0.8,0.2,1.2,0.3
	c0.3,0.1,0.5,0.3,0.8,0.5c0.2,0.2,0.3,0.5,0.3,0.8c0,0.5-0.2,1-0.6,1.2C80.2,9,79.6,9.2,79,9.1c-0.5,0-1.1-0.1-1.6-0.2
	c-0.4-0.2-0.8-0.4-1.2-0.8l-0.3,0.6c0.4,0.4,0.9,0.7,1.4,0.8C77.8,9.7,78.4,9.8,79,9.8L79,9.8L79,9.8z M99.1,1.2l-2.9,6.7l-2.9-6.7
	H92v8.5h1.4V4.5l2.3,5.2h1L99,4.4v5.3h1.4V1.2H99.1L99.1,1.2z M111.4,9.7h1.6l-3.9-8.5h-1.3L104,9.7h1.6l0.9-2h4.2L111.4,9.7z
	 M106.9,6.5l1.6-3.7l1.6,3.7H106.9L106.9,6.5z M116.6,9.7h3.2c1.2,0.1,2.4-0.3,3.3-1.1c1.5-1.8,1.5-4.5,0-6.3
	c-0.9-0.8-2.1-1.2-3.3-1.1h-3.2V9.7z M118.1,8.5v-6h1.5c2,0,2.9,1,2.9,3s-1,3-2.9,3H118.1z M128.4,9.7h5.7V8.5H130V6h3.9V4.8H130
	V2.4h4.2V1.2h-5.7v8.5H128.4z M144.3,9.7h1.6V1.2h-1.6V9.7z M156.1,1.2v6l-4.6-6h-1.2v8.5h1.4v-6l4.6,6h1.2V1.2H156.1z M168.1,9.7
	h1.6V1.2h-1.6V9.7z M176.2,9.7h1.6V2.5h2.8V1.2h-7.1v1.3h2.8L176.2,9.7L176.2,9.7z M189.8,9.7h1.6l-3.9-8.5h-1.3l-3.9,8.5h1.6l0.9-2
	h4.2L189.8,9.7z M185.3,6.5l1.6-3.7l1.6,3.7H185.3L185.3,6.5z M195,9.7h5.5V8.5h-4V1.2H195V9.7z M210,1.2h-1.8l-2.4,3.9l-2.5-3.9
	h-1.8l3.5,5.2v3.4h1.6V6.3L210,1.2z"/>
</svg>
