<?xml version="1.0" encoding="utf-8"?>
<!-- Generator: Adobe Illustrator 23.0.1, SVG Export Plug-In . SVG Version: 6.00 Build 0)  -->
<svg version="1.1" id="digital" xmlns="http://www.w3.org/2000/svg" xmlns:xlink="http://www.w3.org/1999/xlink" x="0px" y="0px"
	 viewBox="0 0 22 27" style="enable-background:new 0 0 22 27;" xml:space="preserve">
<style type="text/css">
	.st0{fill-rule:evenodd;clip-rule:evenodd;fill:#B92442;}
</style>
<path id="digital_1_" class="st0" d="M21.8,6.9l-6.7-6.7C15,0.1,14.8,0,14.7,0H0.6C0.3,0,0,0.3,0,0.6v25.8C0,26.7,0.3,27,0.6,27
	c0,0,0,0,0,0h20.8c0.3,0,0.6-0.3,0.6-0.6c0,0,0,0,0,0v-19C22,7.2,21.9,7,21.8,6.9z M15.3,2.1l4.6,4.7h-4.6V2.1z M1.2,25.8V1.2h12.8
	v6.1c0,0.3,0.3,0.6,0.6,0.6h6.1v17.8L1.2,25.8L1.2,25.8z M10.1,13.5c-0.5,0-0.9,0.4-0.9,0.9c0,0.5,0.4,0.9,0.9,0.9
	c0.5,0,0.9-0.4,0.9-0.9c0,0,0,0,0,0C11,13.9,10.6,13.5,10.1,13.5C10.1,13.5,10.1,13.5,10.1,13.5L10.1,13.5z M16.5,11h-11
	c-0.3,0-0.6,0.3-0.6,0.6v9.8c0,0.3,0.3,0.6,0.6,0.6c0,0,0,0,0,0h11c0.3,0,0.6-0.3,0.6-0.6v0v-9.8C17.1,11.3,16.8,11,16.5,11z
	 M15.9,12.3v4l-1.4-1.4c-0.2-0.2-0.6-0.2-0.9,0c0,0,0,0,0,0l-3.2,3.2l-2-2c-0.2-0.2-0.6-0.2-0.9,0c0,0,0,0,0,0l-1.4,1.4v-5.3
	L15.9,12.3L15.9,12.3z M6.1,20.9v-1.6l1.8-1.8l2,2c0.2,0.2,0.6,0.2,0.8,0c0,0,0,0,0,0l3.2-3.2l1.8,1.8v2.8L6.1,20.9L6.1,20.9z"/>
</svg>
