<?xml version="1.0" encoding="utf-8"?>
<!-- Generator: Adobe Illustrator 23.0.1, SVG Export Plug-In . SVG Version: 6.00 Build 0)  -->
<svg version="1.1" id="email" xmlns="http://www.w3.org/2000/svg" xmlns:xlink="http://www.w3.org/1999/xlink" x="0px" y="0px"
	 viewBox="0 0 24.3 16" style="enable-background:new 0 0 24.3 16;" xml:space="preserve">
<style type="text/css">
	.st0{fill-rule:evenodd;clip-rule:evenodd;fill:#191919;}
</style>
<path id="email_1_" class="st0" d="M2.5,0C1.1,0,0,1.1,0,2.5v11.1C0,14.9,1.1,16,2.5,16h19.3c1.4,0,2.5-1.1,2.5-2.5V2.5
	c0-1.4-1.1-2.5-2.5-2.5H2.5z M3,1.7h18.4l-8.9,7.9c-0.2,0.1-0.4,0.1-0.6,0L3,1.7z M1.6,2.7l6.2,5.6l-6.2,5.1V2.7z M22.7,2.7v10.7
	l-6.2-5.1L22.7,2.7z M9.1,9.4l1.6,1.5c0.8,0.7,2,0.7,2.8,0l1.6-1.5l6,5H3.1L9.1,9.4L9.1,9.4L9.1,9.4z"/>
</svg>
