<?xml version="1.0" encoding="utf-8"?>
<!-- Generator: Adobe Illustrator 23.0.1, SVG Export Plug-In . SVG Version: 6.00 Build 0)  -->
<svg version="1.1" id="Layer_1"
	xmlns="http://www.w3.org/2000/svg"
	xmlns:xlink="http://www.w3.org/1999/xlink" x="0px" y="0px" viewBox="0 0 70 70" style="enable-background:new 0 0 70 70;" xml:space="preserve">
	<style type="text/css">
	.st0{fill:#282525;}
	.st1{fill:#040506;}
	</style>
	<path class="st0" d="M15.9,60.6c-0.2-0.4-0.4-0.8-0.4-1.2c0-0.4,0.1-0.8,0.4-1.2c0.3-0.5,0.5-1,0.5-1.6c0-0.6-0.2-1.2-0.5-1.7
		c-0.2-0.4-0.4-0.8-0.4-1.2c0-0.4,0.1-0.8,0.4-1.2c0.3-0.5,0.5-1,0.5-1.6c0-0.6-0.2-1.2-0.5-1.7c-0.2-0.4-0.4-0.8-0.4-1.2
		c0-0.4,0.1-0.8,0.4-1.2c0.3-0.5,0.5-1,0.5-1.6c0-0.6-0.2-1.2-0.5-1.7c-0.2-0.4-0.4-0.8-0.4-1.2c0-0.4,0.1-0.8,0.4-1.2
		c0.3-0.5,0.5-1,0.5-1.6c0-0.6-0.2-1.2-0.5-1.7c-0.2-0.4-0.4-0.8-0.4-1.2c0-0.4,0.1-0.8,0.4-1.2c0.3-0.5,0.5-1,0.5-1.6
		c0-0.6-0.2-1.2-0.5-1.7c-0.2-0.4-0.4-0.8-0.4-1.2c0-0.4,0.1-0.8,0.4-1.2c0.3-0.5,0.5-1,0.5-1.6c0-0.6-0.2-1.2-0.5-1.7
		c-0.2-0.4-0.4-0.8-0.4-1.2c0-0.4,0.1-0.8,0.4-1.2c0.3-0.5,0.5-1,0.5-1.6c0-0.6-0.2-1.2-0.5-1.7c-0.2-0.4-0.4-0.8-0.4-1.2
		c0-0.4,0.1-0.8,0.4-1.2c0.3-0.5,0.5-1,0.5-1.6c0-0.6-0.2-1.2-0.5-1.7c-0.2-0.4-0.4-0.8-0.4-1.2c0-0.4,0.1-0.8,0.4-1.2
		c0.3-0.5,0.5-1,0.5-1.6c0-0.6-0.2-1.2-0.5-1.7c-0.2-0.4-0.4-0.8-0.4-1.2c0-0.3,0-0.5,0.1-0.7c-0.3,0.2-0.6,0.4-0.9,0.6
		c0,0,0,0.1,0,0.1c0,0.6,0.2,1.2,0.5,1.7c0.2,0.4,0.4,0.8,0.4,1.2c0,0.4-0.1,0.8-0.4,1.2c-0.3,0.5-0.5,1-0.5,1.6
		c0,0.6,0.2,1.2,0.5,1.7c0.2,0.4,0.4,0.8,0.4,1.2c0,0.4-0.1,0.8-0.4,1.2c-0.3,0.5-0.5,1-0.5,1.6c0,0.6,0.2,1.2,0.5,1.7
		c0.2,0.4,0.4,0.8,0.4,1.2c0,0.4-0.1,0.8-0.4,1.2c-0.3,0.5-0.5,1-0.5,1.6c0,0.6,0.2,1.2,0.5,1.7c0.2,0.4,0.4,0.8,0.4,1.2
		c0,0.4-0.1,0.8-0.4,1.2c-0.3,0.5-0.5,1-0.5,1.6c0,0.6,0.2,1.2,0.5,1.7c0.2,0.4,0.4,0.8,0.4,1.2c0,0.4-0.1,0.8-0.4,1.2
		c-0.3,0.5-0.5,1-0.5,1.6c0,0.6,0.2,1.2,0.5,1.7c0.2,0.4,0.4,0.8,0.4,1.2c0,0.4-0.1,0.8-0.4,1.2c-0.3,0.5-0.5,1-0.5,1.6
		c0,0.6,0.2,1.2,0.5,1.7c0.2,0.4,0.4,0.8,0.4,1.2c0,0.4-0.1,0.8-0.4,1.2c-0.3,0.5-0.5,1-0.5,1.6c0,0.6,0.2,1.2,0.5,1.7
		c0.2,0.4,0.4,0.8,0.4,1.2c0,0.4-0.1,0.8-0.4,1.2c-0.3,0.5-0.5,1-0.5,1.6c0,0.6,0.2,1.2,0.5,1.7c0.2,0.4,0.4,0.8,0.4,1.2
		c0,0.4-0.1,0.8-0.4,1.2c-0.3,0.5-0.5,1-0.5,1.6c0,0.6,0.2,1.2,0.5,1.7c0.2,0.4,0.4,0.8,0.4,1.2c0,0.2,0,0.4-0.1,0.6
		c0.2,0.1,0.4,0.3,0.6,0.4c0.1-0.3,0.2-0.7,0.2-1.1C16.4,61.6,16.2,61.1,15.9,60.6z"/>
	<path class="st0" d="M23.6,66.3c-0.2-0.4-0.4-0.8-0.4-1.2c0-0.4,0.1-0.8,0.4-1.2c0.3-0.5,0.5-1,0.5-1.6c0-0.6-0.2-1.2-0.5-1.7
		c-0.2-0.4-0.4-0.8-0.4-1.2c0-0.4,0.1-0.8,0.4-1.2c0.3-0.5,0.5-1,0.5-1.6c0-0.6-0.2-1.2-0.5-1.7c-0.2-0.4-0.4-0.8-0.4-1.2
		c0-0.4,0.1-0.8,0.4-1.2c0.3-0.5,0.5-1,0.5-1.6c0-0.6-0.2-1.2-0.5-1.7c-0.2-0.4-0.4-0.8-0.4-1.2c0-0.4,0.1-0.8,0.4-1.2
		c0.3-0.5,0.5-1,0.5-1.6c0-0.6-0.2-1.2-0.5-1.7c-0.2-0.4-0.4-0.8-0.4-1.2c0-0.4,0.1-0.8,0.4-1.2c0.3-0.5,0.5-1,0.5-1.6
		c0-0.6-0.2-1.2-0.5-1.7c-0.2-0.4-0.4-0.8-0.4-1.2c0-0.4,0.1-0.8,0.4-1.2c0.3-0.5,0.5-1,0.5-1.6c0-0.6-0.2-1.2-0.5-1.7
		c-0.2-0.4-0.4-0.8-0.4-1.2c0-0.4,0.1-0.8,0.4-1.2c0.3-0.5,0.5-1,0.5-1.6c0-0.6-0.2-1.2-0.5-1.7c-0.2-0.4-0.4-0.8-0.4-1.2
		c0-0.4,0.1-0.8,0.4-1.2c0.3-0.5,0.5-1,0.5-1.6c0-0.6-0.2-1.2-0.5-1.7c-0.2-0.4-0.4-0.8-0.4-1.2c0-0.4,0.1-0.8,0.4-1.2
		c0.3-0.5,0.5-1,0.5-1.6c0-0.6-0.2-1.2-0.5-1.7c-0.2-0.4-0.4-0.8-0.4-1.2c0-0.4,0.1-0.8,0.4-1.2c0.3-0.5,0.5-1,0.5-1.6
		c0-0.6-0.2-1.2-0.5-1.7c-0.2-0.4-0.4-0.8-0.4-1.2c0-0.4,0.1-0.8,0.4-1.2c0.3-0.5,0.5-1,0.5-1.6c0-0.6-0.2-1.2-0.5-1.7
		c-0.1-0.1-0.1-0.2-0.1-0.3c-0.2,0.1-0.5,0.2-0.7,0.3c0.1,0.2,0.1,0.3,0.2,0.5c0.2,0.4,0.4,0.8,0.4,1.2c0,0.4-0.1,0.8-0.4,1.2
		c-0.3,0.5-0.5,1-0.5,1.6c0,0.6,0.2,1.2,0.5,1.7c0.2,0.4,0.4,0.8,0.4,1.2c0,0.4-0.1,0.8-0.4,1.2c-0.3,0.5-0.5,1-0.5,1.6
		c0,0.6,0.2,1.2,0.5,1.7c0.2,0.4,0.4,0.8,0.4,1.2c0,0.4-0.1,0.8-0.4,1.2c-0.3,0.5-0.5,1-0.5,1.6c0,0.6,0.2,1.2,0.5,1.7
		c0.2,0.4,0.4,0.8,0.4,1.2c0,0.4-0.1,0.8-0.4,1.2c-0.3,0.5-0.5,1-0.5,1.6c0,0.6,0.2,1.2,0.5,1.7c0.2,0.4,0.4,0.8,0.4,1.2
		c0,0.4-0.1,0.8-0.4,1.2c-0.3,0.5-0.5,1-0.5,1.6c0,0.6,0.2,1.2,0.5,1.7c0.2,0.4,0.4,0.8,0.4,1.2c0,0.4-0.1,0.8-0.4,1.2
		c-0.3,0.5-0.5,1-0.5,1.6c0,0.6,0.2,1.2,0.5,1.7c0.2,0.4,0.4,0.8,0.4,1.2c0,0.4-0.1,0.8-0.4,1.2c-0.3,0.5-0.5,1-0.5,1.6
		c0,0.6,0.2,1.2,0.5,1.7c0.2,0.4,0.4,0.8,0.4,1.2c0,0.4-0.1,0.8-0.4,1.2c-0.3,0.5-0.5,1-0.5,1.6c0,0.6,0.2,1.2,0.5,1.7
		c0.2,0.4,0.4,0.8,0.4,1.2c0,0.4-0.1,0.8-0.4,1.2c-0.3,0.5-0.5,1-0.5,1.6c0,0.6,0.2,1.2,0.5,1.7c0.2,0.4,0.4,0.8,0.4,1.2
		c0,0.4-0.1,0.8-0.4,1.2c-0.3,0.5-0.5,1-0.5,1.6c0,0.6,0.2,1.2,0.5,1.7c0.2,0.4,0.4,0.8,0.4,1.2c0,0.4-0.1,0.8-0.4,1.2
		c-0.3,0.5-0.5,1-0.5,1.6c0,0.6,0.2,1.2,0.5,1.7c0,0,0,0.1,0.1,0.1c0.3,0.1,0.6,0.2,0.9,0.3C23.9,66.9,23.8,66.6,23.6,66.3z"/>
	<path class="st0" d="M28,68.3c0-0.1,0.1-0.2,0-0.3c0-0.6-0.2-1.2-0.5-1.7c-0.2-0.4-0.4-0.8-0.4-1.2c0-0.4,0.1-0.8,0.4-1.2
		c0.3-0.5,0.5-1,0.5-1.6c0-0.6-0.2-1.2-0.5-1.7c-0.2-0.4-0.4-0.8-0.4-1.2c0-0.4,0.1-0.8,0.4-1.2c0.3-0.5,0.5-1,0.5-1.6
		c0-0.6-0.2-1.2-0.5-1.7c-0.2-0.4-0.4-0.8-0.4-1.2c0-0.4,0.1-0.8,0.4-1.2c0.3-0.5,0.5-1,0.5-1.6c0-0.6-0.2-1.2-0.5-1.7
		c-0.2-0.4-0.4-0.8-0.4-1.2c0-0.4,0.1-0.8,0.4-1.2c0.3-0.5,0.5-1,0.5-1.6c0-0.6-0.2-1.2-0.5-1.7c-0.2-0.4-0.4-0.8-0.4-1.2
		c0-0.4,0.1-0.8,0.4-1.2c0.3-0.5,0.5-1,0.5-1.6c0-0.6-0.2-1.2-0.5-1.7c-0.2-0.4-0.4-0.8-0.4-1.2c0-0.4,0.1-0.8,0.4-1.2
		c0.3-0.5,0.5-1,0.5-1.6c0-0.6-0.2-1.2-0.5-1.7c-0.2-0.4-0.4-0.8-0.4-1.2c0-0.4,0.1-0.8,0.4-1.2c0.3-0.5,0.5-1,0.5-1.6
		c0-0.6-0.2-1.2-0.5-1.7c-0.2-0.4-0.4-0.8-0.4-1.2c0-0.4,0.1-0.8,0.4-1.2c0.3-0.5,0.5-1,0.5-1.6c0-0.6-0.2-1.2-0.5-1.7
		c-0.2-0.4-0.4-0.8-0.4-1.2c0-0.4,0.1-0.8,0.4-1.2c0.3-0.5,0.5-1,0.5-1.6c0-0.6-0.2-1.2-0.5-1.7c-0.2-0.4-0.4-0.8-0.4-1.2
		c0-0.4,0.1-0.8,0.4-1.2c0.3-0.5,0.5-1,0.5-1.6c0-0.6-0.2-1.2-0.5-1.7c-0.2-0.4-0.4-0.8-0.4-1.2c0-0.4,0.1-0.8,0.4-1.2
		C27.9,6.1,28,5.5,28,5c0-0.6-0.2-1.2-0.5-1.7c-0.2-0.4-0.4-0.8-0.4-1.2c0,0,0-0.1,0-0.1C26.9,2,26.7,2,26.4,2.1
		c0,0.6,0.2,1.1,0.5,1.6c0.2,0.4,0.4,0.8,0.4,1.2c0,0.4-0.1,0.8-0.4,1.2c-0.3,0.5-0.5,1-0.5,1.6c0,0.6,0.2,1.2,0.5,1.7
		c0.2,0.4,0.4,0.8,0.4,1.2c0,0.4-0.1,0.8-0.4,1.2c-0.3,0.5-0.5,1-0.5,1.6c0,0.6,0.2,1.2,0.5,1.7c0.2,0.4,0.4,0.8,0.4,1.2
		c0,0.4-0.1,0.8-0.4,1.2c-0.3,0.5-0.5,1-0.5,1.6c0,0.6,0.2,1.2,0.5,1.7c0.2,0.4,0.4,0.8,0.4,1.2c0,0.4-0.1,0.8-0.4,1.2
		c-0.3,0.5-0.5,1-0.5,1.6c0,0.6,0.2,1.2,0.5,1.7c0.2,0.4,0.4,0.8,0.4,1.2c0,0.4-0.1,0.8-0.4,1.2c-0.3,0.5-0.5,1-0.5,1.6
		c0,0.6,0.2,1.2,0.5,1.7c0.2,0.4,0.4,0.8,0.4,1.2c0,0.4-0.1,0.8-0.4,1.2c-0.3,0.5-0.5,1-0.5,1.6c0,0.6,0.2,1.2,0.5,1.7
		c0.2,0.4,0.4,0.8,0.4,1.2c0,0.4-0.1,0.8-0.4,1.2c-0.3,0.5-0.5,1-0.5,1.6c0,0.6,0.2,1.2,0.5,1.7c0.2,0.4,0.4,0.8,0.4,1.2
		c0,0.4-0.1,0.8-0.4,1.2c-0.3,0.5-0.5,1-0.5,1.6c0,0.6,0.2,1.2,0.5,1.7c0.2,0.4,0.4,0.8,0.4,1.2c0,0.4-0.1,0.8-0.4,1.2
		c-0.3,0.5-0.5,1-0.5,1.6c0,0.6,0.2,1.2,0.5,1.7c0.2,0.4,0.4,0.8,0.4,1.2c0,0.4-0.1,0.8-0.4,1.2c-0.3,0.5-0.5,1-0.5,1.6
		c0,0.6,0.2,1.2,0.5,1.7c0.2,0.4,0.4,0.8,0.4,1.2c0,0.4-0.1,0.8-0.4,1.2c-0.3,0.5-0.5,1-0.5,1.6c0,0.6,0.2,1.2,0.5,1.7
		c0.2,0.4,0.4,0.8,0.4,1.2c0,0.1,0,0.1,0,0.2C27.5,68.2,27.7,68.2,28,68.3z"/>
	<path class="st0" d="M19.7,63.9c0.3-0.5,0.5-1,0.5-1.6c0-0.6-0.2-1.2-0.5-1.7c-0.2-0.4-0.4-0.8-0.4-1.2c0-0.4,0.1-0.8,0.4-1.2
		c0.3-0.5,0.5-1,0.5-1.6c0-0.6-0.2-1.2-0.5-1.7c-0.2-0.4-0.4-0.8-0.4-1.2c0-0.4,0.1-0.8,0.4-1.2c0.3-0.5,0.5-1,0.5-1.6
		c0-0.6-0.2-1.2-0.5-1.7c-0.2-0.4-0.4-0.8-0.4-1.2c0-0.4,0.1-0.8,0.4-1.2c0.3-0.5,0.5-1,0.5-1.6c0-0.6-0.2-1.2-0.5-1.7
		c-0.2-0.4-0.4-0.8-0.4-1.2c0-0.4,0.1-0.8,0.4-1.2c0.3-0.5,0.5-1,0.5-1.6c0-0.6-0.2-1.2-0.5-1.7c-0.2-0.4-0.4-0.8-0.4-1.2
		c0-0.4,0.1-0.8,0.4-1.2c0.3-0.5,0.5-1,0.5-1.6c0-0.6-0.2-1.2-0.5-1.7c-0.2-0.4-0.4-0.8-0.4-1.2c0-0.4,0.1-0.8,0.4-1.2
		c0.3-0.5,0.5-1,0.5-1.6c0-0.6-0.2-1.2-0.5-1.7c-0.2-0.4-0.4-0.8-0.4-1.2c0-0.4,0.1-0.8,0.4-1.2c0.3-0.5,0.5-1,0.5-1.6
		c0-0.6-0.2-1.2-0.5-1.7c-0.2-0.4-0.4-0.8-0.4-1.2c0-0.4,0.1-0.8,0.4-1.2c0.3-0.5,0.5-1,0.5-1.6c0-0.6-0.2-1.2-0.5-1.7
		c-0.2-0.4-0.4-0.8-0.4-1.2c0-0.4,0.1-0.8,0.4-1.2c0.3-0.5,0.5-1,0.5-1.6c0-0.6-0.2-1.2-0.5-1.7c-0.2-0.4-0.4-0.8-0.4-1.2
		c0-0.4,0.1-0.8,0.4-1.2c0.3-0.5,0.5-1,0.5-1.6c0-0.2,0-0.4-0.1-0.5c-0.2,0.1-0.5,0.2-0.7,0.3c0,0.1,0,0.1,0,0.2
		c0,0.4-0.1,0.8-0.4,1.2c-0.3,0.5-0.5,1-0.5,1.6c0,0.6,0.2,1.2,0.5,1.7c0.2,0.4,0.4,0.8,0.4,1.2c0,0.4-0.1,0.8-0.4,1.2
		c-0.3,0.5-0.5,1-0.5,1.6c0,0.6,0.2,1.2,0.5,1.7c0.2,0.4,0.4,0.8,0.4,1.2c0,0.4-0.1,0.8-0.4,1.2c-0.3,0.5-0.5,1-0.5,1.6
		c0,0.6,0.2,1.2,0.5,1.7c0.2,0.4,0.4,0.8,0.4,1.2c0,0.4-0.1,0.8-0.4,1.2c-0.3,0.5-0.5,1-0.5,1.6c0,0.6,0.2,1.2,0.5,1.7
		c0.2,0.4,0.4,0.8,0.4,1.2c0,0.4-0.1,0.8-0.4,1.2c-0.3,0.5-0.5,1-0.5,1.6c0,0.6,0.2,1.2,0.5,1.7c0.2,0.4,0.4,0.8,0.4,1.2
		c0,0.4-0.1,0.8-0.4,1.2c-0.3,0.5-0.5,1-0.5,1.6c0,0.6,0.2,1.2,0.5,1.7c0.2,0.4,0.4,0.8,0.4,1.2c0,0.4-0.1,0.8-0.4,1.2
		c-0.3,0.5-0.5,1-0.5,1.6c0,0.6,0.2,1.2,0.5,1.7c0.2,0.4,0.4,0.8,0.4,1.2c0,0.4-0.1,0.8-0.4,1.2c-0.3,0.5-0.5,1-0.5,1.6
		c0,0.6,0.2,1.2,0.5,1.7c0.2,0.4,0.4,0.8,0.4,1.2c0,0.4-0.1,0.8-0.4,1.2c-0.3,0.5-0.5,1-0.5,1.6c0,0.6,0.2,1.2,0.5,1.7
		c0.2,0.4,0.4,0.8,0.4,1.2c0,0.4-0.1,0.8-0.4,1.2c-0.3,0.5-0.5,1-0.5,1.6c0,0.6,0.2,1.2,0.5,1.7c0.2,0.4,0.4,0.8,0.4,1.2
		c0,0.4-0.1,0.8-0.4,1.2c-0.3,0.4-0.5,0.9-0.5,1.4c0.2,0.1,0.5,0.2,0.7,0.4c0-0.1,0-0.1,0-0.2C19.4,64.6,19.5,64.2,19.7,63.9z"/>
	<path class="st0" d="M12,58.1c0.3-0.5,0.5-1,0.5-1.6c0-0.6-0.2-1.2-0.5-1.7c-0.2-0.4-0.4-0.8-0.4-1.2c0-0.4,0.1-0.8,0.4-1.2
		c0.3-0.5,0.5-1,0.5-1.6c0-0.6-0.2-1.2-0.5-1.7c-0.2-0.4-0.4-0.8-0.4-1.2c0-0.4,0.1-0.8,0.4-1.2c0.3-0.5,0.5-1,0.5-1.6
		c0-0.6-0.2-1.2-0.5-1.7c-0.2-0.4-0.4-0.8-0.4-1.2c0-0.4,0.1-0.8,0.4-1.2c0.3-0.5,0.5-1,0.5-1.6c0-0.6-0.2-1.2-0.5-1.7
		c-0.2-0.4-0.4-0.8-0.4-1.2c0-0.4,0.1-0.8,0.4-1.2c0.3-0.5,0.5-1,0.5-1.6c0-0.6-0.2-1.2-0.5-1.7c-0.2-0.4-0.4-0.8-0.4-1.2
		c0-0.4,0.1-0.8,0.4-1.2c0.3-0.5,0.5-1,0.5-1.6c0-0.6-0.2-1.2-0.5-1.7c-0.2-0.4-0.4-0.8-0.4-1.2c0-0.4,0.1-0.8,0.4-1.2
		c0.3-0.5,0.5-1,0.5-1.6c0-0.6-0.2-1.2-0.5-1.7c-0.2-0.4-0.4-0.8-0.4-1.2c0-0.4,0.1-0.8,0.4-1.2c0.3-0.5,0.5-1,0.5-1.6
		c0-0.6-0.2-1.2-0.5-1.7c-0.2-0.4-0.4-0.8-0.4-1.2c0-0.4,0.1-0.8,0.4-1.2c0.3-0.5,0.5-1,0.5-1.6c0-0.3-0.1-0.7-0.2-1
		c-0.2,0.2-0.4,0.4-0.6,0.6c0,0.1,0.1,0.3,0.1,0.4c0,0.4-0.1,0.8-0.4,1.2c-0.3,0.5-0.5,1-0.5,1.6c0,0.6,0.2,1.2,0.5,1.7
		c0.2,0.4,0.4,0.8,0.4,1.2c0,0.4-0.1,0.8-0.4,1.2c-0.3,0.5-0.5,1-0.5,1.6c0,0.6,0.2,1.2,0.5,1.7c0.2,0.4,0.4,0.8,0.4,1.2
		c0,0.4-0.1,0.8-0.4,1.2c-0.3,0.5-0.5,1-0.5,1.6c0,0.6,0.2,1.2,0.5,1.7c0.2,0.4,0.4,0.8,0.4,1.2c0,0.4-0.1,0.8-0.4,1.2
		c-0.3,0.5-0.5,1-0.5,1.6c0,0.6,0.2,1.2,0.5,1.7c0.2,0.4,0.4,0.8,0.4,1.2c0,0.4-0.1,0.8-0.4,1.2c-0.3,0.5-0.5,1-0.5,1.6
		c0,0.6,0.2,1.2,0.5,1.7c0.2,0.4,0.4,0.8,0.4,1.2c0,0.4-0.1,0.8-0.4,1.2c-0.3,0.5-0.5,1-0.5,1.6c0,0.6,0.2,1.2,0.5,1.7
		c0.2,0.4,0.4,0.8,0.4,1.2c0,0.4-0.1,0.8-0.4,1.2c-0.3,0.5-0.5,1-0.5,1.6c0,0.6,0.2,1.2,0.5,1.7c0.2,0.4,0.4,0.8,0.4,1.2
		c0,0.4-0.1,0.8-0.4,1.2c-0.3,0.5-0.5,1-0.5,1.6c0,0.6,0.2,1.2,0.5,1.7c0.2,0.4,0.4,0.8,0.4,1.2c0,0.4-0.1,0.8-0.4,1.2
		c-0.3,0.4-0.4,0.9-0.5,1.3c0.2,0.2,0.5,0.5,0.8,0.7c0-0.1-0.1-0.3-0.1-0.4C11.6,58.9,11.7,58.5,12,58.1z"/>
	<path class="st0" d="M66.8,23c-0.4-1.1-0.9-2.2-1.4-3.2c0.1,0.4,0.2,0.8,0.4,1.2c0.2,0.4,0.4,0.8,0.4,1.2c0,0.4-0.1,0.8-0.4,1.2
		c-0.3,0.5-0.5,1-0.5,1.6c0,0.6,0.2,1.2,0.5,1.7c0.2,0.4,0.4,0.8,0.4,1.2c0,0.4-0.1,0.8-0.4,1.2c-0.3,0.5-0.5,1-0.5,1.6
		c0,0.6,0.2,1.2,0.5,1.7c0.2,0.4,0.4,0.8,0.4,1.2c0,0.4-0.1,0.8-0.4,1.2c-0.3,0.5-0.5,1-0.5,1.6c0,0.6,0.2,1.2,0.5,1.7
		c0.2,0.4,0.4,0.8,0.4,1.2c0,0.4-0.1,0.8-0.4,1.2c-0.3,0.5-0.5,1-0.5,1.6c0,0.6,0.2,1.2,0.5,1.7c0.2,0.4,0.4,0.8,0.4,1.2
		c0,0.4-0.1,0.8-0.4,1.2c-0.3,0.5-0.5,1-0.5,1.6c0,0.6,0.2,1.1,0.5,1.6c0.1-0.3,0.3-0.6,0.4-0.8c-0.1-0.2-0.1-0.5-0.1-0.7
		c0-0.4,0.1-0.8,0.4-1.2c0.3-0.5,0.5-1,0.5-1.6c0-0.6-0.2-1.2-0.5-1.7C66.2,43,66,42.6,66,42.1c0-0.4,0.1-0.8,0.4-1.2
		c0.3-0.5,0.5-1,0.5-1.6c0-0.6-0.2-1.2-0.5-1.7c-0.2-0.4-0.4-0.8-0.4-1.2c0-0.4,0.1-0.8,0.4-1.2c0.3-0.5,0.5-1,0.5-1.6
		c0-0.6-0.2-1.2-0.5-1.7c-0.2-0.4-0.4-0.8-0.4-1.2c0-0.4,0.1-0.8,0.4-1.2c0.3-0.5,0.5-1,0.5-1.6c0-0.6-0.2-1.2-0.5-1.7
		C66.2,25.8,66,25.4,66,25c0-0.4,0.1-0.8,0.4-1.2C66.6,23.5,66.7,23.3,66.8,23z"/>
	<path class="st0" d="M8.1,54.8c-0.2-0.4-0.4-0.8-0.4-1.2c0-0.4,0.1-0.8,0.4-1.2c0.3-0.5,0.5-1,0.5-1.6c0-0.6-0.2-1.2-0.5-1.7
		c-0.2-0.4-0.4-0.8-0.4-1.2c0-0.4,0.1-0.8,0.4-1.2c0.3-0.5,0.5-1,0.5-1.6c0-0.6-0.2-1.2-0.5-1.7c-0.2-0.4-0.4-0.8-0.4-1.2
		c0-0.4,0.1-0.8,0.4-1.2c0.3-0.5,0.5-1,0.5-1.6c0-0.6-0.2-1.2-0.5-1.7c-0.2-0.4-0.4-0.8-0.4-1.2c0-0.4,0.1-0.8,0.4-1.2
		c0.3-0.5,0.5-1,0.5-1.6c0-0.6-0.2-1.2-0.5-1.7c-0.2-0.4-0.4-0.8-0.4-1.2c0-0.4,0.1-0.8,0.4-1.2c0.3-0.5,0.5-1,0.5-1.6
		c0-0.6-0.2-1.2-0.5-1.7c-0.2-0.4-0.4-0.8-0.4-1.2c0-0.4,0.1-0.8,0.4-1.2c0.3-0.5,0.5-1,0.5-1.6c0-0.6-0.2-1.2-0.5-1.7
		c-0.2-0.4-0.4-0.8-0.4-1.2c0-0.4,0.1-0.8,0.4-1.2c0.3-0.5,0.5-1,0.5-1.6c0-0.6-0.2-1.2-0.5-1.7C8,14.6,8,14.5,7.9,14.4
		c-0.2,0.2-0.3,0.4-0.5,0.7c0,0,0,0.1,0,0.1c0.2,0.4,0.4,0.8,0.4,1.2c0,0.4-0.1,0.8-0.4,1.2c-0.3,0.5-0.5,1-0.5,1.6
		c0,0.6,0.2,1.2,0.5,1.7c0.2,0.4,0.4,0.8,0.4,1.2c0,0.4-0.1,0.8-0.4,1.2C7.1,23.8,7,24.4,7,25c0,0.6,0.2,1.2,0.5,1.7
		c0.2,0.4,0.4,0.8,0.4,1.2c0,0.4-0.1,0.8-0.4,1.2c-0.3,0.5-0.5,1-0.5,1.6c0,0.6,0.2,1.2,0.5,1.7c0.2,0.4,0.4,0.8,0.4,1.2
		c0,0.4-0.1,0.8-0.4,1.2c-0.3,0.5-0.5,1-0.5,1.6c0,0.6,0.2,1.2,0.5,1.7c0.2,0.4,0.4,0.8,0.4,1.2c0,0.4-0.1,0.8-0.4,1.2
		C7.1,41,7,41.5,7,42.1c0,0.6,0.2,1.2,0.5,1.7c0.2,0.4,0.4,0.8,0.4,1.2c0,0.4-0.1,0.8-0.4,1.2c-0.3,0.5-0.5,1-0.5,1.6
		c0,0.6,0.2,1.2,0.5,1.7c0.2,0.4,0.4,0.8,0.4,1.2c0,0.4-0.1,0.8-0.4,1.2C7.1,52.4,7,53,7,53.6c0,0.3,0,0.6,0.1,0.8
		c0.5,0.7,1,1.3,1.5,2C8.6,55.9,8.4,55.3,8.1,54.8z"/>
	<path class="st0" d="M50.8,63.9c0.3-0.5,0.5-1,0.5-1.6c0-0.6-0.2-1.2-0.5-1.7c-0.2-0.4-0.4-0.8-0.4-1.2c0-0.4,0.1-0.8,0.4-1.2
		c0.3-0.5,0.5-1,0.5-1.6c0-0.6-0.2-1.2-0.5-1.7c-0.2-0.4-0.4-0.8-0.4-1.2c0-0.4,0.1-0.8,0.4-1.2c0.3-0.5,0.5-1,0.5-1.6
		c0-0.6-0.2-1.2-0.5-1.7c-0.2-0.4-0.4-0.8-0.4-1.2c0-0.4,0.1-0.8,0.4-1.2c0.3-0.5,0.5-1,0.5-1.6c0-0.6-0.2-1.2-0.5-1.7
		c-0.2-0.4-0.4-0.8-0.4-1.2c0-0.4,0.1-0.8,0.4-1.2c0.3-0.5,0.5-1,0.5-1.6c0-0.6-0.2-1.2-0.5-1.7c-0.2-0.4-0.4-0.8-0.4-1.2
		c0-0.4,0.1-0.8,0.4-1.2c0.3-0.5,0.5-1,0.5-1.6c0-0.6-0.2-1.2-0.5-1.7c-0.2-0.4-0.4-0.8-0.4-1.2c0-0.4,0.1-0.8,0.4-1.2
		c0.3-0.5,0.5-1,0.5-1.6c0-0.6-0.2-1.2-0.5-1.7c-0.2-0.4-0.4-0.8-0.4-1.2c0-0.4,0.1-0.8,0.4-1.2c0.3-0.5,0.5-1,0.5-1.6
		c0-0.6-0.2-1.2-0.5-1.7c-0.2-0.4-0.4-0.8-0.4-1.2c0-0.4,0.1-0.8,0.4-1.2c0.3-0.5,0.5-1,0.5-1.6c0-0.6-0.2-1.2-0.5-1.7
		c-0.2-0.4-0.4-0.8-0.4-1.2c0-0.4,0.1-0.8,0.4-1.2c0.3-0.5,0.5-1,0.5-1.6c0-0.6-0.2-1.2-0.5-1.7c-0.2-0.4-0.4-0.8-0.4-1.2
		c0-0.4,0.1-0.8,0.4-1.2c0.3-0.4,0.5-0.9,0.5-1.4c-0.2-0.1-0.5-0.2-0.7-0.4c0,0.1,0,0.1,0,0.2c0,0.4-0.1,0.8-0.4,1.2
		c-0.3,0.5-0.5,1-0.5,1.6c0,0.6,0.2,1.2,0.5,1.7c0.2,0.4,0.4,0.8,0.4,1.2c0,0.4-0.1,0.8-0.4,1.2c-0.3,0.5-0.5,1-0.5,1.6
		c0,0.6,0.2,1.2,0.5,1.7c0.2,0.4,0.4,0.8,0.4,1.2c0,0.4-0.1,0.8-0.4,1.2c-0.3,0.5-0.5,1-0.5,1.6c0,0.6,0.2,1.2,0.5,1.7
		c0.2,0.4,0.4,0.8,0.4,1.2c0,0.4-0.1,0.8-0.4,1.2c-0.3,0.5-0.5,1-0.5,1.6c0,0.6,0.2,1.2,0.5,1.7c0.2,0.4,0.4,0.8,0.4,1.2
		c0,0.4-0.1,0.8-0.4,1.2c-0.3,0.5-0.5,1-0.5,1.6c0,0.6,0.2,1.2,0.5,1.7c0.2,0.4,0.4,0.8,0.4,1.2c0,0.4-0.1,0.8-0.4,1.2
		c-0.3,0.5-0.5,1-0.5,1.6c0,0.6,0.2,1.2,0.5,1.7c0.2,0.4,0.4,0.8,0.4,1.2c0,0.4-0.1,0.8-0.4,1.2c-0.3,0.5-0.5,1-0.5,1.6
		c0,0.6,0.2,1.2,0.5,1.7c0.2,0.4,0.4,0.8,0.4,1.2c0,0.4-0.1,0.8-0.4,1.2c-0.3,0.5-0.5,1-0.5,1.6c0,0.6,0.2,1.2,0.5,1.7
		c0.2,0.4,0.4,0.8,0.4,1.2c0,0.4-0.1,0.8-0.4,1.2c-0.3,0.5-0.5,1-0.5,1.6c0,0.6,0.2,1.2,0.5,1.7c0.2,0.4,0.4,0.8,0.4,1.2
		c0,0.4-0.1,0.8-0.4,1.2c-0.3,0.5-0.5,1-0.5,1.6c0,0.6,0.2,1.2,0.5,1.7c0.2,0.4,0.4,0.8,0.4,1.2c0,0.4-0.1,0.8-0.4,1.2
		c-0.3,0.5-0.5,1-0.5,1.6c0,0.2,0,0.4,0.1,0.5c0.2-0.1,0.5-0.2,0.7-0.3c0-0.1,0-0.1,0-0.2C50.5,64.6,50.6,64.2,50.8,63.9z"/>
	<path class="st0" d="M4.2,49.1c-0.2-0.4-0.4-0.8-0.4-1.2c0-0.4,0.1-0.8,0.4-1.2c0.3-0.5,0.5-1,0.5-1.6c0-0.6-0.2-1.2-0.5-1.7
		c-0.2-0.4-0.4-0.8-0.4-1.2c0-0.4,0.1-0.8,0.4-1.2c0.3-0.5,0.5-1,0.5-1.6c0-0.6-0.2-1.2-0.5-1.7c-0.2-0.4-0.4-0.8-0.4-1.2
		c0-0.4,0.1-0.8,0.4-1.2c0.3-0.5,0.5-1,0.5-1.6c0-0.6-0.2-1.2-0.5-1.7c-0.2-0.4-0.4-0.8-0.4-1.2c0-0.4,0.1-0.8,0.4-1.2
		c0.3-0.5,0.5-1,0.5-1.6c0-0.6-0.2-1.2-0.5-1.7c-0.2-0.4-0.4-0.8-0.4-1.2c0-0.4,0.1-0.8,0.4-1.2c0.3-0.5,0.5-1,0.5-1.6
		c0-0.6-0.2-1.1-0.5-1.6c-0.1,0.3-0.3,0.6-0.4,0.8C3.9,21.6,4,21.9,4,22.1c0,0.4-0.1,0.8-0.4,1.2c-0.3,0.5-0.5,1-0.5,1.6
		c0,0.6,0.2,1.2,0.5,1.7C3.8,27,4,27.4,4,27.9c0,0.4-0.1,0.8-0.4,1.2c-0.3,0.5-0.5,1-0.5,1.6c0,0.6,0.2,1.2,0.5,1.7
		C3.8,32.7,4,33.2,4,33.6c0,0.4-0.1,0.8-0.4,1.2c-0.3,0.5-0.5,1-0.5,1.6c0,0.6,0.2,1.2,0.5,1.7C3.8,38.4,4,38.9,4,39.3
		c0,0.4-0.1,0.8-0.4,1.2c-0.3,0.5-0.5,1-0.5,1.6c0,0.6,0.2,1.2,0.5,1.7C3.8,44.2,4,44.6,4,45c0,0.4-0.1,0.8-0.4,1.2
		c-0.2,0.2-0.3,0.5-0.4,0.8c0.4,1.1,0.9,2.2,1.4,3.2C4.6,49.9,4.4,49.5,4.2,49.1z"/>
	<path class="st0" d="M54.7,60.6c-0.2-0.4-0.4-0.8-0.4-1.2c0-0.4,0.1-0.8,0.4-1.2c0.3-0.5,0.5-1,0.5-1.6c0-0.6-0.2-1.2-0.5-1.7
		c-0.2-0.4-0.4-0.8-0.4-1.2c0-0.4,0.1-0.8,0.4-1.2c0.3-0.5,0.5-1,0.5-1.6c0-0.6-0.2-1.2-0.5-1.7c-0.2-0.4-0.4-0.8-0.4-1.2
		c0-0.4,0.1-0.8,0.4-1.2c0.3-0.5,0.5-1,0.5-1.6c0-0.6-0.2-1.2-0.5-1.7c-0.2-0.4-0.4-0.8-0.4-1.2c0-0.4,0.1-0.8,0.4-1.2
		c0.3-0.5,0.5-1,0.5-1.6c0-0.6-0.2-1.2-0.5-1.7c-0.2-0.4-0.4-0.8-0.4-1.2c0-0.4,0.1-0.8,0.4-1.2c0.3-0.5,0.5-1,0.5-1.6
		c0-0.6-0.2-1.2-0.5-1.7c-0.2-0.4-0.4-0.8-0.4-1.2c0-0.4,0.1-0.8,0.4-1.2c0.3-0.5,0.5-1,0.5-1.6c0-0.6-0.2-1.2-0.5-1.7
		c-0.2-0.4-0.4-0.8-0.4-1.2c0-0.4,0.1-0.8,0.4-1.2c0.3-0.5,0.5-1,0.5-1.6c0-0.6-0.2-1.2-0.5-1.7c-0.2-0.4-0.4-0.8-0.4-1.2
		c0-0.4,0.1-0.8,0.4-1.2c0.3-0.5,0.5-1,0.5-1.6c0-0.6-0.2-1.2-0.5-1.7c-0.2-0.4-0.4-0.8-0.4-1.2c0-0.4,0.1-0.8,0.4-1.2
		c0.3-0.5,0.5-1,0.5-1.6c0-0.6-0.2-1.2-0.5-1.7c-0.2-0.4-0.4-0.8-0.4-1.2c0-0.2,0-0.4,0.1-0.7c-0.2-0.1-0.4-0.3-0.6-0.4
		c-0.1,0.3-0.2,0.7-0.2,1.1c0,0.6,0.2,1.2,0.5,1.7c0.2,0.4,0.4,0.8,0.4,1.2c0,0.4-0.1,0.8-0.4,1.2c-0.3,0.5-0.5,1-0.5,1.6
		c0,0.6,0.2,1.2,0.5,1.7c0.2,0.4,0.4,0.8,0.4,1.2c0,0.4-0.1,0.8-0.4,1.2c-0.3,0.5-0.5,1-0.5,1.6c0,0.6,0.2,1.2,0.5,1.7
		c0.2,0.4,0.4,0.8,0.4,1.2c0,0.4-0.1,0.8-0.4,1.2c-0.3,0.5-0.5,1-0.5,1.6c0,0.6,0.2,1.2,0.5,1.7c0.2,0.4,0.4,0.8,0.4,1.2
		c0,0.4-0.1,0.8-0.4,1.2c-0.3,0.5-0.5,1-0.5,1.6c0,0.6,0.2,1.2,0.5,1.7c0.2,0.4,0.4,0.8,0.4,1.2c0,0.4-0.1,0.8-0.4,1.2
		c-0.3,0.5-0.5,1-0.5,1.6c0,0.6,0.2,1.2,0.5,1.7c0.2,0.4,0.4,0.8,0.4,1.2c0,0.4-0.1,0.8-0.4,1.2c-0.3,0.5-0.5,1-0.5,1.6
		c0,0.6,0.2,1.2,0.5,1.7c0.2,0.4,0.4,0.8,0.4,1.2c0,0.4-0.1,0.8-0.4,1.2c-0.3,0.5-0.5,1-0.5,1.6c0,0.6,0.2,1.2,0.5,1.7
		c0.2,0.4,0.4,0.8,0.4,1.2c0,0.4-0.1,0.8-0.4,1.2c-0.3,0.5-0.5,1-0.5,1.6c0,0.6,0.2,1.2,0.5,1.7c0.2,0.4,0.4,0.8,0.4,1.2
		c0,0.4-0.1,0.8-0.4,1.2c-0.3,0.5-0.5,1-0.5,1.6c0,0.6,0.2,1.2,0.5,1.7c0.2,0.4,0.4,0.8,0.4,1.2c0,0.2,0,0.5-0.1,0.7
		c0.3-0.2,0.6-0.4,0.9-0.6c0,0,0-0.1,0-0.1C55.3,61.6,55.1,61.1,54.7,60.6z"/>
	<path class="st0" d="M58.3,59.3c0-0.4,0.1-0.8,0.4-1.2c0.3-0.5,0.5-1,0.5-1.6c0-0.6-0.2-1.2-0.5-1.7c-0.2-0.4-0.4-0.8-0.4-1.2
		c0-0.4,0.1-0.8,0.4-1.2c0.3-0.5,0.5-1,0.5-1.6c0-0.6-0.2-1.2-0.5-1.7c-0.2-0.4-0.4-0.8-0.4-1.2c0-0.4,0.1-0.8,0.4-1.2
		c0.3-0.5,0.5-1,0.5-1.6c0-0.6-0.2-1.2-0.5-1.7c-0.2-0.4-0.4-0.8-0.4-1.2c0-0.4,0.1-0.8,0.4-1.2c0.3-0.5,0.5-1,0.5-1.6
		c0-0.6-0.2-1.2-0.5-1.7c-0.2-0.4-0.4-0.8-0.4-1.2c0-0.4,0.1-0.8,0.4-1.2c0.3-0.5,0.5-1,0.5-1.6c0-0.6-0.2-1.2-0.5-1.7
		c-0.2-0.4-0.4-0.8-0.4-1.2c0-0.4,0.1-0.8,0.4-1.2c0.3-0.5,0.5-1,0.5-1.6c0-0.6-0.2-1.2-0.5-1.7c-0.2-0.4-0.4-0.8-0.4-1.2
		c0-0.4,0.1-0.8,0.4-1.2c0.3-0.5,0.5-1,0.5-1.6c0-0.6-0.2-1.2-0.5-1.7c-0.2-0.4-0.4-0.8-0.4-1.2c0-0.4,0.1-0.8,0.4-1.2
		c0.3-0.5,0.5-1,0.5-1.6c0-0.6-0.2-1.2-0.5-1.7c-0.2-0.4-0.4-0.8-0.4-1.2c0-0.4,0.1-0.8,0.4-1.2c0.3-0.4,0.4-0.9,0.5-1.3
		c-0.2-0.2-0.5-0.5-0.7-0.7c0,0.1,0.1,0.3,0.1,0.4c0,0.4-0.1,0.8-0.4,1.2c-0.3,0.5-0.5,1-0.5,1.6c0,0.6,0.2,1.2,0.5,1.7
		c0.2,0.4,0.4,0.8,0.4,1.2c0,0.4-0.1,0.8-0.4,1.2c-0.3,0.5-0.5,1-0.5,1.6c0,0.6,0.2,1.2,0.5,1.7c0.2,0.4,0.4,0.8,0.4,1.2
		c0,0.4-0.1,0.8-0.4,1.2c-0.3,0.5-0.5,1-0.5,1.6c0,0.6,0.2,1.2,0.5,1.7c0.2,0.4,0.4,0.8,0.4,1.2c0,0.4-0.1,0.8-0.4,1.2
		c-0.3,0.5-0.5,1-0.5,1.6c0,0.6,0.2,1.2,0.5,1.7c0.2,0.4,0.4,0.8,0.4,1.2c0,0.4-0.1,0.8-0.4,1.2c-0.3,0.5-0.5,1-0.5,1.6
		c0,0.6,0.2,1.2,0.5,1.7c0.2,0.4,0.4,0.8,0.4,1.2c0,0.4-0.1,0.8-0.4,1.2c-0.3,0.5-0.5,1-0.5,1.6c0,0.6,0.2,1.2,0.5,1.7
		c0.2,0.4,0.4,0.8,0.4,1.2c0,0.4-0.1,0.8-0.4,1.2c-0.3,0.5-0.5,1-0.5,1.6c0,0.6,0.2,1.2,0.5,1.7c0.2,0.4,0.4,0.8,0.4,1.2
		c0,0.4-0.1,0.8-0.4,1.2c-0.3,0.5-0.5,1-0.5,1.6c0,0.6,0.2,1.2,0.5,1.7c0.2,0.4,0.4,0.8,0.4,1.2c0,0.4-0.1,0.8-0.4,1.2
		c-0.3,0.5-0.5,1-0.5,1.6c0,0.3,0.1,0.7,0.2,1c0.2-0.2,0.4-0.4,0.6-0.6C58.3,59.6,58.3,59.5,58.3,59.3z"/>
	<path class="st0" d="M62.5,54.8c-0.2-0.4-0.4-0.8-0.4-1.2c0-0.4,0.1-0.8,0.4-1.2c0.3-0.5,0.5-1,0.5-1.6c0-0.6-0.2-1.2-0.5-1.7
		c-0.2-0.4-0.4-0.8-0.4-1.2c0-0.4,0.1-0.8,0.4-1.2c0.3-0.5,0.5-1,0.5-1.6c0-0.6-0.2-1.2-0.5-1.7c-0.2-0.4-0.4-0.8-0.4-1.2
		c0-0.4,0.1-0.8,0.4-1.2c0.3-0.5,0.5-1,0.5-1.6c0-0.6-0.2-1.2-0.5-1.7c-0.2-0.4-0.4-0.8-0.4-1.2c0-0.4,0.1-0.8,0.4-1.2
		c0.3-0.5,0.5-1,0.5-1.6c0-0.6-0.2-1.2-0.5-1.7c-0.2-0.4-0.4-0.8-0.4-1.2c0-0.4,0.1-0.8,0.4-1.2c0.3-0.5,0.5-1,0.5-1.6
		c0-0.6-0.2-1.2-0.5-1.7c-0.2-0.4-0.4-0.8-0.4-1.2c0-0.4,0.1-0.8,0.4-1.2c0.3-0.5,0.5-1,0.5-1.6c0-0.6-0.2-1.2-0.5-1.7
		c-0.2-0.4-0.4-0.8-0.4-1.2c0-0.4,0.1-0.8,0.4-1.2c0.3-0.5,0.5-1,0.5-1.6c0-0.3,0-0.6-0.1-0.8c-0.5-0.7-1-1.3-1.5-2
		c0,0.6,0.2,1.1,0.5,1.6c0.2,0.4,0.4,0.8,0.4,1.2c0,0.4-0.1,0.8-0.4,1.2c-0.3,0.5-0.5,1-0.5,1.6c0,0.6,0.2,1.2,0.5,1.7
		c0.2,0.4,0.4,0.8,0.4,1.2c0,0.4-0.1,0.8-0.4,1.2c-0.3,0.5-0.5,1-0.5,1.6c0,0.6,0.2,1.2,0.5,1.7c0.2,0.4,0.4,0.8,0.4,1.2
		c0,0.4-0.1,0.8-0.4,1.2c-0.3,0.5-0.5,1-0.5,1.6c0,0.6,0.2,1.2,0.5,1.7c0.2,0.4,0.4,0.8,0.4,1.2c0,0.4-0.1,0.8-0.4,1.2
		c-0.3,0.5-0.5,1-0.5,1.6c0,0.6,0.2,1.2,0.5,1.7c0.2,0.4,0.4,0.8,0.4,1.2c0,0.4-0.1,0.8-0.4,1.2c-0.3,0.5-0.5,1-0.5,1.6
		c0,0.6,0.2,1.2,0.5,1.7c0.2,0.4,0.4,0.8,0.4,1.2c0,0.4-0.1,0.8-0.4,1.2c-0.3,0.5-0.5,1-0.5,1.6c0,0.6,0.2,1.2,0.5,1.7
		c0.2,0.4,0.4,0.8,0.4,1.2c0,0.4-0.1,0.8-0.4,1.2c-0.3,0.5-0.5,1-0.5,1.6c0,0.6,0.2,1.2,0.5,1.7c0.1,0.1,0.1,0.2,0.1,0.3
		C62.2,55.3,62.4,55.1,62.5,54.8C62.5,54.9,62.5,54.9,62.5,54.8z"/>
	<path class="st0" d="M31.8,68.9c0.1-0.3,0.2-0.6,0.1-0.9c0-0.6-0.2-1.2-0.5-1.7C31.2,65.9,31,65.5,31,65c0-0.4,0.1-0.8,0.4-1.2
		c0.3-0.5,0.5-1,0.5-1.6c0-0.6-0.2-1.2-0.5-1.7c-0.2-0.4-0.4-0.8-0.4-1.2c0-0.4,0.1-0.8,0.4-1.2c0.3-0.5,0.5-1,0.5-1.6
		c0-0.6-0.2-1.2-0.5-1.7C31.2,54.5,31,54,31,53.6c0-0.4,0.1-0.8,0.4-1.2c0.3-0.5,0.5-1,0.5-1.6c0-0.6-0.2-1.2-0.5-1.7
		c-0.2-0.4-0.4-0.8-0.4-1.2c0-0.4,0.1-0.8,0.4-1.2c0.3-0.5,0.5-1,0.5-1.6c0-0.6-0.2-1.2-0.5-1.7C31.2,43,31,42.6,31,42.1
		c0-0.4,0.1-0.8,0.4-1.2c0.3-0.5,0.5-1,0.5-1.6c0-0.6-0.2-1.2-0.5-1.7c-0.2-0.4-0.4-0.8-0.4-1.2c0-0.4,0.1-0.8,0.4-1.2
		c0.3-0.5,0.5-1,0.5-1.6c0-0.6-0.2-1.2-0.5-1.7c-0.2-0.4-0.4-0.8-0.4-1.2c0-0.4,0.1-0.8,0.4-1.2c0.3-0.5,0.5-1,0.5-1.6
		c0-0.6-0.2-1.2-0.5-1.7C31.2,25.8,31,25.4,31,25c0-0.4,0.1-0.8,0.4-1.2c0.3-0.5,0.5-1,0.5-1.6c0-0.6-0.2-1.2-0.5-1.7
		c-0.2-0.4-0.4-0.8-0.4-1.2c0-0.4,0.1-0.8,0.4-1.2c0.3-0.5,0.5-1,0.5-1.6c0-0.6-0.2-1.2-0.5-1.7c-0.2-0.4-0.4-0.8-0.4-1.2
		c0-0.4,0.1-0.8,0.4-1.2c0.3-0.5,0.5-1,0.5-1.6c0-0.6-0.2-1.2-0.5-1.7C31.2,8.6,31,8.2,31,7.8c0-0.4,0.1-0.8,0.4-1.2
		c0.3-0.5,0.5-1,0.5-1.6c0-0.6-0.2-1.2-0.5-1.7C31.2,2.9,31,2.5,31,2c0-0.3,0.1-0.6,0.2-0.9c-0.3,0-0.6,0.1-0.8,0.1
		c-0.1,0.2-0.1,0.5-0.1,0.7c0,0.6,0.2,1.2,0.5,1.7c0.2,0.4,0.4,0.8,0.4,1.2c0,0.4-0.1,0.8-0.4,1.2c-0.3,0.5-0.5,1-0.5,1.6
		c0,0.6,0.2,1.2,0.5,1.7c0.2,0.4,0.4,0.8,0.4,1.2c0,0.4-0.1,0.8-0.4,1.2c-0.3,0.5-0.5,1-0.5,1.6c0,0.6,0.2,1.2,0.5,1.7
		c0.2,0.4,0.4,0.8,0.4,1.2c0,0.4-0.1,0.8-0.4,1.2c-0.3,0.5-0.5,1-0.5,1.6c0,0.6,0.2,1.2,0.5,1.7c0.2,0.4,0.4,0.8,0.4,1.2
		c0,0.4-0.1,0.8-0.4,1.2c-0.3,0.5-0.5,1-0.5,1.6c0,0.6,0.2,1.2,0.5,1.7c0.2,0.4,0.4,0.8,0.4,1.2c0,0.4-0.1,0.8-0.4,1.2
		c-0.3,0.5-0.5,1-0.5,1.6c0,0.6,0.2,1.2,0.5,1.7c0.2,0.4,0.4,0.8,0.4,1.2c0,0.4-0.1,0.8-0.4,1.2c-0.3,0.5-0.5,1-0.5,1.6
		c0,0.6,0.2,1.2,0.5,1.7c0.2,0.4,0.4,0.8,0.4,1.2c0,0.4-0.1,0.8-0.4,1.2c-0.3,0.5-0.5,1-0.5,1.6c0,0.6,0.2,1.2,0.5,1.7
		c0.2,0.4,0.4,0.8,0.4,1.2c0,0.4-0.1,0.8-0.4,1.2c-0.3,0.5-0.5,1-0.5,1.6c0,0.6,0.2,1.2,0.5,1.7c0.2,0.4,0.4,0.8,0.4,1.2
		c0,0.4-0.1,0.8-0.4,1.2c-0.3,0.5-0.5,1-0.5,1.6c0,0.6,0.2,1.2,0.5,1.7c0.2,0.4,0.4,0.8,0.4,1.2c0,0.4-0.1,0.8-0.4,1.2
		c-0.3,0.5-0.5,1-0.5,1.6c0,0.6,0.2,1.2,0.5,1.7c0.2,0.4,0.4,0.8,0.4,1.2c0,0.4-0.1,0.8-0.4,1.2c-0.3,0.5-0.5,1-0.5,1.6
		c0,0.6,0.2,1.2,0.5,1.7c0.2,0.4,0.4,0.8,0.4,1.2c0,0.3-0.1,0.6-0.2,0.8C31.3,68.8,31.5,68.8,31.8,68.9z"/>
	<path class="st0" d="M47,66.3c-0.2-0.4-0.4-0.8-0.4-1.2c0-0.4,0.1-0.8,0.4-1.2c0.3-0.5,0.5-1,0.5-1.6c0-0.6-0.2-1.2-0.5-1.7
		c-0.2-0.4-0.4-0.8-0.4-1.2c0-0.4,0.1-0.8,0.4-1.2c0.3-0.5,0.5-1,0.5-1.6c0-0.6-0.2-1.2-0.5-1.7c-0.2-0.4-0.4-0.8-0.4-1.2
		c0-0.4,0.1-0.8,0.4-1.2c0.3-0.5,0.5-1,0.5-1.6c0-0.6-0.2-1.2-0.5-1.7c-0.2-0.4-0.4-0.8-0.4-1.2c0-0.4,0.1-0.8,0.4-1.2
		c0.3-0.5,0.5-1,0.5-1.6c0-0.6-0.2-1.2-0.5-1.7c-0.2-0.4-0.4-0.8-0.4-1.2c0-0.4,0.1-0.8,0.4-1.2c0.3-0.5,0.5-1,0.5-1.6
		c0-0.6-0.2-1.2-0.5-1.7c-0.2-0.4-0.4-0.8-0.4-1.2c0-0.4,0.1-0.8,0.4-1.2c0.3-0.5,0.5-1,0.5-1.6c0-0.6-0.2-1.2-0.5-1.7
		c-0.2-0.4-0.4-0.8-0.4-1.2c0-0.4,0.1-0.8,0.4-1.2c0.3-0.5,0.5-1,0.5-1.6c0-0.6-0.2-1.2-0.5-1.7c-0.2-0.4-0.4-0.8-0.4-1.2
		c0-0.4,0.1-0.8,0.4-1.2c0.3-0.5,0.5-1,0.5-1.6c0-0.6-0.2-1.2-0.5-1.7c-0.2-0.4-0.4-0.8-0.4-1.2c0-0.4,0.1-0.8,0.4-1.2
		c0.3-0.5,0.5-1,0.5-1.6c0-0.6-0.2-1.2-0.5-1.7c-0.2-0.4-0.4-0.8-0.4-1.2c0-0.4,0.1-0.8,0.4-1.2c0.3-0.5,0.5-1,0.5-1.6
		c0-0.6-0.2-1.2-0.5-1.7c-0.2-0.4-0.4-0.8-0.4-1.2c0-0.4,0.1-0.8,0.4-1.2c0.3-0.5,0.5-1,0.5-1.6c0-0.6-0.2-1.2-0.5-1.7
		c0,0,0-0.1-0.1-0.1C46.6,3,46.3,2.9,46,2.8c0.1,0.3,0.2,0.6,0.4,0.9c0.2,0.4,0.4,0.8,0.4,1.2c0,0.4-0.1,0.8-0.4,1.2
		c-0.3,0.5-0.5,1-0.5,1.6c0,0.6,0.2,1.2,0.5,1.7c0.2,0.4,0.4,0.8,0.4,1.2c0,0.4-0.1,0.8-0.4,1.2c-0.3,0.5-0.5,1-0.5,1.6
		c0,0.6,0.2,1.2,0.5,1.7c0.2,0.4,0.4,0.8,0.4,1.2c0,0.4-0.1,0.8-0.4,1.2c-0.3,0.5-0.5,1-0.5,1.6c0,0.6,0.2,1.2,0.5,1.7
		c0.2,0.4,0.4,0.8,0.4,1.2c0,0.4-0.1,0.8-0.4,1.2c-0.3,0.5-0.5,1-0.5,1.6c0,0.6,0.2,1.2,0.5,1.7c0.2,0.4,0.4,0.8,0.4,1.2
		c0,0.4-0.1,0.8-0.4,1.2c-0.3,0.5-0.5,1-0.5,1.6c0,0.6,0.2,1.2,0.5,1.7c0.2,0.4,0.4,0.8,0.4,1.2c0,0.4-0.1,0.8-0.4,1.2
		c-0.3,0.5-0.5,1-0.5,1.6c0,0.6,0.2,1.2,0.5,1.7c0.2,0.4,0.4,0.8,0.4,1.2c0,0.4-0.1,0.8-0.4,1.2c-0.3,0.5-0.5,1-0.5,1.6
		c0,0.6,0.2,1.2,0.5,1.7c0.2,0.4,0.4,0.8,0.4,1.2c0,0.4-0.1,0.8-0.4,1.2c-0.3,0.5-0.5,1-0.5,1.6c0,0.6,0.2,1.2,0.5,1.7
		c0.2,0.4,0.4,0.8,0.4,1.2c0,0.4-0.1,0.8-0.4,1.2c-0.3,0.5-0.5,1-0.5,1.6c0,0.6,0.2,1.2,0.5,1.7c0.2,0.4,0.4,0.8,0.4,1.2
		c0,0.4-0.1,0.8-0.4,1.2c-0.3,0.5-0.5,1-0.5,1.6c0,0.6,0.2,1.2,0.5,1.7c0.2,0.4,0.4,0.8,0.4,1.2c0,0.4-0.1,0.8-0.4,1.2
		c-0.3,0.5-0.5,1-0.5,1.6c0,0.6,0.2,1.2,0.5,1.7c0.1,0.1,0.1,0.2,0.1,0.3c0.2-0.1,0.5-0.2,0.7-0.3C47.1,66.6,47.1,66.4,47,66.3z"/>
	<path class="st0" d="M35.8,68c0-0.6-0.2-1.2-0.5-1.7c-0.2-0.4-0.4-0.8-0.4-1.2c0-0.4,0.1-0.8,0.4-1.2c0.3-0.5,0.5-1,0.5-1.6
		c0-0.6-0.2-1.2-0.5-1.7c-0.2-0.4-0.4-0.8-0.4-1.2c0-0.4,0.1-0.8,0.4-1.2c0.3-0.5,0.5-1,0.5-1.6c0-0.6-0.2-1.2-0.5-1.7
		c-0.2-0.4-0.4-0.8-0.4-1.2c0-0.4,0.1-0.8,0.4-1.2c0.3-0.5,0.5-1,0.5-1.6c0-0.6-0.2-1.2-0.5-1.7c-0.2-0.4-0.4-0.8-0.4-1.2
		c0-0.4,0.1-0.8,0.4-1.2c0.3-0.5,0.5-1,0.5-1.6c0-0.6-0.2-1.2-0.5-1.7c-0.2-0.4-0.4-0.8-0.4-1.2c0-0.4,0.1-0.8,0.4-1.2
		c0.3-0.5,0.5-1,0.5-1.6c0-0.6-0.2-1.2-0.5-1.7c-0.2-0.4-0.4-0.8-0.4-1.2c0-0.4,0.1-0.8,0.4-1.2c0.3-0.5,0.5-1,0.5-1.6
		c0-0.6-0.2-1.2-0.5-1.7c-0.2-0.4-0.4-0.8-0.4-1.2c0-0.4,0.1-0.8,0.4-1.2c0.3-0.5,0.5-1,0.5-1.6c0-0.6-0.2-1.2-0.5-1.7
		c-0.2-0.4-0.4-0.8-0.4-1.2c0-0.4,0.1-0.8,0.4-1.2c0.3-0.5,0.5-1,0.5-1.6c0-0.6-0.2-1.2-0.5-1.7c-0.2-0.4-0.4-0.8-0.4-1.2
		c0-0.4,0.1-0.8,0.4-1.2c0.3-0.5,0.5-1,0.5-1.6c0-0.6-0.2-1.2-0.5-1.7c-0.2-0.4-0.4-0.8-0.4-1.2c0-0.4,0.1-0.8,0.4-1.2
		c0.3-0.5,0.5-1,0.5-1.6c0-0.6-0.2-1.2-0.5-1.7c-0.2-0.4-0.4-0.8-0.4-1.2c0-0.4,0.1-0.8,0.4-1.2c0.3-0.5,0.5-1,0.5-1.6
		c0-0.6-0.2-1.2-0.5-1.7c-0.2-0.4-0.4-0.8-0.4-1.2c0-0.4,0.1-0.7,0.3-1.1c-0.1,0-0.2,0-0.2,0c-0.2,0-0.4,0-0.6,0
		c-0.1,0.3-0.2,0.7-0.2,1c0,0.6,0.2,1.2,0.5,1.7c0.2,0.4,0.4,0.8,0.4,1.2c0,0.4-0.1,0.8-0.4,1.2c-0.3,0.5-0.5,1-0.5,1.6
		c0,0.6,0.2,1.2,0.5,1.7c0.2,0.4,0.4,0.8,0.4,1.2c0,0.4-0.1,0.8-0.4,1.2c-0.3,0.5-0.5,1-0.5,1.6c0,0.6,0.2,1.2,0.5,1.7
		c0.2,0.4,0.4,0.8,0.4,1.2c0,0.4-0.1,0.8-0.4,1.2c-0.3,0.5-0.5,1-0.5,1.6c0,0.6,0.2,1.2,0.5,1.7c0.2,0.4,0.4,0.8,0.4,1.2
		c0,0.4-0.1,0.8-0.4,1.2c-0.3,0.5-0.5,1-0.5,1.6c0,0.6,0.2,1.2,0.5,1.7c0.2,0.4,0.4,0.8,0.4,1.2c0,0.4-0.1,0.8-0.4,1.2
		c-0.3,0.5-0.5,1-0.5,1.6c0,0.6,0.2,1.2,0.5,1.7c0.2,0.4,0.4,0.8,0.4,1.2c0,0.4-0.1,0.8-0.4,1.2c-0.3,0.5-0.5,1-0.5,1.6
		c0,0.6,0.2,1.2,0.5,1.7c0.2,0.4,0.4,0.8,0.4,1.2c0,0.4-0.1,0.8-0.4,1.2c-0.3,0.5-0.5,1-0.5,1.6c0,0.6,0.2,1.2,0.5,1.7
		c0.2,0.4,0.4,0.8,0.4,1.2c0,0.4-0.1,0.8-0.4,1.2c-0.3,0.5-0.5,1-0.5,1.6c0,0.6,0.2,1.2,0.5,1.7c0.2,0.4,0.4,0.8,0.4,1.2
		c0,0.4-0.1,0.8-0.4,1.2c-0.3,0.5-0.5,1-0.5,1.6c0,0.6,0.2,1.2,0.5,1.7c0.2,0.4,0.4,0.8,0.4,1.2c0,0.4-0.1,0.8-0.4,1.2
		c-0.3,0.5-0.5,1-0.5,1.6c0,0.6,0.2,1.2,0.5,1.7c0.2,0.4,0.4,0.8,0.4,1.2c0,0.4-0.1,0.8-0.4,1.2c-0.3,0.5-0.5,1-0.5,1.6
		c0,0.6,0.2,1.2,0.5,1.7c0.2,0.4,0.4,0.8,0.4,1.2c0,0.4-0.1,0.7-0.3,1.1c0.1,0,0.2,0,0.2,0c0.2,0,0.4,0,0.6,0
		C35.7,68.7,35.8,68.3,35.8,68z"/>
	<path class="st0" d="M39.6,68.7c0.1-0.2,0.1-0.5,0.1-0.7c0-0.6-0.2-1.2-0.5-1.7c-0.2-0.4-0.4-0.8-0.4-1.2c0-0.4,0.1-0.8,0.4-1.2
		c0.3-0.5,0.5-1,0.5-1.6c0-0.6-0.2-1.2-0.5-1.7c-0.2-0.4-0.4-0.8-0.4-1.2c0-0.4,0.1-0.8,0.4-1.2c0.3-0.5,0.5-1,0.5-1.6
		c0-0.6-0.2-1.2-0.5-1.7c-0.2-0.4-0.4-0.8-0.4-1.2c0-0.4,0.1-0.8,0.4-1.2c0.3-0.5,0.5-1,0.5-1.6c0-0.6-0.2-1.2-0.5-1.7
		c-0.2-0.4-0.4-0.8-0.4-1.2c0-0.4,0.1-0.8,0.4-1.2c0.3-0.5,0.5-1,0.5-1.6c0-0.6-0.2-1.2-0.5-1.7c-0.2-0.4-0.4-0.8-0.4-1.2
		c0-0.4,0.1-0.8,0.4-1.2c0.3-0.5,0.5-1,0.5-1.6c0-0.6-0.2-1.2-0.5-1.7c-0.2-0.4-0.4-0.8-0.4-1.2c0-0.4,0.1-0.8,0.4-1.2
		c0.3-0.5,0.5-1,0.5-1.6c0-0.6-0.2-1.2-0.5-1.7c-0.2-0.4-0.4-0.8-0.4-1.2c0-0.4,0.1-0.8,0.4-1.2c0.3-0.5,0.5-1,0.5-1.6
		c0-0.6-0.2-1.2-0.5-1.7c-0.2-0.4-0.4-0.8-0.4-1.2c0-0.4,0.1-0.8,0.4-1.2c0.3-0.5,0.5-1,0.5-1.6c0-0.6-0.2-1.2-0.5-1.7
		c-0.2-0.4-0.4-0.8-0.4-1.2c0-0.4,0.1-0.8,0.4-1.2c0.3-0.5,0.5-1,0.5-1.6c0-0.6-0.2-1.2-0.5-1.7c-0.2-0.4-0.4-0.8-0.4-1.2
		c0-0.4,0.1-0.8,0.4-1.2c0.3-0.5,0.5-1,0.5-1.6c0-0.6-0.2-1.2-0.5-1.7c-0.2-0.4-0.4-0.8-0.4-1.2c0-0.4,0.1-0.8,0.4-1.2
		c0.3-0.5,0.5-1,0.5-1.6c0-0.6-0.2-1.2-0.5-1.7c-0.2-0.4-0.4-0.8-0.4-1.2c0-0.3,0.1-0.6,0.2-0.8c-0.3,0-0.5-0.1-0.8-0.1
		c-0.1,0.3-0.2,0.6-0.1,0.9c0,0.6,0.2,1.2,0.5,1.7C38.8,4.1,39,4.5,39,5c0,0.4-0.1,0.8-0.4,1.2c-0.3,0.5-0.5,1-0.5,1.6
		c0,0.6,0.2,1.2,0.5,1.7c0.2,0.4,0.4,0.8,0.4,1.2c0,0.4-0.1,0.8-0.4,1.2c-0.3,0.5-0.5,1-0.5,1.6c0,0.6,0.2,1.2,0.5,1.7
		c0.2,0.4,0.4,0.8,0.4,1.2c0,0.4-0.1,0.8-0.4,1.2c-0.3,0.5-0.5,1-0.5,1.6c0,0.6,0.2,1.2,0.5,1.7c0.2,0.4,0.4,0.8,0.4,1.2
		c0,0.4-0.1,0.8-0.4,1.2c-0.3,0.5-0.5,1-0.5,1.6c0,0.6,0.2,1.2,0.5,1.7c0.2,0.4,0.4,0.8,0.4,1.2c0,0.4-0.1,0.8-0.4,1.2
		c-0.3,0.5-0.5,1-0.5,1.6c0,0.6,0.2,1.2,0.5,1.7c0.2,0.4,0.4,0.8,0.4,1.2c0,0.4-0.1,0.8-0.4,1.2c-0.3,0.5-0.5,1-0.5,1.6
		c0,0.6,0.2,1.2,0.5,1.7c0.2,0.4,0.4,0.8,0.4,1.2c0,0.4-0.1,0.8-0.4,1.2c-0.3,0.5-0.5,1-0.5,1.6c0,0.6,0.2,1.2,0.5,1.7
		c0.2,0.4,0.4,0.8,0.4,1.2c0,0.4-0.1,0.8-0.4,1.2c-0.3,0.5-0.5,1-0.5,1.6c0,0.6,0.2,1.2,0.5,1.7c0.2,0.4,0.4,0.8,0.4,1.2
		c0,0.4-0.1,0.8-0.4,1.2c-0.3,0.5-0.5,1-0.5,1.6c0,0.6,0.2,1.2,0.5,1.7c0.2,0.4,0.4,0.8,0.4,1.2c0,0.4-0.1,0.8-0.4,1.2
		c-0.3,0.5-0.5,1-0.5,1.6c0,0.6,0.2,1.2,0.5,1.7c0.2,0.4,0.4,0.8,0.4,1.2c0,0.4-0.1,0.8-0.4,1.2c-0.3,0.5-0.5,1-0.5,1.6
		c0,0.6,0.2,1.2,0.5,1.7c0.2,0.4,0.4,0.8,0.4,1.2c0,0.3-0.1,0.6-0.2,0.8C39,68.8,39.3,68.7,39.6,68.7z"/>
	<path class="st0" d="M43.6,67.9c0-0.6-0.2-1.1-0.5-1.6c-0.2-0.4-0.4-0.8-0.4-1.2c0-0.4,0.1-0.8,0.4-1.2c0.3-0.5,0.5-1,0.5-1.6
		c0-0.6-0.2-1.2-0.5-1.7c-0.2-0.4-0.4-0.8-0.4-1.2c0-0.4,0.1-0.8,0.4-1.2c0.3-0.5,0.5-1,0.5-1.6c0-0.6-0.2-1.2-0.5-1.7
		c-0.2-0.4-0.4-0.8-0.4-1.2c0-0.4,0.1-0.8,0.4-1.2c0.3-0.5,0.5-1,0.5-1.6c0-0.6-0.2-1.2-0.5-1.7c-0.2-0.4-0.4-0.8-0.4-1.2
		c0-0.4,0.1-0.8,0.4-1.2c0.3-0.5,0.5-1,0.5-1.6c0-0.6-0.2-1.2-0.5-1.7c-0.2-0.4-0.4-0.8-0.4-1.2c0-0.4,0.1-0.8,0.4-1.2
		c0.3-0.5,0.5-1,0.5-1.6c0-0.6-0.2-1.2-0.5-1.7c-0.2-0.4-0.4-0.8-0.4-1.2c0-0.4,0.1-0.8,0.4-1.2c0.3-0.5,0.5-1,0.5-1.6
		c0-0.6-0.2-1.2-0.5-1.7c-0.2-0.4-0.4-0.8-0.4-1.2c0-0.4,0.1-0.8,0.4-1.2c0.3-0.5,0.5-1,0.5-1.6c0-0.6-0.2-1.2-0.5-1.7
		c-0.2-0.4-0.4-0.8-0.4-1.2c0-0.4,0.1-0.8,0.4-1.2c0.3-0.5,0.5-1,0.5-1.6c0-0.6-0.2-1.2-0.5-1.7c-0.2-0.4-0.4-0.8-0.4-1.2
		c0-0.4,0.1-0.8,0.4-1.2c0.3-0.5,0.5-1,0.5-1.6c0-0.6-0.2-1.2-0.5-1.7c-0.2-0.4-0.4-0.8-0.4-1.2c0-0.4,0.1-0.8,0.4-1.2
		c0.3-0.5,0.5-1,0.5-1.6c0-0.6-0.2-1.2-0.5-1.7c-0.2-0.4-0.4-0.8-0.4-1.2c0-0.4,0.1-0.8,0.4-1.2c0.3-0.5,0.5-1,0.5-1.6
		c0-0.6-0.2-1.2-0.5-1.7c-0.2-0.4-0.4-0.8-0.4-1.2c0-0.1,0-0.1,0-0.2c-0.2-0.1-0.5-0.1-0.7-0.2C42,1.8,42,1.9,42,2
		c0,0.6,0.2,1.2,0.5,1.7c0.2,0.4,0.4,0.8,0.4,1.2c0,0.4-0.1,0.8-0.4,1.2c-0.3,0.5-0.5,1-0.5,1.6c0,0.6,0.2,1.2,0.5,1.7
		c0.2,0.4,0.4,0.8,0.4,1.2c0,0.4-0.1,0.8-0.4,1.2c-0.3,0.5-0.5,1-0.5,1.6c0,0.6,0.2,1.2,0.5,1.7c0.2,0.4,0.4,0.8,0.4,1.2
		c0,0.4-0.1,0.8-0.4,1.2c-0.3,0.5-0.5,1-0.5,1.6c0,0.6,0.2,1.2,0.5,1.7c0.2,0.4,0.4,0.8,0.4,1.2c0,0.4-0.1,0.8-0.4,1.2
		c-0.3,0.5-0.5,1-0.5,1.6c0,0.6,0.2,1.2,0.5,1.7c0.2,0.4,0.4,0.8,0.4,1.2c0,0.4-0.1,0.8-0.4,1.2c-0.3,0.5-0.5,1-0.5,1.6
		c0,0.6,0.2,1.2,0.5,1.7c0.2,0.4,0.4,0.8,0.4,1.2c0,0.4-0.1,0.8-0.4,1.2c-0.3,0.5-0.5,1-0.5,1.6c0,0.6,0.2,1.2,0.5,1.7
		c0.2,0.4,0.4,0.8,0.4,1.2c0,0.4-0.1,0.8-0.4,1.2c-0.3,0.5-0.5,1-0.5,1.6c0,0.6,0.2,1.2,0.5,1.7c0.2,0.4,0.4,0.8,0.4,1.2
		c0,0.4-0.1,0.8-0.4,1.2c-0.3,0.5-0.5,1-0.5,1.6c0,0.6,0.2,1.2,0.5,1.7c0.2,0.4,0.4,0.8,0.4,1.2c0,0.4-0.1,0.8-0.4,1.2
		c-0.3,0.5-0.5,1-0.5,1.6c0,0.6,0.2,1.2,0.5,1.7c0.2,0.4,0.4,0.8,0.4,1.2c0,0.4-0.1,0.8-0.4,1.2c-0.3,0.5-0.5,1-0.5,1.6
		c0,0.6,0.2,1.2,0.5,1.7c0.2,0.4,0.4,0.8,0.4,1.2c0,0.4-0.1,0.8-0.4,1.2c-0.3,0.5-0.5,1-0.5,1.6c0,0.6,0.2,1.2,0.5,1.7
		c0.2,0.4,0.4,0.8,0.4,1.2c0,0,0,0.1,0,0.1C43.1,68,43.3,68,43.6,67.9z"/>
	<path class="st1" d="M35,70C15.7,70,0,54.3,0,35S15.7,0,35,0s35,15.7,35,35S54.3,70,35,70z M35,1.9C16.8,1.9,1.9,16.8,1.9,35
	S16.8,68.1,35,68.1S68.1,53.2,68.1,35S53.2,1.9,35,1.9z"/>
</svg>
