<?xml version="1.0" encoding="utf-8"?>
<!-- Generator: Adobe Illustrator 23.0.1, SVG Export Plug-In . SVG Version: 6.00 Build 0)  -->
<svg version="1.1" id="Layer_1" xmlns="http://www.w3.org/2000/svg" xmlns:xlink="http://www.w3.org/1999/xlink" x="0px" y="0px"
	 viewBox="0 0 70 70" style="enable-background:new 0 0 70 70;" xml:space="preserve">
<style type="text/css">
	.st0{fill:#040506;}
	.st1{fill:#161615;}
</style>
<path class="st0" d="M35,70C15.7,70,0,54.3,0,35C0,15.7,15.7,0,35,0s35,15.7,35,35C70,54.3,54.3,70,35,70z M35,1.9
	C16.8,1.9,1.9,16.8,1.9,35S16.8,68.1,35,68.1c18.2,0,33-14.8,33-33.1S53.2,1.9,35,1.9z"/>
<g id="Group_445" transform="translate(-789 -454.486)">
	<path id="Union_20" class="st1" d="M824.8,469.9v6.8l1.9-1.7l1.2,1.1l-3.9,3.6l-3.9-3.6l1.2-1.1l1.9,1.7v-6.8H824.8z"/>
	<path id="Union_21" class="st1" d="M823.1,509.1v-6.8l-1.9,1.7l-1.2-1.1l3.9-3.6l3.9,3.6l-1.2,1.1l-1.9-1.7v6.8H823.1z"/>
	<path id="Union_19" class="st1" d="M811.1,469.9v6.8l1.8-1.7l1.2,1.1l-3.9,3.6l-3.9-3.6l1.2-1.1l1.9,1.7v-6.8H811.1z"/>
	<path id="Union_22" class="st1" d="M836.8,509.1v-6.8L835,504l-1.2-1.1l3.9-3.6l3.9,3.6l-1.2,1.1l-1.9-1.7v6.8H836.8z"/>
	<path id="Union_18" class="st1" d="M838.5,469.9v6.8l1.8-1.7l1.2,1.1l-3.9,3.6l-3.9-3.6l1.2-1.1l1.8,1.7v-6.8H838.5z"/>
	<path id="Union_23" class="st1" d="M809.4,509.1v-6.8l-1.8,1.7l-1.2-1.1l3.9-3.6l3.9,3.6L813,504l-1.8-1.7v6.8H809.4z"/>
	<rect id="Rectangle_943" x="800.5" y="488.1" class="st1" width="47" height="2"/>
</g>
</svg>
