<?xml version="1.0" encoding="utf-8"?>
<!-- Generator: Adobe Illustrator 23.0.1, SVG Export Plug-In . SVG Version: 6.00 Build 0)  -->
<svg version="1.1" id="Layer_1" xmlns="http://www.w3.org/2000/svg" xmlns:xlink="http://www.w3.org/1999/xlink" x="0px" y="0px"
	 viewBox="0 0 70 70" style="enable-background:new 0 0 70 70;" xml:space="preserve">
<style type="text/css">
	.st0{fill:#040506;}
	.st1{fill:#161615;}
</style>
<g id="Group_295" transform="translate(-1215 -356.066)">
	<path class="st0" d="M1250,426.1c-19.3,0-35-15.7-35-35s15.7-35,35-35s35,15.7,35,35S1269.3,426.1,1250,426.1z M1250,358
		c-18.2,0-33,14.8-33,33c0,18.2,14.8,33,33,33s33-14.8,33-33C1283,372.8,1268.2,358,1250,358z"/>
</g>
<g id="Group_444" transform="translate(322.894 -498.213) rotate(90)">
	<path id="Path_405" class="st1" d="M531.1,308.4h0.8v-19.6l-6.8-0.2v16.8l6.8,4.4v-1.4H531.1l0.4-0.6l-4.9-3.2v-14.4l3.8,0.1v18.1
		H531.1l0.4-0.6L531.1,308.4"/>
	<path id="Path_406" class="st1" d="M525.8,270.8H525v16.3l6.8-0.2V266l-6.8,4.4v0.4L525.8,270.8l0.4,0.6l4.1-2.7v16.7l-3.8,0.1
		v-14.8L525.8,270.8l0.4,0.6L525.8,270.8"/>
	<path id="Path_407" class="st1" d="M540.7,313.4h0.8v-24.6l-8.2-0.3v20.5l8.2,5.8v-1.5H540.7l0.4-0.6l-6.3-4.5v-18.2l5.1,0.2v23.1
		L540.7,313.4l0.4-0.6L540.7,313.4"/>
	<path id="Path_408" class="st1" d="M534,267.1h-0.8v20l8.2-0.3v-26l-8.2,5.8v0.4L534,267.1l0.4,0.6l5.5-3.9v21.6l-5.1,0.2V267
		L534,267.1l0.4,0.6L534,267.1"/>
</g>
</svg>
