<?xml version="1.0" encoding="utf-8"?>
<!-- Generator: Adobe Illustrator 23.0.1, SVG Export Plug-In . SVG Version: 6.00 Build 0)  -->
<svg version="1.1" id="lea_1_" xmlns="http://www.w3.org/2000/svg" xmlns:xlink="http://www.w3.org/1999/xlink" x="0px"
	 y="0px" viewBox="0 0 210 50" style="enable-background:new 0 0 210 50;" xml:space="preserve">
<style type="text/css">
	.st0{fill:#53575A;}
	.st1{fill:#C10230;}
	.st2{fill:#FFFFFF;}
</style>
<g id="lea">
	<g>
		<g>
			<rect x="58.1" y="12.3" class="st0" width="4.1" height="20.5"/>
			<path class="st0" d="M53.7,28.7c-0.9-0.6-0.9-1.8-0.9-1.8V22h2.9v-4h-2.8v-5.7h-4V27c0.1,3.3,2.8,6,6.1,6c0.3,0,0.5,0,0.8,0v-4.2
				C55.8,28.7,54.6,29.2,53.7,28.7z"/>
			<path class="st0" d="M39.1,17.7c-4.2,0-7.6,3.4-7.6,7.6s3.4,7.5,7.5,7.5c1.3,0,2.5-0.3,3.6-1.2v1.2h4v-7.6
				C46.6,21,43.2,17.7,39.1,17.7z M39.1,29c-2,0-3.7-1.7-3.7-3.7s1.7-3.7,3.7-3.7s3.7,1.7,3.7,3.7S41.1,29,39.1,29z"/>
			<path class="st0" d="M116.7,17.6c-4.2,0-7.6,3.4-7.6,7.6s3.4,7.6,7.6,7.6s7.6-3.4,7.6-7.6C124.3,21,120.9,17.6,116.7,17.6z
				 M116.7,28.8c-2,0-3.6-1.6-3.6-3.6s1.6-3.6,3.6-3.6s3.6,1.6,3.6,3.6C120.3,27.1,118.7,28.8,116.7,28.8z"/>
			<path class="st0" d="M188.3,18.6c-1.1-0.9-2.2-1-3.6-1c-4.2,0-7.5,3.4-7.5,7.5c0,4.2,3.4,7.6,7.6,7.6c4.2,0,7.6-3.4,7.6-7.6v-13
				h-4v6.5H188.3z M184.7,28.9c-2,0-3.7-1.7-3.7-3.7s1.7-3.7,3.7-3.7c2.1,0,3.7,1.7,3.7,3.7C188.4,27.3,186.8,28.9,184.7,28.9z"/>
			<path class="st0" d="M169.2,23.6v9.1h4v-9.1c0.2-1.2,1.2-2.1,2.4-2.1c0.2,0,0.5-0.1,0.6,0v-3.9c-0.2,0-0.4,0-0.6,0
				C172.2,17.6,169.5,20.3,169.2,23.6z"/>
			<path class="st0" d="M209.1,25.2c0-4.3-3.4-7.7-7.7-7.7s-7.7,3.4-7.7,7.7s3.4,7.7,7.7,7.7c3.3,0,6.1-2.1,7.2-4.9h-4.2
				c-0.7,0.8-1.9,1.3-3,1.3c-1.7,0-3.1-1-3.8-2.5h11.3v0.1C209,26.3,209.1,25.8,209.1,25.2z M197.7,23.5c0.6-1.4,2.1-2.4,3.7-2.4
				c1.7,0,3.1,1,3.7,2.4H197.7z"/>
			<path class="st0" d="M159.9,17.6c-4.2,0-7.6,3.4-7.6,7.6s3.4,7.6,7.6,7.6c4.2,0,7.6-3.4,7.6-7.6S164.1,17.6,159.9,17.6z
				 M159.9,28.8c-2,0-3.6-1.6-3.6-3.6s1.6-3.6,3.6-3.6s3.6,1.6,3.6,3.6C163.5,27.1,161.8,28.8,159.9,28.8z"/>
			<path class="st0" d="M132.6,17.6c-3.4,0-6.2,2.7-6.4,6v9.1h4v-9.1c0.2-1.2,1.2-2.1,2.4-2.1s2.2,0.9,2.4,2v9.1h4v-9.1
				C138.8,20.3,136,17.6,132.6,17.6z"/>
			<path class="st0" d="M87.6,23.2c-2.9-1-1.9-2.9-0.3-2.7c1,0.1,1.4,1.3,1.4,1.3l3.3-1.3c-0.7-1.9-2.7-3.1-5.1-3.1
				c-3,0-5.4,2.1-5.4,4.7c0,1.3,0.3,2.7,2.4,3.7s4.6,1.1,4.4,2.8c-0.2,1.5-2.1,1.1-2.5,1c-1.3-0.5-1.5-1.7-1.5-1.7l-3.1,1.2
				C82,32,84.6,33,87,33c3,0,5.5-2.1,5.5-4.7c0-1.3-0.6-2.6-1.5-3.4C90.9,24.8,90.5,24.2,87.6,23.2z"/>
			<path class="st0" d="M148.2,21.6c0.6,0,1.2,0.2,1.7,0.4l2-3.5c-1.1-0.6-2.4-1-3.7-1c-4.2,0-7.6,3.4-7.6,7.6s3.4,7.6,7.6,7.6
				c1.3,0,2.5-0.3,3.5-0.9l-1.9-3.6c-0.5,0.3-1.1,0.4-1.7,0.4c-2,0-3.6-1.6-3.6-3.6C144.6,23.2,146.2,21.6,148.2,21.6z"/>
			<path class="st0" d="M104.9,21.6c0.6,0,1.2,0.2,1.7,0.4l2-3.5c-1.1-0.6-2.4-1-3.7-1c-4.2,0-7.6,3.4-7.6,7.6s3.4,7.6,7.6,7.6
				c1.3,0,2.5-0.3,3.5-0.9l-1.9-3.6c-0.5,0.3-1.1,0.4-1.7,0.4c-2,0-3.6-1.6-3.6-3.6C101.4,23.2,103,21.6,104.9,21.6z"/>
			<path class="st0" d="M71.9,17.7c-4.2,0-7.6,3.4-7.6,7.6s3.4,7.5,7.5,7.5c1.3,0,2.5-0.3,3.6-1.2v1.2h4v-7.6
				C79.5,21,76.1,17.7,71.9,17.7z M71.9,29c-2,0-3.7-1.7-3.7-3.7s1.7-3.7,3.7-3.7c2.1,0,3.7,1.7,3.7,3.7C75.7,27.3,74,29,71.9,29z"
				/>
		</g>
		<path class="st1" d="M13.6,12.5L0.9,25.1l12.6,12.7L26.3,25L13.6,12.5z"/>
		<path class="st2" d="M19.8,22.5c0.3,0.8,0.5,1.7,0.5,2.6c0,3.7-3,6.8-6.8,6.8s-6.8-3-6.8-6.8c0-0.9,0.2-1.8,0.5-2.6
			C7.1,23,7,23.5,7,24c0,1.2,0.3,2.3,0.9,3.3c-0.6-2-0.9-4.3,1.2-6.4c1-0.9,1.6-2,1.6-2s-0.1,1-1,2.2s-2,3.3-0.2,6.6
			c0,0-1.2-3.2,0.5-5.6c1.6-2.3,1.4-3.4,1.4-3.4s0.8,1.4-0.3,3.3s-1.4,4.4,0.1,6.7c0,0-1.3-2.9,0-5.2c1.6-3.1,0.9-5,0.9-5
			s1.6,1.6,0.2,5c-1.3,3.3,0.6,5.7,0.6,5.7s-1.2-2.8-0.1-5.5c1.4-3.3,0.2-5.5,0.2-5.5s2,2,1.1,4.9c-0.8,2.7-0.7,3.8-0.3,5.2
			c0,0-0.3-1.7,0.9-5c1.1-2.9-0.9-5.1-0.9-5.1s2.4,1.3,2.1,4.4c-0.1,1.1-0.9,2.6-0.7,4.2c0.4-2.3,1.1-2.7,1.4-4.3
			c0.3-2.1-1.4-4.1-1.4-4.1c1.7,0.9,3.1,3.5,2.2,5.9c-0.9,2.5-0.9,4-0.9,4c0.7-2.6,1.2-2.7,1.5-4.3c0.6-2.6-1-4.8-1-4.8
			c3.6,3.4,1.5,7.9,1.5,7.9c1-1.1,1.3-2.6,1.1-4.1C19.9,22.9,19.9,22.7,19.8,22.5"/>
	</g>
</g>
</svg>
