<?xml version="1.0" encoding="utf-8"?>
<!-- Generator: Adobe Illustrator 23.0.1, SVG Export Plug-In . SVG Version: 6.00 Build 0)  -->
<svg version="1.1" id="lea_1_" 
	xmlns="http://www.w3.org/2000/svg" 
	xmlns:xlink="http://www.w3.org/1999/xlink" x="0px" y="0px" viewBox="0 0 40 40" style="enable-background:new 0 0 40 40;" xml:space="preserve">
	<style type="text/css">
	.st0{fill:#FFFFFF;}
	.st1{fill:#C6152F;}
	</style>
	<circle class="st0" cx="20" cy="20" r="11.6"/>
	<path id="lea" class="st1" d="M30,16.8c0-0.4-0.1-0.7-0.2-1c0.5,1.3,0.8,2.6,0.8,4.1c0,5.9-4.8,10.7-10.7,10.7S9.2,25.8,9.2,19.9
	c0-1.4,0.3-2.8,0.8-4.1c-0.2,0.8-0.3,1.6-0.3,2.4c0,1.9,0.5,3.6,1.4,5.2c-1-3.1-1.4-6.8,1.9-10c1.5-1.5,2.5-3.2,2.5-3.2
	s-0.2,1.7-1.6,3.5s-3.1,5.2-0.3,10.4c0,0-1.9-5.1,0.8-8.8c2.5-3.6,2.2-5.4,2.2-5.4s1.3,2.2-0.5,5.2S14,22,16.3,25.6c0,0-2-4.5,0-8.2
	c2.5-4.9,1.5-7.8,1.5-7.8s2.5,2.5,0.3,8c-2.1,5.2,0.9,9,0.9,9s-1.9-4.5-0.1-8.6c2.2-5.1,0.3-8.6,0.3-8.6s3.2,3.1,1.8,7.7
	c-1.3,4.2-1.1,6-0.5,8.1c0,0-0.4-2.8,1.5-7.8c1.7-4.6-1.4-8-1.4-8s3.8,2,3.3,7c-0.2,1.7-1.3,4-1.1,6.7c0.7-3.6,1.8-4.2,2.1-6.8
	c0.5-3.4-2.2-6.5-2.2-6.5c2.7,1.4,4.8,5.5,3.5,9.3c-1.3,4-1.3,6.3-1.3,6.3c1.1-4.2,1.9-4.3,2.4-6.7c0.9-4-1.6-7.5-1.6-7.5
	c5.7,5.4,2.4,12.5,2.4,12.5C29.8,21.5,30.3,19.3,30,16.8 M40,19.8L20,0.1L0,19.9l19.8,20L40,19.8z"/>
</svg>
