<?xml version="1.0" encoding="utf-8"?>
<!-- Generator: Adobe Illustrator 23.0.1, SVG Export Plug-In . SVG Version: 6.00 Build 0)  -->
<svg version="1.1" id="linkedin" xmlns="http://www.w3.org/2000/svg" xmlns:xlink="http://www.w3.org/1999/xlink" x="0px" y="0px"
	 viewBox="0 0 17.1 16.4" style="enable-background:new 0 0 17.1 16.4;" xml:space="preserve">
<style type="text/css">
	.st0{fill-rule:evenodd;clip-rule:evenodd;fill:#191919;}
</style>
<path id="linkedin_1_" class="st0" d="M3.9,16.4V5.3H0.2v11.1H3.9z M2.1,3.8c1.1-0.1,1.9-1,1.8-2c-0.1-1.1-1-1.9-2-1.8
	C0.8,0.1,0,0.9,0,1.9c0,1,0.8,1.9,1.9,1.9C1.9,3.8,2,3.8,2.1,3.8L2.1,3.8z M5.9,16.4h3.7v-6.2c0-0.3,0-0.6,0.1-0.9
	C10,8.5,10.8,8,11.6,8c1.3,0,1.9,1,1.9,2.5v5.9h3.7v-6.3c0-3.4-1.8-5-4.2-5C11.5,5,10.2,5.7,9.6,6.9h0V5.3H5.9
	C6,6.4,5.9,16.4,5.9,16.4L5.9,16.4L5.9,16.4z"/>
</svg>
