<?xml version="1.0" encoding="utf-8"?>
<!-- Generator: Adobe Illustrator 23.0.1, SVG Export Plug-In . SVG Version: 6.00 Build 0)  -->
<svg version="1.1" id="made_in_italy_1_" xmlns="http://www.w3.org/2000/svg" xmlns:xlink="http://www.w3.org/1999/xlink" x="0px"
	 y="0px" viewBox="0 0 161 9" style="enable-background:new 0 0 161 9;" xml:space="preserve">
<style type="text/css">
	.st0{fill-rule:evenodd;clip-rule:evenodd;fill:#E31319;}
	.st1{fill-rule:evenodd;clip-rule:evenodd;fill:#FFFFFF;}
	.st2{fill-rule:evenodd;clip-rule:evenodd;fill:#26A232;}
	.st3{fill-rule:evenodd;clip-rule:evenodd;fill:#4E5256;}
</style>
<path id="Shape_1672_copy_2" class="st0" d="M33.5,9V0H50v9H33.5L33.5,9z"/>
<path id="Shape_1672_copy_3" class="st1" d="M16.5,9V0h17v9H16.5z"/>
<path id="Shape_1672_copy_4" class="st2" d="M0,9V0h16.5v9H0z"/>
<path id="made_in_italy" class="st3" d="M73.2,0l-3.1,7.1L67,0h-1v8.6h1.1l0-5.8l2.6,5.8h0.9l2.5-5.9v5.9h1.1V0H73.2L73.2,0z
	 M83.6,8.6h1.3L81.1,0h-1l-3.8,8.6h1.3l0.9-2.1h4.3L83.6,8.6z M78.8,5.5l1.7-4.1l1.7,4.1H78.8z M86.9,8.6h3c1.2,0.1,2.3-0.3,3.2-1.1
	c0.8-0.9,1.2-2,1.1-3.2c0.1-1.2-0.3-2.3-1.1-3.1c-0.9-0.8-2-1.2-3.2-1.1h-3V8.6z M88.1,7.5V1h1.7C91.9,1,93,2.1,93,4.3
	c0,2.2-1.1,3.3-3.2,3.3H88.1L88.1,7.5z M96.8,8.6h5.5v-1h-4.3V4.7h4.1v-1h-4.1V1h4.3V0h-5.5L96.8,8.6L96.8,8.6z M108.9,8.6h1.2V0
	h-1.2V8.6z M118.9,0v6.5L114,0h-0.9v8.6h1.2V2.1l4.9,6.5h0.9V0H118.9L118.9,0z M127.1,8.6h1.2V0h-1.2V8.6z M133.2,8.6h1.2V1h2.9V0
	h-7v1h2.9L133.2,8.6L133.2,8.6z M144.9,8.6h1.3L142.4,0h-1l-3.8,8.6h1.3l0.9-2.1h4.3L144.9,8.6z M140.1,5.5l1.7-4.1l1.7,4.1H140.1z
	 M148.2,8.6h5.4v-1h-4.2V0h-1.2L148.2,8.6L148.2,8.6z M161,0h-1.4l-2.6,4l-2.6-4h-1.4l3.4,5.1v3.5h1.2V5.1L161,0z"/>
</svg>
