<?xml version="1.0" encoding="utf-8"?>
<!-- Generator: Adobe Illustrator 23.0.1, SVG Export Plug-In . SVG Version: 6.00 Build 0)  -->
<svg version="1.1" id="marvel-edge_2_" xmlns="http://www.w3.org/2000/svg" xmlns:xlink="http://www.w3.org/1999/xlink" x="0px"
	 y="0px" viewBox="0 0 267 72" style="enable-background:new 0 0 267 72;" xml:space="preserve">
<style type="text/css">
	.st0{fill:none;stroke:#000000;stroke-width:1.95;}
</style>
<g id="marvel-edge">
	<path d="M239.7,46.3H267v-8.6h-18.2V1.3h-9.1V46.3z M199.3,46.3H226v-8.6h-17.6V27h16.3v-8.4h-16.3V9.9h17.3V1.3h-26.4V46.3z
		 M159.3,1.3h-9.1l19.2,46.2l19.2-46.2h-9.1l-10.1,25.8L159.3,1.3z M133.2,17.2c0,4.1-3.3,7.5-7.4,7.5h-8.2v-15h8.2
		C129.9,9.7,133.2,13.2,133.2,17.2 M123.6,33.1c6.5,0,10.2,6.1,10.2,11.1v2.1h9.1v-2.6c0-5.2-2.1-10.8-7-13.3c4.2-3.2,7-8.7,7-14.2
		c0-8.1-6.5-15-14.7-15h-19.6v45.1h9.1V33.1H123.6z M81.8,30.2h-9.1l4.6-10.8L81.8,30.2z M84.6,38.4l3.2,8h9.6L77.2,0.1L57,46.3h9.6
		l3.3-8H84.6z M35.6,24.8l4.1,21.6h8.5L39.3,0.1l-15.2,30L8.9,0.1L0,46.3h8.5l4.1-21.6l11.5,22.7L35.6,24.8z"/>
	<line class="st0" x1="190.9" y1="65" x2="0" y2="65"/>
	<path d="M259,71.6h7.9v-1.3h-6.5V65h6.2v-1.3h-6.2v-5.2h6.5v-1.3H259V71.6z M241.6,64.9v1.3h8.1c-0.7,2.5-3.3,4.2-5.8,4.2
		c-3.4,0-6.4-2.6-6.4-6.1c0-1.6,0.8-3.3,2-4.4c1.2-1.1,2.8-1.6,4.3-1.6c2,0,4.1,1,5.1,2.7h1.6c-0.4-1.1-1.6-2.2-2.5-2.9
		c-1.3-0.8-2.7-1.2-4.2-1.2c-2.1,0-4,0.7-5.5,2.2c-1.3,1.3-2.2,3.3-2.2,5.2c0,4.2,3.6,7.6,7.7,7.6c3.9,0,7.4-3,7.6-6.9H241.6z
		 M218.3,70.3V58.5h1.9c1.9,0,3.6,0.1,5.2,1.3c1.5,1.2,2.2,2.7,2.2,4.6c0,1.8-0.8,3.5-2.2,4.6c-1.6,1.3-3.3,1.3-5.2,1.3H218.3z
		 M216.8,71.6h4c2.2,0,4.1-0.3,5.8-1.9c1.5-1.4,2.4-3.3,2.4-5.4c0-2.1-1-4.2-2.6-5.5c-1.7-1.3-3.6-1.7-5.7-1.7h-3.9V71.6z
		 M199.7,71.6h7.9v-1.3h-6.5V65h6.2v-1.3h-6.2v-5.2h6.5v-1.3h-7.9V71.6z"/>
</g>
</svg>
