<?xml version="1.0" encoding="utf-8"?>
<!-- Generator: Adobe Illustrator 23.0.1, SVG Export Plug-In . SVG Version: 6.00 Build 0)  -->
<svg version="1.1" id="pdf_1_" xmlns="http://www.w3.org/2000/svg" xmlns:xlink="http://www.w3.org/1999/xlink" x="0px" y="0px"
	 viewBox="0 0 22 27" style="enable-background:new 0 0 22 27;" xml:space="preserve">
<style type="text/css">
	.st0{fill-rule:evenodd;clip-rule:evenodd;fill:#B92442;}
</style>
<path id="pdf" class="st0" d="M21.8,6.9l-6.7-6.7C15,0.1,14.8,0,14.7,0H0.6C0.3,0,0,0.3,0,0.6v25.8C0,26.7,0.3,27,0.6,27
	c0,0,0,0,0,0h20.8c0.3,0,0.6-0.3,0.6-0.6c0,0,0,0,0,0v-19C22,7.2,21.9,7,21.8,6.9z M15.3,2.1l4.6,4.7h-4.6V2.1z M1.2,25.8V1.2h12.8
	v6.1c0,0.3,0.3,0.6,0.6,0.6h6.1v17.8L1.2,25.8L1.2,25.8z M6.3,22.9c-0.4,0-0.7-0.1-0.9-0.4c-0.7-0.6-0.8-1.6-0.2-2.3
	c1-1,2.2-1.6,3.6-1.9c0.2-0.4,0.4-0.8,0.5-1.3c0.2-0.5,0.4-1,0.5-1.5c-1.2-2-1.9-4-1.6-5.1c0.2-0.8,1-1.4,1.8-1.2h0
	c0.9,0.1,1.5,0.8,1.6,1.7c0.2,1.5,0,3.1-0.5,4.5c0.5,0.8,1,1.5,1.6,2.1c1.4-0.2,2.8-0.1,4.1,0.5c0.7,0.4,0.9,1.2,0.6,1.9
	c0,0,0,0.1,0,0.1c-0.6,0.9-1.8,1.2-2.7,0.6c-0.9-0.4-1.7-1.1-2.3-1.8c-0.9,0.1-1.7,0.3-2.6,0.5c-0.5,1.3-1.4,2.5-2.6,3.4
	C6.8,22.9,6.6,22.9,6.3,22.9L6.3,22.9z M8,19.8c-0.7,0.2-1.3,0.6-1.8,1.1c-0.2,0.2-0.2,0.4,0.1,0.7c0,0,0.1,0.1,0.2,0
	C7.1,21.2,7.6,20.5,8,19.8L8,19.8z M13.9,18.7c0.4,0.3,0.8,0.6,1.2,0.8c0.8,0.3,1,0,1.2-0.2c0.1-0.2,0-0.2-0.1-0.3
	C15.4,18.7,14.7,18.6,13.9,18.7L13.9,18.7z M10.7,16.9c-0.1,0.3-0.2,0.7-0.4,1c0.3-0.1,0.7-0.1,1-0.2C11.1,17.4,10.9,17.2,10.7,16.9
	z M9.8,10.4c-0.4,0-0.4,0.2-0.4,0.3c0,1.1,0.3,2.2,0.9,3.1c0.2-0.9,0.3-1.8,0.2-2.7c-0.1-0.6-0.4-0.7-0.5-0.7L9.8,10.4z"/>
</svg>
