<?xml version="1.0" encoding="utf-8"?>
<!-- Generator: Adobe Illustrator 23.0.1, SVG Export Plug-In . SVG Version: 6.00 Build 0)  -->
<svg version="1.1" id="Layer_1" xmlns="http://www.w3.org/2000/svg" xmlns:xlink="http://www.w3.org/1999/xlink" x="0px" y="0px"
	 viewBox="0 0 13 16" style="enable-background:new 0 0 13 16;" xml:space="preserve">
<style type="text/css">
	.st0{fill-rule:evenodd;clip-rule:evenodd;fill:#191919;}
</style>
<path id="pin" class="st0" d="M6.5,0C2.8,0.1-0.1,3.1,0,6.7c0,4.8,6,9,6.2,9.2c0.2,0.1,0.4,0.1,0.5,0C7,15.7,13,11.5,13,6.7
	C13.1,3.1,10.2,0.1,6.5,0z M6.5,14.9c-1.1-0.9-5.6-4.4-5.6-8.2C0.8,3.7,3.3,1.1,6.3,1c3.1-0.1,5.6,2.3,5.7,5.4c0,0.1,0,0.2,0,0.4
	C12.1,10.5,7.6,14.1,6.5,14.9z M6.5,5.1c-0.9,0-1.7,0.7-1.7,1.6c0,0.9,0.7,1.7,1.6,1.7s1.7-0.7,1.7-1.6c0,0,0,0,0-0.1
	C8.1,5.8,7.4,5.1,6.5,5.1C6.5,5.1,6.5,5.1,6.5,5.1L6.5,5.1z"/>
</svg>
