<?xml version="1.0" encoding="utf-8"?>
<!-- Generator: Adobe Illustrator 23.0.1, SVG Export Plug-In . SVG Version: 6.00 Build 0)  -->
<svg version="1.1" id="Layer_1" xmlns="http://www.w3.org/2000/svg" xmlns:xlink="http://www.w3.org/1999/xlink" x="0px" y="0px"
	 viewBox="0 0 13 16" style="enable-background:new 0 0 13 16;" xml:space="preserve">
<style type="text/css">
	.st0{fill-rule:evenodd;clip-rule:evenodd;fill:#191919;}
</style>
<path id="ico" class="st0" d="M12.9,4.1l-4-4C8.9,0,8.8,0,8.7,0H0.4C0.2,0,0,0.2,0,0.4c0,0,0,0,0,0v15.3C0,15.8,0.2,16,0.4,16h12.3
	c0.2,0,0.4-0.2,0.4-0.4V4.4C13,4.3,13,4.2,12.9,4.1z M9,1.2L11.8,4H9V1.2z M0.7,15.3V0.7h7.6v3.6c0,0.2,0.2,0.4,0.4,0.4c0,0,0,0,0,0
	h3.6v10.6H0.7L0.7,15.3z M10.1,7.2C10.1,7.2,10.1,7.3,10.1,7.2L3,7.3c0,0-0.1,0-0.1-0.1V6.6c0,0,0-0.1,0.1-0.1h7c0,0,0.1,0,0.1,0.1
	V7.2z M10.1,9C10.1,9,10.1,9.1,10.1,9L3,9.1c0,0-0.1,0-0.1-0.1V8.4c0,0,0-0.1,0.1-0.1h7c0,0,0.1,0,0.1,0.1V9z M10.1,10.8
	C10.1,10.9,10.1,10.9,10.1,10.8C10,10.9,10,10.9,10.1,10.8L3,10.9c-0.1,0-0.1,0-0.1-0.1c0,0,0,0,0,0v-0.5c0,0,0-0.1,0.1-0.1h7
	c0,0,0.1,0,0.1,0.1V10.8z M7.2,12.6C7.2,12.7,7.2,12.7,7.2,12.6L3,12.7c0,0-0.1,0-0.1-0.1v-0.5c0,0,0-0.1,0.1-0.1h4.2
	c0,0,0.1,0,0.1,0.1V12.6z"/>
</svg>
