<?xml version="1.0" encoding="utf-8"?>
<!-- Generator: Adobe Illustrator 23.0.1, SVG Export Plug-In . SVG Version: 6.00 Build 0)  -->
<svg version="1.1" id="protect" xmlns="http://www.w3.org/2000/svg" xmlns:xlink="http://www.w3.org/1999/xlink" x="0px" y="0px"
	 viewBox="0 0 95 10" style="enable-background:new 0 0 95 10;" xml:space="preserve">
<style type="text/css">
	.st0{fill:#1A171B;}
</style>
<path class="st0" d="M19.4,5.7c0.4,0.8,0.8,1.5,1.2,2.2c0.1,0.2,0.2,0.4,0.3,0.6C21.1,8.9,21,9,20.6,9c-0.3,0-0.7,0-1,0
	S19.1,8.9,19,8.6c-0.4-0.8-0.8-1.6-1.2-2.4c-0.1-0.2-0.2-0.4-0.5-0.4c-0.5,0-0.5,0-0.5,0.5c0,0.7,0,1.4,0,2.1c0,0.5,0,0.5-0.5,0.5
	c-0.3,0-0.6,0-0.8,0c-0.3,0-0.4-0.1-0.4-0.4V8.4c0-2.3,0-4.6,0-6.9c0-0.6,0-0.6,0.6-0.6c1,0,2,0,3,0c0.6,0,1.2,0.2,1.7,0.6
	c1.2,1.1,1.1,2.9-0.2,3.8C19.9,5.5,19.7,5.6,19.4,5.7z M17.7,4.4c0.2,0,0.4,0,0.6,0c0.5,0,0.9-0.4,1-0.9c0-0.5-0.3-0.9-0.9-0.9
	c-0.3,0-0.6,0-0.9,0c-0.9,0-0.8-0.1-0.8,0.8C16.7,4.4,16.7,4.4,17.7,4.4z"/>
<path class="st0" d="M61.4,4.9c0-1.2,0-2.3,0-3.5c0-0.5,0-0.6,0.5-0.6c1.4,0,2.8,0,4.2,0c0.4,0,0.5,0.1,0.5,0.5c0,0.2,0,0.5,0,0.7
	c0,0.3-0.1,0.5-0.5,0.5c-0.8,0-1.6,0-2.3,0s-0.7,0-0.7,0.6c0,1-0.1,0.8,0.9,0.9c0.5,0,1,0,1.6,0c0.3,0,0.5,0.1,0.5,0.5
	c0,0.2,0,0.5,0,0.7c0,0.5-0.1,0.5-0.5,0.5c-0.6,0-1.3,0-1.9,0c-0.5,0-0.5,0-0.5,0.5c0,0.2,0,0.5,0,0.7c0,0.3,0.1,0.4,0.4,0.4
	c0.8,0,1.7,0,2.5,0c0.5,0,0.6,0,0.6,0.5c0,1.3,0.1,1.1-1.1,1.1s-2.4,0-3.6,0c-0.5,0-0.6,0-0.6-0.6C61.4,7.3,61.4,6.1,61.4,4.9z"/>
<path class="st0" d="M79.9,3.2c-0.5-0.2-0.8-0.5-1.1-0.6c-1-0.3-2.1,0.1-2.6,1c-0.6,1-0.5,2.2,0.3,3c0.7,0.8,1.9,0.9,2.8,0.4
	c0.6-0.3,0.6-0.3,1.1,0.2l0,0C81,7.9,81,8,80.2,8.5c-1.4,0.9-3.4,0.8-4.8-0.2c-1.4-1.1-2-2.9-1.4-4.6c0.5-1.6,2.1-2.8,3.8-2.9
	c1,0,2,0.2,2.8,0.9C80.9,2,80.9,2,80.7,2.4C80.4,2.6,80.1,2.9,79.9,3.2z"/>
<path class="st0" d="M3.7,6c0,0.8,0,1.5,0,2.1C3.7,9,3.7,9,2.8,9c-1,0-0.9,0.1-0.9-1c0-2.2,0-4.3,0-6.5c0-0.6,0-0.7,0.6-0.7
	c0.9,0,1.7,0,2.6,0C6.5,1,7.6,2.2,7.5,3.6C7.4,4.8,6.4,5.9,5.1,6C4.7,6,4.2,6,3.7,6z M3.7,4.3c0.5,0,0.9,0,1.3,0
	c0.4-0.1,0.7-0.5,0.7-0.9S5.4,2.6,5,2.6c-0.3,0-0.7,0-1,0c-0.1,0-0.3,0.2-0.3,0.2C3.7,3.3,3.7,3.8,3.7,4.3z"/>
<path class="st0" d="M89.4,5.7c0-0.9,0-1.8,0-2.7c0-0.5,0-0.5-0.5-0.5c-0.3,0-0.7,0-1,0s-0.4-0.1-0.4-0.4c0-1.5-0.2-1.3,1.2-1.3
	c1.3,0,2.5,0,3.8,0c0.6,0,0.6,0,0.6,0.6c0,1.2,0.1,1-1,1.1c-0.9,0-0.8-0.1-0.9,0.9c0,1.7,0,3.3,0,5c0,0.6,0,0.6-0.6,0.6
	c-0.2,0-0.5,0-0.7,0c-0.4,0-0.5-0.1-0.5-0.5C89.4,7.6,89.4,6.6,89.4,5.7L89.4,5.7z"/>
<path class="st0" d="M50.3,5.8c0-0.9,0-1.8,0-2.7c0-0.4,0-0.5-0.5-0.5c-0.3,0-0.7,0-1,0s-0.4-0.1-0.4-0.4c0-1.4-0.2-1.3,1.2-1.3
	c1.3,0,2.5,0,3.8,0c0.6,0,0.6,0,0.6,0.6c0,1.3,0.1,1.1-1,1.1c-0.9,0-0.8-0.1-0.8,0.8c0,1.7,0,3.3,0,5c0,0.6,0,0.6-0.6,0.6
	c-0.2,0-0.5,0-0.7,0c-0.5,0-0.5-0.1-0.6-0.6C50.3,7.5,50.3,6.6,50.3,5.8L50.3,5.8z"/>
<path class="st0" d="M31.5,1.3c0.1,0.3-0.1,0.5-0.4,0.7c-0.5,0.2-0.7,0.7-0.8,1.1c-0.3,1.3-0.3,2.5,0,3.8c0.1,0.5,0.4,0.9,0.9,1.2
	c0.3,0.1,0.4,0.3,0.4,0.7c0,0.9-0.1,1-1,0.7s-1.4-0.8-1.8-1.7c-0.4-1.1-0.5-2.3-0.4-3.5c0.1-0.7,0.2-1.4,0.4-2.1
	c0.3-0.9,1-1.5,2-1.7c0.6-0.1,0.7,0,0.7,0.5C31.5,1.1,31.5,1.2,31.5,1.3z"/>
<path class="st0" d="M41.6,5c0,0.9-0.1,1.9-0.4,2.8c-0.4,1-1.1,1.6-2.2,1.8c-0.5,0.1-0.5,0-0.6-0.4c0-0.1,0-0.3,0-0.4
	c0-0.3,0.1-0.5,0.4-0.7c0.5-0.2,0.7-0.6,0.9-1.1c0.4-1.3,0.4-2.7,0-4c-0.1-0.5-0.4-0.9-0.9-1.1c-0.3-0.1-0.3-0.3-0.3-0.6
	c0-0.9,0.1-1,1.1-0.7c0.8,0.3,1.3,0.8,1.6,1.5C41.5,3,41.6,4,41.6,5z"/>
</svg>
