<svg xmlns="http://www.w3.org/2000/svg" viewBox="0 0 12.58 9.91"><defs><style>.a{fill:#010101;}</style></defs><title>bkt-rt</title><path class="a" d="M5.05,7.32h.76l-1.13-2A1.3,1.3,0,0,0,5.83,4a1.45,1.45,0,0,0-.1-.55A1.31,1.31,0,0,0,5.45,3,1.66,1.66,0,0,0,5,2.69a1.66,1.66,0,0,0-.61-.11H2.6V7.32h.66V5.38H4ZM3.26,4.79V3.17h1a.92.92,0,0,1,.65.22.76.76,0,0,1,.25.6.74.74,0,0,1-.25.59,1,1,0,0,1-.65.21ZM10,3.19V2.58H6.2v.61H7.78V7.32h.66V3.19Z"/><polygon class="a" points="5.04 9.91 0 9.91 0 4.87 0.99 4.87 0.99 8.92 5.04 8.92 5.04 9.91"/><polygon class="a" points="12.59 5.04 11.6 5.04 11.6 0.99 7.54 0.99 7.54 0 12.59 0 12.59 5.04"/></svg>