<?xml version="1.0" encoding="utf-8"?>
<!-- Generator: Adobe Illustrator 23.0.1, SVG Export Plug-In . SVG Version: 6.00 Build 0)  -->
<svg version="1.1" id="search_1_" xmlns="http://www.w3.org/2000/svg" xmlns:xlink="http://www.w3.org/1999/xlink" x="0px" y="0px"
	 viewBox="0 0 20 20" style="enable-background:new 0 0 20 20;" xml:space="preserve">
<style type="text/css">
	.st0{fill-rule:evenodd;clip-rule:evenodd;fill:#B2AFB0;}
</style>
<path id="search" class="st0" d="M8.3,0C3.7,0,0,3.7,0,8.3c0,4.6,3.7,8.3,8.3,8.3c1.7,0,3.3-0.5,4.7-1.5l4.5,4.5
	c0.6,0.6,1.5,0.5,2.1,0c0.5-0.6,0.5-1.5,0-2L15,13c1-1.4,1.5-3,1.5-4.7C16.5,3.7,12.8,0,8.3,0z M8.3,2.9c3,0,5.4,2.4,5.4,5.3
	c0,3-2.4,5.4-5.3,5.4c-3,0-5.4-2.4-5.4-5.3c0,0,0,0,0,0C2.9,5.3,5.3,2.9,8.3,2.9C8.2,2.9,8.3,2.9,8.3,2.9L8.3,2.9z"/>
</svg>
