<?xml version="1.0" encoding="utf-8"?>
<!-- Generator: Adobe Illustrator 23.0.1, SVG Export Plug-In . SVG Version: 6.00 Build 0)  -->
<svg version="1.1" id="technical" xmlns="http://www.w3.org/2000/svg" xmlns:xlink="http://www.w3.org/1999/xlink" x="0px" y="0px"
	 viewBox="0 0 22 27" style="enable-background:new 0 0 22 27;" xml:space="preserve">
<style type="text/css">
	.st0{fill-rule:evenodd;clip-rule:evenodd;fill:#B92442;}
</style>
<path id="technical_1_" class="st0" d="M21.8,6.9l-6.7-6.7C15,0.1,14.8,0,14.7,0H0.6C0.3,0,0,0.3,0,0.6v25.8C0,26.7,0.3,27,0.6,27
	c0,0,0,0,0,0h20.8c0.3,0,0.6-0.3,0.6-0.6c0,0,0,0,0,0v-19C22,7.2,21.9,7,21.8,6.9z M15.3,2.1l4.6,4.7h-4.6V2.1z M1.2,25.8V1.2h12.8
	v6.1c0,0.3,0.3,0.6,0.6,0.6h6.1v17.8L1.2,25.8L1.2,25.8z M17.1,12.1c0,0.1-0.1,0.2-0.2,0.2H5c-0.1,0-0.2-0.1-0.2-0.2v-0.9
	C4.9,11.1,5,11,5,11H17c0.1,0,0.2,0.1,0.2,0.2L17.1,12.1L17.1,12.1z M17.1,15.2c0,0.1-0.1,0.2-0.2,0.2H5c-0.1,0-0.2-0.1-0.2-0.2
	v-0.9c0-0.1,0.1-0.2,0.2-0.2H17c0.1,0,0.2,0.1,0.2,0.2L17.1,15.2L17.1,15.2z M17.1,18.3c0,0.1-0.1,0.2-0.2,0.2l0,0H5
	c-0.1,0-0.2-0.1-0.2-0.2c0,0,0,0,0,0v-0.9c0-0.1,0.1-0.2,0.2-0.2H17c0.1,0,0.2,0.1,0.2,0.2L17.1,18.3L17.1,18.3z M12.2,21.3
	c0,0.1-0.1,0.2-0.2,0.2H5c-0.1,0-0.2-0.1-0.2-0.2v-0.9c0-0.1,0.1-0.2,0.2-0.2h7c0.1,0,0.2,0.1,0.2,0.2V21.3z"/>
</svg>
