<?xml version="1.0" encoding="utf-8"?>
<!-- Generator: Adobe Illustrator 23.0.1, SVG Export Plug-In . SVG Version: 6.00 Build 0)  -->
<svg version="1.1" id="twitter" xmlns="http://www.w3.org/2000/svg" xmlns:xlink="http://www.w3.org/1999/xlink" x="0px" y="0px"
	 viewBox="0 0 19.8 16.1" style="enable-background:new 0 0 19.8 16.1;" xml:space="preserve">
<style type="text/css">
	.st0{fill-rule:evenodd;clip-rule:evenodd;fill:#191919;}
</style>
<path id="twitter_1_" class="st0" d="M19.8,1.9c-0.7,0.3-1.5,0.5-2.3,0.6C18.3,2,19,1.2,19.3,0.3c-0.8,0.5-1.7,0.8-2.6,1
	c-1.5-1.6-4.1-1.7-5.7-0.2C9.9,2.1,9.4,3.6,9.8,5C6.5,4.8,3.4,3.3,1.4,0.7C0.3,2.6,0.8,5,2.6,6.2C2,6.1,1.4,6,0.8,5.7v0.1
	c0,1.9,1.4,3.6,3.3,4C3.7,9.8,3.3,9.8,3,9.8c-0.3,0-0.5,0-0.8-0.1c0.5,1.7,2.1,2.8,3.8,2.8c-1.4,1.1-3.2,1.7-5.1,1.7
	c-0.3,0-0.6,0-1-0.1c5.4,3.4,12.5,1.9,16-3.5c1.2-1.9,1.8-4,1.8-6.2c0-0.2,0-0.4,0-0.5C18.6,3.4,19.3,2.7,19.8,1.9z"/>
</svg>
