<?xml version="1.0" encoding="utf-8"?>
<!-- Generator: Adobe Illustrator 23.0.1, SVG Export Plug-In . SVG Version: 6.00 Build 0)  -->
<svg version="1.1" id="heart_1_" xmlns="http://www.w3.org/2000/svg" xmlns:xlink="http://www.w3.org/1999/xlink" x="0px" y="0px"
	 viewBox="0 0 16 14" style="enable-background:new 0 0 16 14;" xml:space="preserve">
<style type="text/css">
	.st0{fill-rule:evenodd;clip-rule:evenodd;fill:#B2AFB0;}
</style>
<path id="heart" class="st0" d="M8,14c-0.2,0-0.3-0.1-0.5-0.2l-0.6-0.4c-0.5-0.3-0.9-0.6-1.4-1c-0.7-0.5-1.4-1.1-2-1.6
	c-0.9-0.7-1.6-1.6-2.3-2.5C0.7,7.6,0.3,6.8,0.1,5.9c0-0.2-0.1-0.4-0.1-0.5l0-0.1l0-1c0-0.1,0-0.2,0.1-0.3c0.1-0.2,0.1-0.4,0.2-0.7
	c0.4-1.1,1.2-2.1,2.2-2.7c1.8-1,4-0.8,5.5,0.6c1.8-1.6,4.6-1.6,6.4,0.1c0.7,0.6,1.2,1.5,1.4,2.4C15.9,3.8,15.9,4,16,4.2l0,0.3l0,0.9
	c-0.1,0.8-0.4,1.6-0.8,2.3c-0.3,0.5-0.7,1-1.1,1.5c-0.5,0.6-1.1,1.1-1.7,1.7c-0.4,0.4-1,0.9-1.7,1.3c-0.5,0.4-1,0.7-1.5,1.1
	c-0.2,0.2-0.5,0.3-0.7,0.5C8.4,13.9,8.2,14,8,14z M1.4,5.1c0,0.1,0.1,0.3,0.1,0.4c0.1,0.7,0.4,1.4,0.9,1.9C2.9,8.3,3.6,9,4.4,9.7
	c0.6,0.5,1.3,1.1,1.9,1.6c0.4,0.3,0.9,0.6,1.3,0.9c0.1,0.1,0.2,0.2,0.3,0.2c0.2-0.1,0.3-0.2,0.5-0.3c0.5-0.3,1-0.7,1.5-1
	c0.6-0.4,1.2-0.9,1.6-1.3c0.5-0.5,1.1-1,1.5-1.5c0.4-0.4,0.7-0.8,1-1.3c0.3-0.5,0.5-1.1,0.6-1.7c0,0,0-0.1,0-0.1l0-0.6
	c0-0.1,0-0.3-0.1-0.4c-0.2-0.7-0.5-1.2-1-1.7c-1.3-1.2-3.4-1.2-4.7,0C8.7,2.4,8.6,2.5,8.5,2.6L8,3.4L7.3,2.5
	C6.3,1.4,4.5,1.1,3.1,1.9C2.4,2.3,1.8,3,1.6,3.8C1.5,3.9,1.5,4.1,1.4,4.3L1.4,4.6l0,0L1.4,5.1L1.4,5.1z"/>
</svg>
