<?xml version="1.0" encoding="utf-8"?>
<!-- Generator: Adobe Illustrator 23.0.1, SVG Export Plug-In . SVG Version: 6.00 Build 0)  -->
<svg version="1.1" id="wishlist" xmlns="http://www.w3.org/2000/svg" xmlns:xlink="http://www.w3.org/1999/xlink" x="0px" y="0px"
	 viewBox="0 0 25 20.8" style="enable-background:new 0 0 25 20.8;" xml:space="preserve">
<style type="text/css">
	.st0{fill-rule:evenodd;clip-rule:evenodd;fill:#B92442;}
</style>
<path id="wishlist_1_" class="st0" d="M12.5,20.8c-0.3,0-0.5-0.1-0.8-0.3c-0.3-0.2-0.6-0.4-0.9-0.6c-0.7-0.5-1.4-0.9-2.1-1.5
	c-1.1-0.8-2.1-1.6-3.1-2.4c-1.4-1-2.6-2.2-3.7-3.6C1,11.3,0.5,10.1,0.2,8.7C0.1,8.5,0.1,8.2,0,7.9V7.7l0.1-1.4
	c0-0.1,0.1-0.3,0.1-0.4c0.1-0.3,0.1-0.7,0.3-1c0.6-1.7,1.8-3.2,3.4-4c1.5-0.8,3.3-1.1,5-0.8c1.4,0.2,2.6,0.8,3.7,1.7
	c2.9-2.4,7.2-2.4,10,0.1c1.1,0.9,1.9,2.2,2.2,3.5C24.9,5.7,24.9,6,25,6.2v0.5l-0.1,1.4c-0.2,1.2-0.6,2.4-1.2,3.4
	c-0.5,0.8-1.1,1.6-1.8,2.3c-0.8,0.9-1.7,1.7-2.6,2.5c-0.7,0.6-1.6,1.3-2.6,2c-0.8,0.5-1.5,1.1-2.3,1.6c-0.4,0.3-0.8,0.5-1.2,0.8
	C13.1,20.8,12.8,20.8,12.5,20.8z"/>
</svg>
