<svg xmlns="http://www.w3.org/2000/svg" width="22.87" height="16.094" viewBox="0 0 22.87 16.094">
  <defs>
    <style>
      .cls-1 {
        fill: #191919;
        fill-rule: evenodd;
      }
    </style>
  </defs>
  <path id="youtube" class="cls-1" d="M1488.19,322.843h-0.01s-4.8,0-8,.233a3.271,3.271,0,0,0-2.29.97,5.014,5.014,0,0,0-.91,2.268,35.909,35.909,0,0,0-.22,3.7v1.733a35.9,35.9,0,0,0,.22,3.7,5.021,5.021,0,0,0,.91,2.271,3.892,3.892,0,0,0,2.52.978c1.83,0.174,7.77.228,7.77,0.228h0s4.81-.008,8.01-0.238a3.28,3.28,0,0,0,2.29-.968,4.962,4.962,0,0,0,.9-2.271,34.364,34.364,0,0,0,.23-3.7v-1.733a34.37,34.37,0,0,0-.23-3.7,4.955,4.955,0,0,0-.9-2.268,3.271,3.271,0,0,0-2.29-.97c-3.2-.233-8-0.233-8-0.233m-2.36,11.006,6.16-3.2-6.16-3.211v6.414Z" transform="translate(-1476.75 -322.844)"/>
</svg>
