<?xml version="1.0" encoding="utf-8"?>
<!-- Generator: Adobe Illustrator 23.0.1, SVG Export Plug-In . SVG Version: 6.00 Build 0)  -->
<svg version="1.1" id="instagram_1_" xmlns="http://www.w3.org/2000/svg" xmlns:xlink="http://www.w3.org/1999/xlink" x="0px"
	 y="0px" viewBox="0 0 30.6 30.6" style="enable-background:new 0 0 30.6 30.6;" xml:space="preserve">
<path id="instagram" d="M15.3,7.5c-4.3,0-7.9,3.5-7.9,7.9c0,4.3,3.5,7.9,7.9,7.9c4.3,0,7.9-3.5,7.9-7.9c0,0,0,0,0,0
	C23.2,11,19.7,7.5,15.3,7.5C15.3,7.5,15.3,7.5,15.3,7.5z M15.3,20.4c-2.8,0-5.1-2.3-5.1-5.1s2.3-5.1,5.1-5.1s5.1,2.3,5.1,5.1l0,0
	C20.4,18.1,18.1,20.4,15.3,20.4z M25.3,7.1c0,1-0.8,1.8-1.8,1.8s-1.8-0.8-1.8-1.8c0-1,0.8-1.8,1.8-1.8C24.5,5.3,25.3,6.1,25.3,7.1
	C25.3,7.1,25.3,7.1,25.3,7.1z M30.5,9c0.1-2.4-0.8-4.7-2.5-6.4c-1.7-1.6-4-2.5-6.4-2.5C19.1,0,11.5,0,9,0.1c-2.4,0-4.7,0.8-6.4,2.5
	C0.9,4.3,0.1,6.6,0.1,9C0,11.5,0,19.1,0.1,21.6c-0.1,2.4,0.8,4.7,2.5,6.4c1.7,1.6,4,2.5,6.4,2.5c2.5,0.1,10.1,0.1,12.6,0
	c2.4,0.1,4.7-0.8,6.4-2.5c1.6-1.7,2.5-4,2.5-6.4C30.7,19.1,30.7,11.5,30.5,9L30.5,9z M27.3,24.3c-0.5,1.3-1.6,2.4-2.9,2.9
	c-2,0.8-6.8,0.6-9,0.6s-7,0.2-9-0.6c-1.3-0.5-2.4-1.6-2.9-2.9c-0.8-2-0.6-6.8-0.6-9s-0.2-7,0.6-9C3.9,5,5,3.9,6.3,3.4
	c2-0.8,6.8-0.6,9-0.6s7-0.2,9,0.6c1.3,0.5,2.4,1.6,2.9,2.9c0.8,2,0.6,6.8,0.6,9S28.1,22.3,27.3,24.3z"/>
</svg>
