<?xml version="1.0" encoding="utf-8"?>
<!-- Generator: Adobe Illustrator 23.0.1, SVG Export Plug-In . SVG Version: 6.00 Build 0)  -->
<svg version="1.1" id="lea_ceramiche_1_" xmlns="http://www.w3.org/2000/svg" xmlns:xlink="http://www.w3.org/1999/xlink" x="0px"
	 y="0px" viewBox="0 0 124.8 55.1" style="enable-background:new 0 0 124.8 55.1;" xml:space="preserve">
<style type="text/css">
	.st0{fill:#232120;}
</style>
<g id="lea_ceramiche" transform="translate(-117.174 -345.488)">
	<path id="Path_2" class="st0" d="M146.1,379.6h-29v-34.1h6.5v27.6h24.7L146.1,379.6z"/>
	<path id="Path_1" class="st0" d="M190.8,379.6h-30v-34.1h29.9v6.5h-23.4v7.5h17.1v6.6h-17.1v6.9h25.8L190.8,379.6z"/>
	<path id="Path_3" class="st0" d="M241.9,379.6h-7l-1.8-5.2h-19l-1.8,5.2h-7l11.9-34.1H230L241.9,379.6z M216.5,367.8h14.4
		l-5.5-15.8H222L216.5,367.8z"/>
	<path id="Path_4" class="st0" d="M146.3,398.1c-0.1,0.7-0.6,2.4-3.6,2.4c-1.8,0.2-3.4-1.1-3.6-2.9c0-0.2,0-0.4,0-0.5
		c0-1.9,1.2-3.3,3.7-3.3c2.9,0,3.3,1.9,3.4,2.2H145c-0.4-0.8-1.2-1.2-2.1-1.1c-1.3-0.1-2.4,0.8-2.5,2.1s0.8,2.4,2.1,2.5
		c0.1,0,0.2,0,0.3,0c1,0.1,1.9-0.5,2.2-1.4H146.3z"/>
	<path id="Path_5" class="st0" d="M149.3,394h5.8v1.1h-4.5v1.5h3.9v1.1h-3.9v1.7h4.6v1.1h-5.9V394z"/>
	<path id="Path_6" class="st0" d="M158,394h3.9c1.5,0,2.6,0.3,2.6,1.9c0,1-0.7,1.9-1.7,1.9c0,0,0,0-0.1,0l2,2.6h-1.5l-1.9-2.5h-2
		v2.5H158L158,394z M161.6,396.8c1,0,1.5-0.1,1.5-0.9s-0.5-0.9-1.5-0.9h-2.4v1.8L161.6,396.8z"/>
	<path id="Path_7" class="st0" d="M170.1,394h1.4l3.1,6.4h-1.3l-0.7-1.5H169l-0.7,1.5H167L170.1,394z M172.2,397.8l-1.3-2.9
		l-1.3,2.9H172.2z"/>
	<path id="Path_8" class="st0" d="M178.4,395.5L178.4,395.5l0,4.9h-1.1V394h1.7l2,4.8l2-4.8h1.7v6.4h-1.1v-4.9h0l-2.1,4.9h-1
		L178.4,395.5z"/>
	<rect id="Rectangle_1" x="188.1" y="394" class="st0" width="1.3" height="6.4"/>
	<path id="Path_9" class="st0" d="M199.5,398.1c-0.1,0.7-0.6,2.4-3.6,2.4c-1.8,0.2-3.4-1.1-3.6-2.9c0-0.2,0-0.4,0-0.5
		c0-1.9,1.2-3.3,3.7-3.3c2.9,0,3.3,1.9,3.4,2.2h-1.3c-0.4-0.8-1.2-1.2-2.1-1.1c-1.3-0.1-2.4,0.8-2.5,2.1c-0.1,1.3,0.8,2.4,2.1,2.5
		c0.1,0,0.2,0,0.3,0c1,0.1,1.9-0.5,2.2-1.4H199.5z"/>
	<path id="Path_10" class="st0" d="M202.5,394h1.3v2.5h4.3V394h1.3v6.4H208v-2.8h-4.3v2.8h-1.3V394z"/>
	<path id="Path_11" class="st0" d="M212.7,394h5.8v1.1h-4.5v1.5h3.9v1.1h-3.9v1.7h4.6v1.1h-5.9L212.7,394z"/>
</g>
</svg>
