<?xml version="1.0" encoding="utf-8"?>
<!-- Generator: Adobe Illustrator 23.0.1, SVG Export Plug-In . SVG Version: 6.00 Build 0)  -->
<svg version="1.1" id="Group_1" xmlns="http://www.w3.org/2000/svg" xmlns:xlink="http://www.w3.org/1999/xlink" x="0px" y="0px"
	 viewBox="0 0 136.8 55.1" style="enable-background:new 0 0 136.8 55.1;" xml:space="preserve">
<style type="text/css">
	.st0{fill:#232120;}
</style>
<path id="Path_1" class="st0" d="M80.8,34.1H47.9V0h32.8v6.5H55V14h18.7v6.6H55v6.9h28.3L80.8,34.1z"/>
<path id="Path_2" class="st0" d="M31.8,34.1H0V0h7.2v27.6h27.1L31.8,34.1z"/>
<path id="Path_3" class="st0" d="M136.8,34.1h-7.6l-2-5.2h-20.8l-1.9,5.2h-7.6L109.9,0h13.8L136.8,34.1z M109,22.3h15.8l-6-15.8H115
	L109,22.3z"/>
<path id="Path_4" class="st0" d="M32,52.6c-0.1,0.7-0.7,2.4-3.9,2.4c-2.2,0-4-1.1-4-3.5c0-1.9,1.3-3.3,4.1-3.3
	c3.2,0,3.6,1.9,3.7,2.2h-1.4c-0.1-0.2-0.6-1.1-2.3-1.1c-1.9,0-2.8,1-2.8,2.3c0,1.5,1.2,2.3,2.7,2.3c1,0.1,2-0.4,2.5-1.4L32,52.6z"/>
<path id="Path_5" class="st0" d="M35.2,48.5h6.3v1.1h-4.9v1.5h4.3v1.1h-4.3v1.7h5.1v1.1h-6.4V48.5z"/>
<path id="Path_6" class="st0" d="M44.7,48.5H49c1.7,0,2.9,0.3,2.9,1.9c0,1.1-0.9,1.9-1.9,1.9c0,0,0,0,0,0l2.2,2.6h-1.7l-2-2.5h-2.2
	v2.5h-1.4V48.5z M48.8,51.3c1.1,0,1.7-0.1,1.7-0.9s-0.6-0.9-1.7-0.9h-2.7v1.8L48.8,51.3z"/>
<path id="Path_7" class="st0" d="M58.1,48.5h1.6l3.4,6.4h-1.5l-0.7-1.5h-4.1l-0.7,1.5h-1.5L58.1,48.5z M60.3,52.4l-1.5-2.9l-1.5,2.9
	H60.3z"/>
<path id="Path_8" class="st0" d="M67.2,50L67.2,50l0,4.9H66v-6.4h1.9l2.2,4.8l2.2-4.8h1.8v6.4h-1.2V50h0l-2.3,4.9h-1.1L67.2,50z"/>
<rect id="Rectangle_1" x="77.8" y="48.5" class="st0" width="1.4" height="6.4"/>
<path id="Path_9" class="st0" d="M90.3,52.6c-0.1,0.7-0.7,2.4-3.9,2.4c-2.2,0-4-1.1-4-3.5c0-1.9,1.3-3.3,4.1-3.3
	c3.2,0,3.6,1.9,3.7,2.2h-1.4c-0.1-0.2-0.6-1.1-2.3-1.1c-1.9,0-2.8,1-2.8,2.3c0,1.5,1.2,2.3,2.7,2.3c1,0.1,2-0.4,2.5-1.4L90.3,52.6z"
	/>
<path id="Path_10" class="st0" d="M93.5,48.5h1.4V51h4.7v-2.5h1.4v6.4h-1.4v-2.8h-4.7v2.8h-1.4V48.5z"/>
<path id="Path_11" class="st0" d="M104.7,48.5h6.3v1.1h-4.9v1.5h4.3v1.1h-4.3v1.7h5.1v1.1h-6.4V48.5z"/>
</svg>
