<?xml version="1.0" encoding="utf-8"?>
<!-- Generator: Adobe Illustrator 23.0.1, SVG Export Plug-In . SVG Version: 6.00 Build 0)  -->
<svg version="1.1" id="lea_ceramiche_1_" xmlns="http://www.w3.org/2000/svg" xmlns:xlink="http://www.w3.org/1999/xlink" x="0px"
	 y="0px" viewBox="0 0 136.8 55.1" style="enable-background:new 0 0 136.8 55.1;" xml:space="preserve">
<style type="text/css">
	.st0{fill:#232120;}
</style>
<g>
	<polygon class="st0" points="7.2,0 0,0 0,34.1 31.8,34.1 34.3,27.6 7.2,27.6 	"/>
	<polygon class="st0" points="55,27.6 55,20.7 73.8,20.7 73.8,14 55,14 55,6.5 80.7,6.5 80.7,0 47.9,0 47.9,34.1 80.8,34.1 
		83.3,27.6 	"/>
	<path class="st0" d="M123.7,0h-13.8L96.8,34.1h7.6l1.9-5.2h20.8l2,5.2h7.6L123.7,0z M109,22.3l6-15.8h3.7l6,15.8H109z"/>
	<path class="st0" d="M28.1,54c-1.5,0-2.7-0.8-2.7-2.3c0-1.3,0.8-2.3,2.8-2.3c1.6,0,2.2,0.9,2.3,1.1h1.4c-0.1-0.3-0.6-2.2-3.7-2.2
		c-2.8,0-4.1,1.4-4.1,3.3c0,2.3,1.8,3.5,4,3.5c3.2,0,3.8-1.7,3.9-2.4l-1.4,0C30.2,53.6,29.2,54.1,28.1,54z"/>
	<polygon class="st0" points="36.6,52.1 40.8,52.1 40.8,51.1 36.6,51.1 36.6,49.6 41.5,49.6 41.5,48.5 35.2,48.5 35.2,54.9 
		41.6,54.9 41.6,53.8 36.6,53.8 	"/>
	<path class="st0" d="M49.9,52.3c1.1,0,1.9-0.8,1.9-1.9c0-1.6-1.2-1.9-2.9-1.9h-4.2v6.4h1.4v-2.5h2.2l2,2.5H52L49.9,52.3
		C49.9,52.3,49.9,52.3,49.9,52.3z M46.1,51.3v-1.8h2.7c1.1,0,1.7,0.1,1.7,0.9s-0.6,0.9-1.7,0.9L46.1,51.3z"/>
	<path class="st0" d="M58.1,48.5l-3.5,6.4h1.5l0.7-1.5h4.1l0.7,1.5h1.5l-3.4-6.4H58.1z M57.4,52.4l1.5-2.9l1.5,2.9H57.4z"/>
	<polygon class="st0" points="70,53.3 67.8,48.5 66,48.5 66,54.9 67.2,54.9 67.2,50 67.2,50 69.5,54.9 70.6,54.9 72.8,50 72.8,50 
		72.8,54.9 74.1,54.9 74.1,48.5 72.2,48.5 	"/>
	<rect x="77.8" y="48.5" class="st0" width="1.4" height="6.4"/>
	<path class="st0" d="M86.5,54c-1.5,0-2.7-0.8-2.7-2.3c0-1.3,0.8-2.3,2.8-2.3c1.6,0,2.2,0.9,2.3,1.1h1.4c-0.1-0.3-0.6-2.2-3.7-2.2
		c-2.8,0-4.1,1.4-4.1,3.3c0,2.3,1.8,3.5,4,3.5c3.2,0,3.8-1.7,3.9-2.4l-1.4,0C88.5,53.6,87.5,54.1,86.5,54z"/>
	<polygon class="st0" points="99.7,51 94.9,51 94.9,48.5 93.5,48.5 93.5,54.9 94.9,54.9 94.9,52.1 99.7,52.1 99.7,54.9 101,54.9 
		101,48.5 99.7,48.5 	"/>
	<polygon class="st0" points="106.1,52.1 110.3,52.1 110.3,51.1 106.1,51.1 106.1,49.6 111,49.6 111,48.5 104.7,48.5 104.7,54.9 
		111.1,54.9 111.1,53.8 106.1,53.8 	"/>
</g>
</svg>
