<?xml version="1.0" encoding="utf-8"?>
<!-- Generator: Adobe Illustrator 23.0.1, SVG Export Plug-In . SVG Version: 6.00 Build 0)  -->
<svg version="1.1" id="linkedin" xmlns="http://www.w3.org/2000/svg" xmlns:xlink="http://www.w3.org/1999/xlink" x="0px" y="0px"
	 viewBox="0 0 30.6 30.6" style="enable-background:new 0 0 30.6 30.6;" xml:space="preserve">
<path id="linkedin_1_" d="M6.9,30.6H0.5V10.2h6.3V30.6z M3.7,7.4C1.6,7.4,0,5.8,0,3.7C0,1.7,1.6,0,3.6,0c2,0,3.7,1.6,3.7,3.7
	C7.4,5.7,5.7,7.4,3.7,7.4z M30.6,30.6h-6.3v-10c0-2.4,0-5.4-3.3-5.4c-3.3,0-3.8,2.6-3.8,5.2v10.1h-6.3V10.2h6.1V13H17
	c1.2-2.1,3.6-3.4,6-3.3c6.4,0,7.6,4.2,7.6,9.7L30.6,30.6L30.6,30.6z"/>
</svg>
