<?xml version="1.0" encoding="utf-8"?>
<!-- Generator: Adobe Illustrator 23.0.1, SVG Export Plug-In . SVG Version: 6.00 Build 0)  -->
<svg version="1.1" id="scrollbar-thumb_1_" xmlns="http://www.w3.org/2000/svg" xmlns:xlink="http://www.w3.org/1999/xlink" x="0px"
	 y="0px" viewBox="0 0 23 23" style="enable-background:new 0 0 23 23;" xml:space="preserve">
<style type="text/css">
	.st0{fill:#FFFFFF;}
	.st1{fill:#232120;}
</style>
<g id="scrollbar-thumb" transform="translate(5.864 5.864)">
	<path class="st0" d="M5.6,15.1c-5.2,0-9.5-4.3-9.5-9.5s4.3-9.5,9.5-9.5s9.5,4.3,9.5,9.5S10.9,15.1,5.6,15.1z"/>
	<path class="st1" d="M5.6-1.9c-4.1,0-7.5,3.4-7.5,7.5s3.4,7.5,7.5,7.5s7.5-3.4,7.5-7.5S9.8-1.9,5.6-1.9 M5.6-5.9
		c3.1,0,6,1.2,8.1,3.4s3.4,5.1,3.4,8.1s-1.2,6-3.4,8.1s-5.1,3.4-8.1,3.4s-6-1.2-8.1-3.4s-3.4-5.1-3.4-8.1s1.2-6,3.4-8.1
		S2.6-5.9,5.6-5.9z"/>
</g>
</svg>
