<?xml version="1.0" encoding="utf-8"?>
<!-- Generator: Adobe Illustrator 23.0.1, SVG Export Plug-In . SVG Version: 6.00 Build 0)  -->
<svg version="1.1" id="search_1_" xmlns="http://www.w3.org/2000/svg" xmlns:xlink="http://www.w3.org/1999/xlink" x="0px" y="0px"
	 viewBox="0 0 17.9 19.8" style="enable-background:new 0 0 17.9 19.8;" xml:space="preserve">
<style type="text/css">
	.st0{fill:#232120;}
</style>
<path id="search" class="st0" d="M17.9,19.2l-3.7-4.3C15.9,13.3,17,11,17,8.5C17,3.8,13.2,0,8.5,0C3.8,0,0,3.8,0,8.5
	C0,13.2,3.8,17,8.5,17c1.8,0,3.5-0.6,4.9-1.5l3.8,4.4L17.9,19.2z M1,8.5C1,4.4,4.4,1,8.5,1S16,4.4,16,8.5S12.6,16,8.5,16
	S1,12.6,1,8.5z"/>
</svg>
