<?xml version="1.0" encoding="utf-8"?>
<!-- Generator: Adobe Illustrator 23.0.1, SVG Export Plug-In . SVG Version: 6.00 Build 0)  -->
<svg version="1.1" id="twitter_1_" xmlns="http://www.w3.org/2000/svg" xmlns:xlink="http://www.w3.org/1999/xlink" x="0px" y="0px"
	 viewBox="0 0 35 28.4" style="enable-background:new 0 0 35 28.4;" xml:space="preserve">
<path id="twitter" d="M31.4,7.1c0,0.3,0,0.6,0,0.9c0,9.5-7.2,20.4-20.4,20.4c-3.9,0-7.7-1.1-11-3.2c0.6,0.1,1.2,0.1,1.7,0.1
	c3.2,0,6.4-1.1,8.9-3.1c-3.1-0.1-5.8-2.1-6.7-5c0.4,0.1,0.9,0.1,1.4,0.1c0.6,0,1.3-0.1,1.9-0.2c-3.3-0.7-5.8-3.6-5.8-7V10
	c1,0.6,2.1,0.9,3.2,0.9C1.5,8.8,0.5,4.6,2.4,1.3c3.6,4.5,9,7.2,14.8,7.5c-0.1-0.5-0.2-1.1-0.2-1.6c0-4,3.2-7.2,7.2-7.2
	c2,0,3.9,0.8,5.2,2.3C31.1,2,32.6,1.4,34,0.5c-0.5,1.7-1.7,3.1-3.2,4c1.4-0.2,2.8-0.5,4.1-1.1C34,4.8,32.8,6.1,31.4,7.1L31.4,7.1z"
	/>
</svg>
