<?xml version="1.0" encoding="utf-8"?>
<!-- Generator: Adobe Illustrator 23.0.1, SVG Export Plug-In . SVG Version: 6.00 Build 0)  -->
<svg version="1.1" id="websolute_1_" xmlns="http://www.w3.org/2000/svg" xmlns:xlink="http://www.w3.org/1999/xlink" x="0px"
	 y="0px" viewBox="0 0 82 15.9" style="enable-background:new 0 0 82 15.9;" xml:space="preserve">
<style type="text/css">
	.st0{opacity:0.264;fill-rule:evenodd;clip-rule:evenodd;fill:#232120;enable-background:new    ;}
	.st1{opacity:0.264;fill:#232120;enable-background:new    ;}
	.st2{fill-rule:evenodd;clip-rule:evenodd;fill:#0090DF;}
	.st3{fill-rule:evenodd;clip-rule:evenodd;fill:#FFFFFF;}
</style>
<g id="websolute" transform="translate(-209.346 -256.526)">
	<path id="Path_201" class="st0" d="M291.3,264.6c0-0.5-0.1-1-0.2-1.5c-0.1-0.4-0.4-0.8-0.7-1.2c-0.3-0.3-0.7-0.6-1.1-0.8
		c-0.4-0.2-0.9-0.3-1.4-0.3c-0.5,0-1,0.1-1.4,0.3c-0.8,0.4-1.5,1-1.8,1.9c-0.2,0.4-0.3,0.9-0.3,1.4c0,0.5,0.1,1,0.3,1.5
		c0.2,0.4,0.4,0.8,0.8,1.1c0.3,0.3,0.7,0.6,1.1,0.7c0.5,0.2,0.9,0.3,1.4,0.3c0.5,0,1-0.1,1.5-0.2c0.5-0.1,0.9-0.4,1.2-0.7l-0.8-1.1
		c-0.1,0.1-0.2,0.2-0.4,0.3c-0.1,0.1-0.3,0.2-0.5,0.2c-0.2,0.1-0.3,0.1-0.5,0.1c-0.2,0-0.3,0-0.5,0c-0.5,0-1-0.1-1.4-0.5
		c-0.3-0.3-0.5-0.7-0.6-1.1h5L291.3,264.6z M286.3,263.8c0-0.2,0.1-0.4,0.1-0.5c0.1-0.2,0.2-0.3,0.3-0.5c0.1-0.2,0.3-0.3,0.5-0.4
		c0.2-0.1,0.5-0.1,0.7-0.1c0.3,0,0.5,0,0.7,0.1c0.2,0.1,0.4,0.2,0.5,0.4c0.1,0.1,0.2,0.3,0.3,0.5c0.1,0.2,0.1,0.3,0.1,0.5
		L286.3,263.8z"/>
	<path id="Path_202" class="st0" d="M283.6,266.4c-0.1,0-0.2,0.1-0.4,0.1c-0.2,0-0.3-0.1-0.5-0.2c-0.1-0.2-0.2-0.3-0.2-0.5v-3h1.4
		v-1.6h-1.4v-1.8h-1.8v1.8h-1.1v1.6h1.1v3.5c0,0.5,0.1,1,0.5,1.4c0.4,0.3,0.9,0.5,1.4,0.5c0.3,0,0.6,0,0.9-0.1
		c0.2-0.1,0.4-0.2,0.6-0.3l-0.4-1.3C283.7,266.3,283.7,266.3,283.6,266.4"/>
	<path id="Path_203" class="st0" d="M277.2,265.7c-0.2,0.2-0.4,0.4-0.6,0.5c-0.3,0.2-0.6,0.2-0.9,0.2c-0.3,0-0.6-0.1-0.9-0.3
		c-0.3-0.3-0.4-0.6-0.3-1v-4.1h-1.8v4.8c0,0.6,0.2,1.1,0.5,1.6c0.4,0.4,1,0.6,1.6,0.6c0.5,0,1-0.1,1.4-0.3c0.4-0.2,0.7-0.4,0.9-0.7
		v0.9h1.8v-6.8h-1.8L277.2,265.7z"/>
	<rect id="Rectangle_769" x="269.4" y="258.5" class="st1" width="1.8" height="9.3"/>
	<path id="Path_204" class="st0" d="M268,263.1c-0.2-0.4-0.4-0.8-0.7-1.1c-0.3-0.3-0.7-0.6-1.1-0.8c-0.5-0.2-1-0.3-1.5-0.3
		c-0.5,0-1,0.1-1.5,0.3c-0.4,0.2-0.8,0.4-1.1,0.8c-0.3,0.3-0.5,0.7-0.7,1.1c-0.2,0.4-0.2,0.9-0.2,1.4c0,0.5,0.1,0.9,0.2,1.4
		c0.2,0.4,0.4,0.8,0.7,1.1c0.3,0.3,0.7,0.6,1.1,0.8c0.5,0.2,1,0.3,1.5,0.3c0.5,0,1-0.1,1.5-0.3c0.4-0.2,0.8-0.4,1.1-0.8
		c0.3-0.3,0.5-0.7,0.7-1.1c0.2-0.4,0.2-0.9,0.2-1.4C268.3,264,268.2,263.5,268,263.1z M266.3,265.2c-0.1,0.2-0.2,0.4-0.3,0.6
		c-0.1,0.2-0.3,0.3-0.5,0.4c-0.2,0.1-0.5,0.2-0.7,0.2c-0.3,0-0.5,0-0.7-0.2c-0.2-0.1-0.4-0.3-0.5-0.4c-0.2-0.2-0.3-0.4-0.3-0.6
		c-0.1-0.2-0.1-0.5-0.1-0.8c0-0.3,0-0.5,0.1-0.7c0.1-0.2,0.2-0.4,0.3-0.6c0.1-0.2,0.3-0.3,0.5-0.4c0.2-0.1,0.5-0.2,0.7-0.2
		c0.3,0,0.5,0,0.7,0.2c0.2,0.1,0.4,0.2,0.5,0.4c0.1,0.2,0.3,0.4,0.3,0.6c0.1,0.2,0.1,0.5,0.1,0.7C266.5,264.7,266.4,265,266.3,265.2
		z"/>
	<path id="Path_205" class="st0" d="M259.5,264.1c-0.3-0.2-0.6-0.3-1-0.4c-0.3-0.1-0.7-0.1-1-0.2c-0.3,0-0.5-0.1-0.7-0.2
		c-0.2,0-0.3-0.2-0.3-0.4c0-0.2,0.1-0.4,0.3-0.5c0.2-0.1,0.5-0.2,0.8-0.2c0.4,0,0.8,0.1,1.2,0.2c0.3,0.1,0.6,0.3,0.8,0.6l0.7-1.2
		c-0.8-0.6-1.7-0.9-2.7-0.9c-0.4,0-0.8,0.1-1.2,0.2c-0.3,0.1-0.6,0.3-0.9,0.5c-0.2,0.2-0.4,0.4-0.5,0.7c-0.1,0.2-0.2,0.5-0.2,0.8
		c0,0.4,0.1,0.8,0.3,1.1c0.2,0.3,0.5,0.5,0.7,0.6c0.3,0.2,0.6,0.3,1,0.3c0.3,0.1,0.7,0.1,1,0.2c0.3,0,0.5,0.1,0.7,0.2
		c0.2,0.1,0.3,0.2,0.3,0.4c0,0.2-0.1,0.4-0.3,0.5c-0.3,0.2-0.6,0.2-0.9,0.2c-0.2,0-0.4,0-0.6-0.1c-0.2-0.1-0.4-0.1-0.6-0.2
		c-0.2-0.1-0.4-0.2-0.6-0.3c-0.2-0.1-0.3-0.2-0.5-0.3l-0.8,1.2c0.4,0.3,0.8,0.6,1.3,0.8c0.5,0.2,1.1,0.3,1.7,0.3
		c0.4,0,0.8,0,1.2-0.2c0.3-0.1,0.6-0.2,0.9-0.5c0.2-0.2,0.4-0.4,0.6-0.7c0.1-0.3,0.2-0.6,0.2-0.9c0-0.4-0.1-0.8-0.3-1.1
		C260.1,264.5,259.8,264.2,259.5,264.1"/>
	<path id="Path_206" class="st0" d="M253.9,263c-0.1-0.4-0.3-0.8-0.6-1.1c-0.3-0.3-0.6-0.5-0.9-0.7c-0.4-0.2-0.8-0.2-1.2-0.2
		c-0.4,0-0.8,0.1-1.1,0.3c-0.4,0.2-0.7,0.4-0.9,0.8v-3.4h-1.8v9.3h1.8V267c0.3,0.3,0.6,0.6,0.9,0.8c0.4,0.2,0.7,0.3,1.1,0.3
		c0.4,0,0.8-0.1,1.2-0.2c0.4-0.2,0.7-0.4,0.9-0.7c0.3-0.3,0.5-0.7,0.6-1.1C254.2,265,254.2,264,253.9,263L253.9,263z M251.8,265.9
		c-0.3,0.4-0.8,0.6-1.2,0.5c-0.3,0-0.6-0.1-0.9-0.2c-0.3-0.1-0.5-0.3-0.7-0.5v-2.4c0.2-0.2,0.4-0.4,0.7-0.6c0.3-0.1,0.6-0.2,0.9-0.2
		c0.5,0,0.9,0.2,1.2,0.5c0.3,0.4,0.5,0.9,0.5,1.4C252.3,265,252.1,265.5,251.8,265.9L251.8,265.9z"/>
	<path id="Path_207" class="st0" d="M246.2,264.6c0-0.5-0.1-1-0.2-1.5c-0.1-0.4-0.4-0.8-0.7-1.2c-0.3-0.3-0.7-0.6-1.1-0.8
		c-0.4-0.2-0.9-0.3-1.4-0.3c-0.5,0-1,0.1-1.4,0.3c-0.8,0.4-1.5,1-1.8,1.9c-0.2,0.4-0.3,0.9-0.3,1.4c0,0.5,0.1,1,0.3,1.5
		c0.2,0.4,0.4,0.8,0.8,1.1c0.3,0.3,0.7,0.6,1.1,0.7c0.5,0.2,0.9,0.3,1.4,0.3c0.5,0,1-0.1,1.5-0.2c0.5-0.1,0.9-0.4,1.2-0.7l-0.8-1.1
		c-0.1,0.1-0.2,0.2-0.4,0.3c-0.1,0.1-0.3,0.2-0.5,0.2c-0.2,0.1-0.3,0.1-0.5,0.1c-0.2,0-0.3,0-0.5,0c-0.5,0-1-0.1-1.4-0.5
		c-0.3-0.3-0.5-0.7-0.6-1.1h5L246.2,264.6z M241.2,263.8c0-0.2,0.1-0.4,0.1-0.5c0.1-0.2,0.2-0.3,0.3-0.5c0.1-0.2,0.3-0.3,0.5-0.4
		c0.2-0.1,0.5-0.1,0.7-0.1c0.3,0,0.5,0,0.7,0.1c0.2,0.1,0.4,0.2,0.5,0.4c0.1,0.1,0.2,0.3,0.3,0.5c0.1,0.2,0.1,0.3,0.1,0.5
		L241.2,263.8z"/>
	<path id="Path_208" class="st0" d="M236.1,265.6l-1.5-4.5H233l-1.5,4.5l-1.3-4.5h-1.8l2,6.8h1.9l1.4-4.6l1.4,4.6h1.9l2-6.8h-1.8
		L236.1,265.6z"/>
</g>
<g id="ws">
	<path id="Path_209" class="st2" d="M7.9,0C3.5,0,0,3.5,0,7.9c0,4.4,3.5,7.9,7.9,8c4.4,0,7.9-3.5,8-7.9c0,0,0,0,0,0
		C15.8,3.6,12.3,0,7.9,0C7.9,0,7.9,0,7.9,0"/>
	<path id="Path_210" class="st3" d="M11.9,8.2c0,1.3-1.1,2.3-2.4,2.3c-0.6,0-1.2-0.3-1.6-0.7l0,0l0,0c-0.4,0.4-1,0.7-1.6,0.7
		c-0.6,0-1.2-0.2-1.7-0.7c-0.4-0.4-0.7-1-0.7-1.6V5.9h1.3v2.3c0,0.2,0.1,0.5,0.3,0.6C5.8,9.1,6,9.2,6.3,9.2c0.3,0,0.5-0.1,0.7-0.3
		c0.2-0.2,0.3-0.4,0.3-0.7V6h1.3v2.3c0,0.3,0.1,0.5,0.3,0.7C9,9,9.1,9.1,9.2,9.1c0.2,0.1,0.5,0.1,0.8,0c0.1-0.1,0.2-0.1,0.3-0.2
		c0.2-0.2,0.3-0.4,0.3-0.7V5.9h1.3L11.9,8.2z"/>
</g>
</svg>
