<?xml version="1.0" encoding="utf-8"?>
<!-- Generator: Adobe Illustrator 23.0.1, SVG Export Plug-In . SVG Version: 6.00 Build 0)  -->
<svg version="1.1" id="youtube_1_" xmlns="http://www.w3.org/2000/svg" xmlns:xlink="http://www.w3.org/1999/xlink" x="0px" y="0px"
	 viewBox="0 0 37.3 26.2" style="enable-background:new 0 0 37.3 26.2;" xml:space="preserve">
<path id="youtube" d="M36.6,4.1c-0.4-1.6-1.7-2.9-3.3-3.3C30.3,0,18.7,0,18.7,0S7,0,4.1,0.8C2.5,1.2,1.2,2.5,0.8,4.1
	C0,7,0,13.2,0,13.2s0,6.1,0.8,9c0.4,1.6,1.7,2.9,3.3,3.3c2.9,0.8,14.6,0.8,14.6,0.8s11.7,0,14.6-0.8c1.6-0.4,2.9-1.7,3.3-3.3
	c0.8-2.9,0.8-9,0.8-9S37.3,7,36.6,4.1z M14.9,18.7V7.6l9.8,5.6L14.9,18.7z"/>
</svg>
