<svg xmlns="http://www.w3.org/2000/svg" width="15.879" height="24.744" viewBox="0 0 15.879 24.744">
  <g id="Group_514" data-name="Group 514" transform="translate(-1006.561 -451.256)">
    <g id="Path_410" data-name="Path 410" transform="translate(1015.561 458)" fill="rgba(40,37,37,0.25)">
      <path d="M 3.439453125 3.750795364379883 C 2.546313047409058 3.750795364379883 1.743253111839294 3.459615468978882 1.178203105926514 2.930885553359985 C 0.5709730982780457 2.362685441970825 0.2500031292438507 1.543305516242981 0.2500031292438507 0.5613354444503784 C 0.2500031292438507 -0.412664532661438 1.006953120231628 -1.474724531173706 1.808343172073364 -2.599144458770752 C 2.443787813186646 -3.490733861923218 3.094195604324341 -4.403347969055176 3.439055204391479 -5.360167026519775 C 3.783251523971558 -4.392792701721191 4.433284759521484 -3.494689702987671 5.06829309463501 -2.617334604263306 C 5.870852947235107 -1.508484482765198 6.628902912139893 -0.4611245393753052 6.628902912139893 0.5613354444503784 C 6.628902912139893 1.57722544670105 6.308573246002197 2.407995462417603 5.70253324508667 2.963835477828979 C 5.141202926635742 3.478665351867676 4.358643054962158 3.750795364379883 3.439453125 3.750795364379883 Z" stroke="none"/>
      <path d="M 3.437971353530884 -4.711822032928467 C 3.065500020980835 -3.932278871536255 2.533811092376709 -3.186300992965698 2.011923313140869 -2.454044580459595 C 1.234403133392334 -1.363114595413208 0.5000033378601074 -0.3326845169067383 0.5000033378601074 0.561335563659668 C 0.5000033378601074 2.346985340118408 1.65380334854126 3.500795364379883 3.439453125 3.500795364379883 C 4.29499340057373 3.500795364379883 5.019123077392578 3.251405239105225 5.533553123474121 2.779595375061035 C 6.094483375549316 2.265115261077881 6.378903388977051 1.518795490264893 6.378903388977051 0.561335563659668 C 6.378903388977051 -0.3801445960998535 5.643913269042969 -1.395634531974792 4.86577320098877 -2.470754623413086 C 4.343009471893311 -3.193029403686523 3.810303688049316 -3.929041147232056 3.437971353530884 -4.711822032928467 M 3.439453125 -6.744144439697266 C 3.439802169799805 -6.721766471862793 3.43990159034729 -6.699539184570312 3.439754962921143 -6.677193641662598 C 3.439428329467773 -6.699466228485107 3.43932580947876 -6.721804618835449 3.439453125 -6.744144439697266 Z M 3.439754962921143 -6.677193641662598 C 3.47965145111084 -3.95570707321167 6.878902912139893 -1.731926202774048 6.878902912139893 0.561335563659668 C 6.878902912139893 2.87336540222168 5.33901309967041 4.000795364379883 3.439453125 4.000795364379883 C 1.53989315032959 4.000795364379883 3.337860107421875e-06 2.780975341796875 3.337860107421875e-06 0.561335563659668 C 3.337860107421875e-06 -1.639598965644836 3.422492504119873 -4.046525955200195 3.439754962921143 -6.677193641662598 Z" stroke="none" fill="#232120"/>
    </g>
    <g id="Path_411" data-name="Path 411" transform="translate(1006.561 465)" fill="rgba(40,37,37,0.5)">
      <path d="M 3.439453125 3.750795364379883 C 2.546313047409058 3.750795364379883 1.743253111839294 3.459615468978882 1.178203105926514 2.930885553359985 C 0.5709730982780457 2.362685441970825 0.2500031292438507 1.543305516242981 0.2500031292438507 0.5613354444503784 C 0.2500031292438507 -0.412664532661438 1.006953120231628 -1.474724531173706 1.808343172073364 -2.599144458770752 C 2.443787813186646 -3.490733861923218 3.094195604324341 -4.403347969055176 3.439055204391479 -5.360167026519775 C 3.783251523971558 -4.392792701721191 4.433284759521484 -3.494689702987671 5.06829309463501 -2.617334604263306 C 5.870852947235107 -1.508484482765198 6.628902912139893 -0.4611245393753052 6.628902912139893 0.5613354444503784 C 6.628902912139893 1.57722544670105 6.308573246002197 2.407995462417603 5.70253324508667 2.963835477828979 C 5.141202926635742 3.478665351867676 4.358643054962158 3.750795364379883 3.439453125 3.750795364379883 Z" stroke="none"/>
      <path d="M 3.437971353530884 -4.711822032928467 C 3.065500020980835 -3.932278871536255 2.533811092376709 -3.186300992965698 2.011923313140869 -2.454044580459595 C 1.234403133392334 -1.363114595413208 0.5000033378601074 -0.3326845169067383 0.5000033378601074 0.561335563659668 C 0.5000033378601074 2.346985340118408 1.65380334854126 3.500795364379883 3.439453125 3.500795364379883 C 4.29499340057373 3.500795364379883 5.019123077392578 3.251405239105225 5.533553123474121 2.779595375061035 C 6.094483375549316 2.265115261077881 6.378903388977051 1.518795490264893 6.378903388977051 0.561335563659668 C 6.378903388977051 -0.3801445960998535 5.643913269042969 -1.395634531974792 4.86577320098877 -2.470754623413086 C 4.343009471893311 -3.193029403686523 3.810303688049316 -3.929041147232056 3.437971353530884 -4.711822032928467 M 3.439453125 -6.744144439697266 C 3.439802169799805 -6.721766471862793 3.43990159034729 -6.699539184570312 3.439754962921143 -6.677193641662598 C 3.439428329467773 -6.699466228485107 3.43932580947876 -6.721804618835449 3.439453125 -6.744144439697266 Z M 3.439754962921143 -6.677193641662598 C 3.47965145111084 -3.95570707321167 6.878902912139893 -1.731926202774048 6.878902912139893 0.561335563659668 C 6.878902912139893 2.87336540222168 5.33901309967041 4.000795364379883 3.439453125 4.000795364379883 C 1.53989315032959 4.000795364379883 3.337860107421875e-06 2.780975341796875 3.337860107421875e-06 0.561335563659668 C 3.337860107421875e-06 -1.639598965644836 3.422492504119873 -4.046525955200195 3.439754962921143 -6.677193641662598 Z" stroke="none" fill="#232120"/>
    </g>
    <g id="Path_412" data-name="Path 412" transform="translate(1015.561 472)" fill="rgba(40,37,37,0.75)">
      <path d="M 3.439453125 3.750795364379883 C 2.546313047409058 3.750795364379883 1.743253111839294 3.459615468978882 1.178203105926514 2.930885553359985 C 0.5709730982780457 2.362685441970825 0.2500031292438507 1.543305516242981 0.2500031292438507 0.5613354444503784 C 0.2500031292438507 -0.412664532661438 1.006953120231628 -1.474724531173706 1.808343172073364 -2.599144458770752 C 2.443787813186646 -3.490733861923218 3.094195604324341 -4.403347969055176 3.439055204391479 -5.360167026519775 C 3.783251523971558 -4.392792701721191 4.433284759521484 -3.494689702987671 5.06829309463501 -2.617334604263306 C 5.870852947235107 -1.508484482765198 6.628902912139893 -0.4611245393753052 6.628902912139893 0.5613354444503784 C 6.628902912139893 1.57722544670105 6.308573246002197 2.407995462417603 5.70253324508667 2.963835477828979 C 5.141202926635742 3.478665351867676 4.358643054962158 3.750795364379883 3.439453125 3.750795364379883 Z" stroke="none"/>
      <path d="M 3.437971353530884 -4.711822032928467 C 3.065500020980835 -3.932278871536255 2.533811092376709 -3.186300992965698 2.011923313140869 -2.454044580459595 C 1.234403133392334 -1.363114595413208 0.5000033378601074 -0.3326845169067383 0.5000033378601074 0.561335563659668 C 0.5000033378601074 2.346985340118408 1.65380334854126 3.500795364379883 3.439453125 3.500795364379883 C 4.29499340057373 3.500795364379883 5.019123077392578 3.251405239105225 5.533553123474121 2.779595375061035 C 6.094483375549316 2.265115261077881 6.378903388977051 1.518795490264893 6.378903388977051 0.561335563659668 C 6.378903388977051 -0.3801445960998535 5.643913269042969 -1.395634531974792 4.86577320098877 -2.470754623413086 C 4.343009471893311 -3.193029403686523 3.810303688049316 -3.929041147232056 3.437971353530884 -4.711822032928467 M 3.439453125 -6.744144439697266 C 3.439802169799805 -6.721766471862793 3.43990159034729 -6.699539184570312 3.439754962921143 -6.677193641662598 C 3.439428329467773 -6.699466228485107 3.43932580947876 -6.721804618835449 3.439453125 -6.744144439697266 Z M 3.439754962921143 -6.677193641662598 C 3.47965145111084 -3.95570707321167 6.878902912139893 -1.731926202774048 6.878902912139893 0.561335563659668 C 6.878902912139893 2.87336540222168 5.33901309967041 4.000795364379883 3.439453125 4.000795364379883 C 1.53989315032959 4.000795364379883 3.337860107421875e-06 2.780975341796875 3.337860107421875e-06 0.561335563659668 C 3.337860107421875e-06 -1.639598965644836 3.422492504119873 -4.046525955200195 3.439754962921143 -6.677193641662598 Z" stroke="none" fill="#232120"/>
    </g>
  </g>
</svg>
