<?xml version="1.0" encoding="utf-8"?>
<!-- Generator: Adobe Illustrator 23.0.1, SVG Export Plug-In . SVG Version: 6.00 Build 0)  -->
<svg version="1.1" id="Layer_1" xmlns="http://www.w3.org/2000/svg" xmlns:xlink="http://www.w3.org/1999/xlink" x="0px" y="0px"
	 viewBox="0 0 70 70" style="enable-background:new 0 0 70 70;" xml:space="preserve">
<style type="text/css">
	.st0{fill:none;}
	.st1{fill:#232120;}
	.st2{opacity:0.25;}
	.st3{opacity:0.5;fill:#282525;}
	.st4{opacity:0.75;fill:#282525;}
	.st5{fill:#282525;}
</style>
<g id="Group_296" transform="translate(-1321.299 -356)">
	<g id="Ellipse_46" transform="translate(1321.299 356)">
		<circle class="st0" cx="35" cy="35" r="35"/>
		<path class="st1" d="M35,70C15.7,70,0,54.3,0,35S15.7,0,35,0s35,15.7,35,35S54.3,70,35,70z M35,1.9C16.8,1.9,1.9,16.8,1.9,35
			S16.8,68.1,35,68.1S68.1,53.2,68.1,35S53.2,1.9,35,1.9z"/>
	</g>
</g>
<g id="Group_514" transform="translate(-1006.561 -451.256)">
	<g id="Path_410" transform="translate(1015.561 458)">
		<path class="st2" d="M31.8,23.6c-1.7,0-3.3-0.6-4.4-1.6c-1.2-1.1-1.8-2.7-1.8-4.6c0-1.9,1.5-4,3-6.1c1.2-1.7,2.5-3.5,3.2-5.4
			c0.7,1.9,1.9,3.6,3.2,5.3c1.6,2.2,3,4.2,3,6.2c0,2-0.6,3.6-1.8,4.7C35.1,23.1,33.5,23.6,31.8,23.6z"/>
		<path class="st1" d="M31.7,7.2c-0.7,1.5-1.8,3-2.8,4.4c-1.5,2.1-2.9,4.1-2.9,5.9c0,3.5,2.2,5.7,5.7,5.7c1.7,0,3.1-0.5,4.1-1.4
			c1.1-1,1.6-2.5,1.6-4.3c0-1.8-1.4-3.8-2.9-5.9C33.5,10.1,32.5,8.7,31.7,7.2 M31.8,3.2c0,0,0,0.1,0,0.1C31.7,3.3,31.7,3.2,31.8,3.2
			z M31.8,3.3c0.1,5.3,6.7,9.6,6.7,14.1c0,4.5-3,6.7-6.7,6.7s-6.7-2.4-6.7-6.7C25.1,13.1,31.7,8.4,31.8,3.3z"/>
	</g>
	<g id="Path_411" transform="translate(1006.561 465)">
		<path class="st3" d="M23.2,30.2c-1.7,0-3.3-0.6-4.4-1.6C17.7,27.5,17,25.9,17,24c0-1.9,1.5-4,3-6.1c1.2-1.7,2.5-3.5,3.2-5.4
			c0.7,1.9,1.9,3.6,3.2,5.3c1.6,2.2,3,4.2,3,6.2c0,2-0.6,3.6-1.8,4.7C26.6,29.7,25,30.2,23.2,30.2z"/>
		<path class="st1" d="M23.2,13.8c-0.7,1.5-1.8,3-2.8,4.4c-1.5,2.1-2.9,4.1-2.9,5.9c0,3.5,2.2,5.7,5.7,5.7c1.7,0,3.1-0.5,4.1-1.4
			c1.1-1,1.6-2.5,1.6-4.3c0-1.8-1.4-3.8-2.9-5.9C25,16.7,24,15.3,23.2,13.8 M23.2,9.8c0,0,0,0.1,0,0.1C23.2,9.9,23.2,9.9,23.2,9.8z
			 M23.3,9.9c0.1,5.3,6.7,9.6,6.7,14.1c0,4.5-3,6.7-6.7,6.7s-6.7-2.4-6.7-6.7C16.6,19.7,23.2,15.1,23.3,9.9z"/>
	</g>
	<g id="Path_412" transform="translate(1015.561 472)">
		<path class="st4" d="M31.8,36.8c-1.7,0-3.3-0.6-4.4-1.6c-1.2-1.1-1.8-2.7-1.8-4.6c0-1.9,1.5-4,3-6.1c1.2-1.7,2.5-3.5,3.2-5.4
			c0.7,1.9,1.9,3.6,3.2,5.3c1.6,2.2,3,4.2,3,6.2c0,2-0.6,3.6-1.8,4.7C35.1,36.3,33.5,36.8,31.8,36.8z"/>
		<path class="st5" d="M31.7,20.4c-0.7,1.5-1.8,3-2.8,4.4c-1.5,2.1-2.9,4.1-2.9,5.9c0,3.5,2.2,5.7,5.7,5.7c1.7,0,3.1-0.5,4.1-1.4
			c1.1-1,1.6-2.5,1.6-4.3c0-1.8-1.4-3.8-2.9-5.9C33.5,23.3,32.5,21.9,31.7,20.4 M31.8,16.4c0,0,0,0.1,0,0.1
			C31.7,16.5,31.7,16.5,31.8,16.4z M31.8,16.6c0.1,5.3,6.7,9.6,6.7,14.1c0,4.5-3,6.7-6.7,6.7s-6.7-2.4-6.7-6.7
			C25.1,26.3,31.7,21.7,31.8,16.6z"/>
	</g>
</g>
</svg>
