<svg xmlns="http://www.w3.org/2000/svg" width="24" height="21" viewBox="0 0 24 21">
  <g id="Group_445" data-name="Group 445" transform="translate(-789 -454.486)">
    <path id="Union_20" data-name="Union 20" d="M1.56,5V1.54l-.947.87L0,1.84,2,0,4,1.84l-.616.569-.949-.871V5Z" transform="translate(802.988 459.986) rotate(180)" fill="#161615" stroke="rgba(0,0,0,0)" stroke-width="1"/>
    <path id="Union_21" data-name="Union 21" d="M1.56,5V1.54l-.947.87L0,1.84,2,0,4,1.84l-.616.569-.949-.871V5Z" transform="translate(798.994 469.985)" fill="#161615" stroke="rgba(0,0,0,0)" stroke-width="1"/>
    <path id="Union_19" data-name="Union 19" d="M1.558,5V1.542l-.944.867L0,1.84,2,0,4,1.84l-.618.569-.947-.871V5Z" transform="translate(795.988 459.986) rotate(180)" fill="#161615" stroke="rgba(0,0,0,0)" stroke-width="1"/>
    <path id="Union_22" data-name="Union 22" d="M1.558,5V1.542l-.944.867L0,1.84,2,0,4,1.84l-.618.569-.947-.871V5Z" transform="translate(805.994 469.985)" fill="#161615" stroke="rgba(0,0,0,0)" stroke-width="1"/>
    <path id="Union_18" data-name="Union 18" d="M1.563,5V1.539l-.944.868L0,1.837,2,0,4,1.837l-.618.569-.945-.87V5Z" transform="translate(809.992 459.984) rotate(180)" fill="#161615" stroke="rgba(0,0,0,0)" stroke-width="1"/>
    <path id="Union_23" data-name="Union 23" d="M1.563,5V1.539l-.944.868L0,1.837,2,0,4,1.837l-.618.569-.945-.87V5Z" transform="translate(791.99 469.987)" fill="#161615" stroke="rgba(0,0,0,0)" stroke-width="1"/>
    <rect id="Rectangle_943" data-name="Rectangle 943" width="1" height="24" transform="translate(813 464.278) rotate(90)" fill="#161615"/>
  </g>
</svg>
