<svg xmlns="http://www.w3.org/2000/svg" xmlns:xlink="http://www.w3.org/1999/xlink" width="36" height="36" viewBox="0 0 36 36">
  <defs>
    <clipPath id="clip-path">
      <circle id="Ellipse_62" data-name="Ellipse 62" cx="18" cy="18" r="18" transform="translate(1104.049 447)" fill="none" stroke="#232120" stroke-width="1"/>
    </clipPath>
    <clipPath id="clip-path-2">
      <rect width="48.396" height="36.997" fill="none"/>
    </clipPath>
  </defs>
  <g id="Mask_Group_26" data-name="Mask Group 26" transform="translate(-1104.049 -447)" clip-path="url(#clip-path)">
    <g id="Repeat_Grid_8" data-name="Repeat Grid 8" transform="translate(1097.8 447.2)" clip-path="url(#clip-path-2)">
      <g transform="translate(-1113.8 -452.2)">
        <path id="Path_413" data-name="Path 413" d="M759.064,542.1l.707.546a1.378,1.378,0,0,0,.841.265,1.485,1.485,0,0,0,.86-.261,1.117,1.117,0,0,1,.637-.189,1,1,0,0,1,.607.185,1.381,1.381,0,0,0,.842.265,1.485,1.485,0,0,0,.86-.261,1.115,1.115,0,0,1,.637-.189,1,1,0,0,1,.607.185,1.379,1.379,0,0,0,.842.265,1.487,1.487,0,0,0,.86-.261,1.115,1.115,0,0,1,.637-.189,1,1,0,0,1,.607.185,1.378,1.378,0,0,0,.841.265,1.485,1.485,0,0,0,.86-.261,1.117,1.117,0,0,1,.637-.189,1,1,0,0,1,.607.185,1.381,1.381,0,0,0,.842.265,1.485,1.485,0,0,0,.86-.261,1.115,1.115,0,0,1,.637-.189,1,1,0,0,1,.607.185,1.379,1.379,0,0,0,.842.265,1.487,1.487,0,0,0,.86-.261,1.115,1.115,0,0,1,.637-.189,1,1,0,0,1,.607.185,1.378,1.378,0,0,0,.841.265,1.485,1.485,0,0,0,.86-.261,1.118,1.118,0,0,1,.638-.189,1,1,0,0,1,.606.185,1.383,1.383,0,0,0,.842.265,1.485,1.485,0,0,0,.86-.261,1.115,1.115,0,0,1,.637-.189,1,1,0,0,1,.607.185,1.379,1.379,0,0,0,.842.265,1.487,1.487,0,0,0,.86-.261,1.115,1.115,0,0,1,.637-.189,1,1,0,0,1,.607.185,1.378,1.378,0,0,0,.841.265,1.485,1.485,0,0,0,.86-.261,1.118,1.118,0,0,1,.638-.189,1,1,0,0,1,.606.185,1.383,1.383,0,0,0,.842.265,1.485,1.485,0,0,0,.86-.261,1.115,1.115,0,0,1,.637-.189,1,1,0,0,1,.607.185,1.379,1.379,0,0,0,.842.265,1.487,1.487,0,0,0,.86-.261,1.115,1.115,0,0,1,.637-.189,1,1,0,0,1,.607.185l.707.546.235-.3-.707-.546a1.383,1.383,0,0,0-.842-.265,1.484,1.484,0,0,0-.86.261,1.107,1.107,0,0,1-.637.189,1,1,0,0,1-.607-.185,1.379,1.379,0,0,0-.842-.265,1.486,1.486,0,0,0-.86.261,1.107,1.107,0,0,1-.637.189,1,1,0,0,1-.607-.185,1.378,1.378,0,0,0-.841-.265,1.487,1.487,0,0,0-.861.261,1.105,1.105,0,0,1-.637.189,1,1,0,0,1-.607-.185,1.378,1.378,0,0,0-.841-.265,1.484,1.484,0,0,0-.86.261,1.107,1.107,0,0,1-.637.189,1,1,0,0,1-.607-.185,1.379,1.379,0,0,0-.842-.265,1.486,1.486,0,0,0-.86.261,1.107,1.107,0,0,1-.637.189,1,1,0,0,1-.607-.185,1.378,1.378,0,0,0-.841-.265,1.487,1.487,0,0,0-.861.261,1.1,1.1,0,0,1-.637.189,1,1,0,0,1-.606-.185,1.383,1.383,0,0,0-.842-.265,1.484,1.484,0,0,0-.86.261,1.107,1.107,0,0,1-.637.189,1,1,0,0,1-.607-.185,1.379,1.379,0,0,0-.842-.265,1.487,1.487,0,0,0-.86.261,1.107,1.107,0,0,1-.637.189,1,1,0,0,1-.607-.185,1.379,1.379,0,0,0-.842-.265,1.486,1.486,0,0,0-.86.261,1.1,1.1,0,0,1-.637.189,1,1,0,0,1-.607-.185,1.378,1.378,0,0,0-.841-.265,1.484,1.484,0,0,0-.86.261,1.107,1.107,0,0,1-.637.189,1,1,0,0,1-.607-.185,1.379,1.379,0,0,0-.842-.265,1.486,1.486,0,0,0-.86.261,1.107,1.107,0,0,1-.637.189,1,1,0,0,1-.607-.185,1.379,1.379,0,0,0-.842-.265,1.486,1.486,0,0,0-.86.261,1.105,1.105,0,0,1-.637.189,1,1,0,0,1-.607-.185l-.706-.546-.235.3" transform="translate(571.999 1248.261) rotate(-90)" fill="#161615"/>
      </g>
      <g transform="translate(-1111.8 -452.2)">
        <path id="Path_413-2" data-name="Path 413" d="M759.064,542.1l.707.546a1.378,1.378,0,0,0,.841.265,1.485,1.485,0,0,0,.86-.261,1.117,1.117,0,0,1,.637-.189,1,1,0,0,1,.607.185,1.381,1.381,0,0,0,.842.265,1.485,1.485,0,0,0,.86-.261,1.115,1.115,0,0,1,.637-.189,1,1,0,0,1,.607.185,1.379,1.379,0,0,0,.842.265,1.487,1.487,0,0,0,.86-.261,1.115,1.115,0,0,1,.637-.189,1,1,0,0,1,.607.185,1.378,1.378,0,0,0,.841.265,1.485,1.485,0,0,0,.86-.261,1.117,1.117,0,0,1,.637-.189,1,1,0,0,1,.607.185,1.381,1.381,0,0,0,.842.265,1.485,1.485,0,0,0,.86-.261,1.115,1.115,0,0,1,.637-.189,1,1,0,0,1,.607.185,1.379,1.379,0,0,0,.842.265,1.487,1.487,0,0,0,.86-.261,1.115,1.115,0,0,1,.637-.189,1,1,0,0,1,.607.185,1.378,1.378,0,0,0,.841.265,1.485,1.485,0,0,0,.86-.261,1.118,1.118,0,0,1,.638-.189,1,1,0,0,1,.606.185,1.383,1.383,0,0,0,.842.265,1.485,1.485,0,0,0,.86-.261,1.115,1.115,0,0,1,.637-.189,1,1,0,0,1,.607.185,1.379,1.379,0,0,0,.842.265,1.487,1.487,0,0,0,.86-.261,1.115,1.115,0,0,1,.637-.189,1,1,0,0,1,.607.185,1.378,1.378,0,0,0,.841.265,1.485,1.485,0,0,0,.86-.261,1.118,1.118,0,0,1,.638-.189,1,1,0,0,1,.606.185,1.383,1.383,0,0,0,.842.265,1.485,1.485,0,0,0,.86-.261,1.115,1.115,0,0,1,.637-.189,1,1,0,0,1,.607.185,1.379,1.379,0,0,0,.842.265,1.487,1.487,0,0,0,.86-.261,1.115,1.115,0,0,1,.637-.189,1,1,0,0,1,.607.185l.707.546.235-.3-.707-.546a1.383,1.383,0,0,0-.842-.265,1.484,1.484,0,0,0-.86.261,1.107,1.107,0,0,1-.637.189,1,1,0,0,1-.607-.185,1.379,1.379,0,0,0-.842-.265,1.486,1.486,0,0,0-.86.261,1.107,1.107,0,0,1-.637.189,1,1,0,0,1-.607-.185,1.378,1.378,0,0,0-.841-.265,1.487,1.487,0,0,0-.861.261,1.105,1.105,0,0,1-.637.189,1,1,0,0,1-.607-.185,1.378,1.378,0,0,0-.841-.265,1.484,1.484,0,0,0-.86.261,1.107,1.107,0,0,1-.637.189,1,1,0,0,1-.607-.185,1.379,1.379,0,0,0-.842-.265,1.486,1.486,0,0,0-.86.261,1.107,1.107,0,0,1-.637.189,1,1,0,0,1-.607-.185,1.378,1.378,0,0,0-.841-.265,1.487,1.487,0,0,0-.861.261,1.1,1.1,0,0,1-.637.189,1,1,0,0,1-.606-.185,1.383,1.383,0,0,0-.842-.265,1.484,1.484,0,0,0-.86.261,1.107,1.107,0,0,1-.637.189,1,1,0,0,1-.607-.185,1.379,1.379,0,0,0-.842-.265,1.487,1.487,0,0,0-.86.261,1.107,1.107,0,0,1-.637.189,1,1,0,0,1-.607-.185,1.379,1.379,0,0,0-.842-.265,1.486,1.486,0,0,0-.86.261,1.1,1.1,0,0,1-.637.189,1,1,0,0,1-.607-.185,1.378,1.378,0,0,0-.841-.265,1.484,1.484,0,0,0-.86.261,1.107,1.107,0,0,1-.637.189,1,1,0,0,1-.607-.185,1.379,1.379,0,0,0-.842-.265,1.486,1.486,0,0,0-.86.261,1.107,1.107,0,0,1-.637.189,1,1,0,0,1-.607-.185,1.379,1.379,0,0,0-.842-.265,1.486,1.486,0,0,0-.86.261,1.105,1.105,0,0,1-.637.189,1,1,0,0,1-.607-.185l-.706-.546-.235.3" transform="translate(571.999 1248.261) rotate(-90)" fill="#161615"/>
      </g>
      <g transform="translate(-1109.8 -452.2)">
        <path id="Path_413-3" data-name="Path 413" d="M759.064,542.1l.707.546a1.378,1.378,0,0,0,.841.265,1.485,1.485,0,0,0,.86-.261,1.117,1.117,0,0,1,.637-.189,1,1,0,0,1,.607.185,1.381,1.381,0,0,0,.842.265,1.485,1.485,0,0,0,.86-.261,1.115,1.115,0,0,1,.637-.189,1,1,0,0,1,.607.185,1.379,1.379,0,0,0,.842.265,1.487,1.487,0,0,0,.86-.261,1.115,1.115,0,0,1,.637-.189,1,1,0,0,1,.607.185,1.378,1.378,0,0,0,.841.265,1.485,1.485,0,0,0,.86-.261,1.117,1.117,0,0,1,.637-.189,1,1,0,0,1,.607.185,1.381,1.381,0,0,0,.842.265,1.485,1.485,0,0,0,.86-.261,1.115,1.115,0,0,1,.637-.189,1,1,0,0,1,.607.185,1.379,1.379,0,0,0,.842.265,1.487,1.487,0,0,0,.86-.261,1.115,1.115,0,0,1,.637-.189,1,1,0,0,1,.607.185,1.378,1.378,0,0,0,.841.265,1.485,1.485,0,0,0,.86-.261,1.118,1.118,0,0,1,.638-.189,1,1,0,0,1,.606.185,1.383,1.383,0,0,0,.842.265,1.485,1.485,0,0,0,.86-.261,1.115,1.115,0,0,1,.637-.189,1,1,0,0,1,.607.185,1.379,1.379,0,0,0,.842.265,1.487,1.487,0,0,0,.86-.261,1.115,1.115,0,0,1,.637-.189,1,1,0,0,1,.607.185,1.378,1.378,0,0,0,.841.265,1.485,1.485,0,0,0,.86-.261,1.118,1.118,0,0,1,.638-.189,1,1,0,0,1,.606.185,1.383,1.383,0,0,0,.842.265,1.485,1.485,0,0,0,.86-.261,1.115,1.115,0,0,1,.637-.189,1,1,0,0,1,.607.185,1.379,1.379,0,0,0,.842.265,1.487,1.487,0,0,0,.86-.261,1.115,1.115,0,0,1,.637-.189,1,1,0,0,1,.607.185l.707.546.235-.3-.707-.546a1.383,1.383,0,0,0-.842-.265,1.484,1.484,0,0,0-.86.261,1.107,1.107,0,0,1-.637.189,1,1,0,0,1-.607-.185,1.379,1.379,0,0,0-.842-.265,1.486,1.486,0,0,0-.86.261,1.107,1.107,0,0,1-.637.189,1,1,0,0,1-.607-.185,1.378,1.378,0,0,0-.841-.265,1.487,1.487,0,0,0-.861.261,1.105,1.105,0,0,1-.637.189,1,1,0,0,1-.607-.185,1.378,1.378,0,0,0-.841-.265,1.484,1.484,0,0,0-.86.261,1.107,1.107,0,0,1-.637.189,1,1,0,0,1-.607-.185,1.379,1.379,0,0,0-.842-.265,1.486,1.486,0,0,0-.86.261,1.107,1.107,0,0,1-.637.189,1,1,0,0,1-.607-.185,1.378,1.378,0,0,0-.841-.265,1.487,1.487,0,0,0-.861.261,1.1,1.1,0,0,1-.637.189,1,1,0,0,1-.606-.185,1.383,1.383,0,0,0-.842-.265,1.484,1.484,0,0,0-.86.261,1.107,1.107,0,0,1-.637.189,1,1,0,0,1-.607-.185,1.379,1.379,0,0,0-.842-.265,1.487,1.487,0,0,0-.86.261,1.107,1.107,0,0,1-.637.189,1,1,0,0,1-.607-.185,1.379,1.379,0,0,0-.842-.265,1.486,1.486,0,0,0-.86.261,1.1,1.1,0,0,1-.637.189,1,1,0,0,1-.607-.185,1.378,1.378,0,0,0-.841-.265,1.484,1.484,0,0,0-.86.261,1.107,1.107,0,0,1-.637.189,1,1,0,0,1-.607-.185,1.379,1.379,0,0,0-.842-.265,1.486,1.486,0,0,0-.86.261,1.107,1.107,0,0,1-.637.189,1,1,0,0,1-.607-.185,1.379,1.379,0,0,0-.842-.265,1.486,1.486,0,0,0-.86.261,1.105,1.105,0,0,1-.637.189,1,1,0,0,1-.607-.185l-.706-.546-.235.3" transform="translate(571.999 1248.261) rotate(-90)" fill="#161615"/>
      </g>
      <g transform="translate(-1107.8 -452.2)">
        <path id="Path_413-4" data-name="Path 413" d="M759.064,542.1l.707.546a1.378,1.378,0,0,0,.841.265,1.485,1.485,0,0,0,.86-.261,1.117,1.117,0,0,1,.637-.189,1,1,0,0,1,.607.185,1.381,1.381,0,0,0,.842.265,1.485,1.485,0,0,0,.86-.261,1.115,1.115,0,0,1,.637-.189,1,1,0,0,1,.607.185,1.379,1.379,0,0,0,.842.265,1.487,1.487,0,0,0,.86-.261,1.115,1.115,0,0,1,.637-.189,1,1,0,0,1,.607.185,1.378,1.378,0,0,0,.841.265,1.485,1.485,0,0,0,.86-.261,1.117,1.117,0,0,1,.637-.189,1,1,0,0,1,.607.185,1.381,1.381,0,0,0,.842.265,1.485,1.485,0,0,0,.86-.261,1.115,1.115,0,0,1,.637-.189,1,1,0,0,1,.607.185,1.379,1.379,0,0,0,.842.265,1.487,1.487,0,0,0,.86-.261,1.115,1.115,0,0,1,.637-.189,1,1,0,0,1,.607.185,1.378,1.378,0,0,0,.841.265,1.485,1.485,0,0,0,.86-.261,1.118,1.118,0,0,1,.638-.189,1,1,0,0,1,.606.185,1.383,1.383,0,0,0,.842.265,1.485,1.485,0,0,0,.86-.261,1.115,1.115,0,0,1,.637-.189,1,1,0,0,1,.607.185,1.379,1.379,0,0,0,.842.265,1.487,1.487,0,0,0,.86-.261,1.115,1.115,0,0,1,.637-.189,1,1,0,0,1,.607.185,1.378,1.378,0,0,0,.841.265,1.485,1.485,0,0,0,.86-.261,1.118,1.118,0,0,1,.638-.189,1,1,0,0,1,.606.185,1.383,1.383,0,0,0,.842.265,1.485,1.485,0,0,0,.86-.261,1.115,1.115,0,0,1,.637-.189,1,1,0,0,1,.607.185,1.379,1.379,0,0,0,.842.265,1.487,1.487,0,0,0,.86-.261,1.115,1.115,0,0,1,.637-.189,1,1,0,0,1,.607.185l.707.546.235-.3-.707-.546a1.383,1.383,0,0,0-.842-.265,1.484,1.484,0,0,0-.86.261,1.107,1.107,0,0,1-.637.189,1,1,0,0,1-.607-.185,1.379,1.379,0,0,0-.842-.265,1.486,1.486,0,0,0-.86.261,1.107,1.107,0,0,1-.637.189,1,1,0,0,1-.607-.185,1.378,1.378,0,0,0-.841-.265,1.487,1.487,0,0,0-.861.261,1.105,1.105,0,0,1-.637.189,1,1,0,0,1-.607-.185,1.378,1.378,0,0,0-.841-.265,1.484,1.484,0,0,0-.86.261,1.107,1.107,0,0,1-.637.189,1,1,0,0,1-.607-.185,1.379,1.379,0,0,0-.842-.265,1.486,1.486,0,0,0-.86.261,1.107,1.107,0,0,1-.637.189,1,1,0,0,1-.607-.185,1.378,1.378,0,0,0-.841-.265,1.487,1.487,0,0,0-.861.261,1.1,1.1,0,0,1-.637.189,1,1,0,0,1-.606-.185,1.383,1.383,0,0,0-.842-.265,1.484,1.484,0,0,0-.86.261,1.107,1.107,0,0,1-.637.189,1,1,0,0,1-.607-.185,1.379,1.379,0,0,0-.842-.265,1.487,1.487,0,0,0-.86.261,1.107,1.107,0,0,1-.637.189,1,1,0,0,1-.607-.185,1.379,1.379,0,0,0-.842-.265,1.486,1.486,0,0,0-.86.261,1.1,1.1,0,0,1-.637.189,1,1,0,0,1-.607-.185,1.378,1.378,0,0,0-.841-.265,1.484,1.484,0,0,0-.86.261,1.107,1.107,0,0,1-.637.189,1,1,0,0,1-.607-.185,1.379,1.379,0,0,0-.842-.265,1.486,1.486,0,0,0-.86.261,1.107,1.107,0,0,1-.637.189,1,1,0,0,1-.607-.185,1.379,1.379,0,0,0-.842-.265,1.486,1.486,0,0,0-.86.261,1.105,1.105,0,0,1-.637.189,1,1,0,0,1-.607-.185l-.706-.546-.235.3" transform="translate(571.999 1248.261) rotate(-90)" fill="#161615"/>
      </g>
      <g transform="translate(-1105.8 -452.2)">
        <path id="Path_413-5" data-name="Path 413" d="M759.064,542.1l.707.546a1.378,1.378,0,0,0,.841.265,1.485,1.485,0,0,0,.86-.261,1.117,1.117,0,0,1,.637-.189,1,1,0,0,1,.607.185,1.381,1.381,0,0,0,.842.265,1.485,1.485,0,0,0,.86-.261,1.115,1.115,0,0,1,.637-.189,1,1,0,0,1,.607.185,1.379,1.379,0,0,0,.842.265,1.487,1.487,0,0,0,.86-.261,1.115,1.115,0,0,1,.637-.189,1,1,0,0,1,.607.185,1.378,1.378,0,0,0,.841.265,1.485,1.485,0,0,0,.86-.261,1.117,1.117,0,0,1,.637-.189,1,1,0,0,1,.607.185,1.381,1.381,0,0,0,.842.265,1.485,1.485,0,0,0,.86-.261,1.115,1.115,0,0,1,.637-.189,1,1,0,0,1,.607.185,1.379,1.379,0,0,0,.842.265,1.487,1.487,0,0,0,.86-.261,1.115,1.115,0,0,1,.637-.189,1,1,0,0,1,.607.185,1.378,1.378,0,0,0,.841.265,1.485,1.485,0,0,0,.86-.261,1.118,1.118,0,0,1,.638-.189,1,1,0,0,1,.606.185,1.383,1.383,0,0,0,.842.265,1.485,1.485,0,0,0,.86-.261,1.115,1.115,0,0,1,.637-.189,1,1,0,0,1,.607.185,1.379,1.379,0,0,0,.842.265,1.487,1.487,0,0,0,.86-.261,1.115,1.115,0,0,1,.637-.189,1,1,0,0,1,.607.185,1.378,1.378,0,0,0,.841.265,1.485,1.485,0,0,0,.86-.261,1.118,1.118,0,0,1,.638-.189,1,1,0,0,1,.606.185,1.383,1.383,0,0,0,.842.265,1.485,1.485,0,0,0,.86-.261,1.115,1.115,0,0,1,.637-.189,1,1,0,0,1,.607.185,1.379,1.379,0,0,0,.842.265,1.487,1.487,0,0,0,.86-.261,1.115,1.115,0,0,1,.637-.189,1,1,0,0,1,.607.185l.707.546.235-.3-.707-.546a1.383,1.383,0,0,0-.842-.265,1.484,1.484,0,0,0-.86.261,1.107,1.107,0,0,1-.637.189,1,1,0,0,1-.607-.185,1.379,1.379,0,0,0-.842-.265,1.486,1.486,0,0,0-.86.261,1.107,1.107,0,0,1-.637.189,1,1,0,0,1-.607-.185,1.378,1.378,0,0,0-.841-.265,1.487,1.487,0,0,0-.861.261,1.105,1.105,0,0,1-.637.189,1,1,0,0,1-.607-.185,1.378,1.378,0,0,0-.841-.265,1.484,1.484,0,0,0-.86.261,1.107,1.107,0,0,1-.637.189,1,1,0,0,1-.607-.185,1.379,1.379,0,0,0-.842-.265,1.486,1.486,0,0,0-.86.261,1.107,1.107,0,0,1-.637.189,1,1,0,0,1-.607-.185,1.378,1.378,0,0,0-.841-.265,1.487,1.487,0,0,0-.861.261,1.1,1.1,0,0,1-.637.189,1,1,0,0,1-.606-.185,1.383,1.383,0,0,0-.842-.265,1.484,1.484,0,0,0-.86.261,1.107,1.107,0,0,1-.637.189,1,1,0,0,1-.607-.185,1.379,1.379,0,0,0-.842-.265,1.487,1.487,0,0,0-.86.261,1.107,1.107,0,0,1-.637.189,1,1,0,0,1-.607-.185,1.379,1.379,0,0,0-.842-.265,1.486,1.486,0,0,0-.86.261,1.1,1.1,0,0,1-.637.189,1,1,0,0,1-.607-.185,1.378,1.378,0,0,0-.841-.265,1.484,1.484,0,0,0-.86.261,1.107,1.107,0,0,1-.637.189,1,1,0,0,1-.607-.185,1.379,1.379,0,0,0-.842-.265,1.486,1.486,0,0,0-.86.261,1.107,1.107,0,0,1-.637.189,1,1,0,0,1-.607-.185,1.379,1.379,0,0,0-.842-.265,1.486,1.486,0,0,0-.86.261,1.105,1.105,0,0,1-.637.189,1,1,0,0,1-.607-.185l-.706-.546-.235.3" transform="translate(571.999 1248.261) rotate(-90)" fill="#161615"/>
      </g>
      <g transform="translate(-1103.8 -452.2)">
        <path id="Path_413-6" data-name="Path 413" d="M759.064,542.1l.707.546a1.378,1.378,0,0,0,.841.265,1.485,1.485,0,0,0,.86-.261,1.117,1.117,0,0,1,.637-.189,1,1,0,0,1,.607.185,1.381,1.381,0,0,0,.842.265,1.485,1.485,0,0,0,.86-.261,1.115,1.115,0,0,1,.637-.189,1,1,0,0,1,.607.185,1.379,1.379,0,0,0,.842.265,1.487,1.487,0,0,0,.86-.261,1.115,1.115,0,0,1,.637-.189,1,1,0,0,1,.607.185,1.378,1.378,0,0,0,.841.265,1.485,1.485,0,0,0,.86-.261,1.117,1.117,0,0,1,.637-.189,1,1,0,0,1,.607.185,1.381,1.381,0,0,0,.842.265,1.485,1.485,0,0,0,.86-.261,1.115,1.115,0,0,1,.637-.189,1,1,0,0,1,.607.185,1.379,1.379,0,0,0,.842.265,1.487,1.487,0,0,0,.86-.261,1.115,1.115,0,0,1,.637-.189,1,1,0,0,1,.607.185,1.378,1.378,0,0,0,.841.265,1.485,1.485,0,0,0,.86-.261,1.118,1.118,0,0,1,.638-.189,1,1,0,0,1,.606.185,1.383,1.383,0,0,0,.842.265,1.485,1.485,0,0,0,.86-.261,1.115,1.115,0,0,1,.637-.189,1,1,0,0,1,.607.185,1.379,1.379,0,0,0,.842.265,1.487,1.487,0,0,0,.86-.261,1.115,1.115,0,0,1,.637-.189,1,1,0,0,1,.607.185,1.378,1.378,0,0,0,.841.265,1.485,1.485,0,0,0,.86-.261,1.118,1.118,0,0,1,.638-.189,1,1,0,0,1,.606.185,1.383,1.383,0,0,0,.842.265,1.485,1.485,0,0,0,.86-.261,1.115,1.115,0,0,1,.637-.189,1,1,0,0,1,.607.185,1.379,1.379,0,0,0,.842.265,1.487,1.487,0,0,0,.86-.261,1.115,1.115,0,0,1,.637-.189,1,1,0,0,1,.607.185l.707.546.235-.3-.707-.546a1.383,1.383,0,0,0-.842-.265,1.484,1.484,0,0,0-.86.261,1.107,1.107,0,0,1-.637.189,1,1,0,0,1-.607-.185,1.379,1.379,0,0,0-.842-.265,1.486,1.486,0,0,0-.86.261,1.107,1.107,0,0,1-.637.189,1,1,0,0,1-.607-.185,1.378,1.378,0,0,0-.841-.265,1.487,1.487,0,0,0-.861.261,1.105,1.105,0,0,1-.637.189,1,1,0,0,1-.607-.185,1.378,1.378,0,0,0-.841-.265,1.484,1.484,0,0,0-.86.261,1.107,1.107,0,0,1-.637.189,1,1,0,0,1-.607-.185,1.379,1.379,0,0,0-.842-.265,1.486,1.486,0,0,0-.86.261,1.107,1.107,0,0,1-.637.189,1,1,0,0,1-.607-.185,1.378,1.378,0,0,0-.841-.265,1.487,1.487,0,0,0-.861.261,1.1,1.1,0,0,1-.637.189,1,1,0,0,1-.606-.185,1.383,1.383,0,0,0-.842-.265,1.484,1.484,0,0,0-.86.261,1.107,1.107,0,0,1-.637.189,1,1,0,0,1-.607-.185,1.379,1.379,0,0,0-.842-.265,1.487,1.487,0,0,0-.86.261,1.107,1.107,0,0,1-.637.189,1,1,0,0,1-.607-.185,1.379,1.379,0,0,0-.842-.265,1.486,1.486,0,0,0-.86.261,1.1,1.1,0,0,1-.637.189,1,1,0,0,1-.607-.185,1.378,1.378,0,0,0-.841-.265,1.484,1.484,0,0,0-.86.261,1.107,1.107,0,0,1-.637.189,1,1,0,0,1-.607-.185,1.379,1.379,0,0,0-.842-.265,1.486,1.486,0,0,0-.86.261,1.107,1.107,0,0,1-.637.189,1,1,0,0,1-.607-.185,1.379,1.379,0,0,0-.842-.265,1.486,1.486,0,0,0-.86.261,1.105,1.105,0,0,1-.637.189,1,1,0,0,1-.607-.185l-.706-.546-.235.3" transform="translate(571.999 1248.261) rotate(-90)" fill="#161615"/>
      </g>
      <g transform="translate(-1101.8 -452.2)">
        <path id="Path_413-7" data-name="Path 413" d="M759.064,542.1l.707.546a1.378,1.378,0,0,0,.841.265,1.485,1.485,0,0,0,.86-.261,1.117,1.117,0,0,1,.637-.189,1,1,0,0,1,.607.185,1.381,1.381,0,0,0,.842.265,1.485,1.485,0,0,0,.86-.261,1.115,1.115,0,0,1,.637-.189,1,1,0,0,1,.607.185,1.379,1.379,0,0,0,.842.265,1.487,1.487,0,0,0,.86-.261,1.115,1.115,0,0,1,.637-.189,1,1,0,0,1,.607.185,1.378,1.378,0,0,0,.841.265,1.485,1.485,0,0,0,.86-.261,1.117,1.117,0,0,1,.637-.189,1,1,0,0,1,.607.185,1.381,1.381,0,0,0,.842.265,1.485,1.485,0,0,0,.86-.261,1.115,1.115,0,0,1,.637-.189,1,1,0,0,1,.607.185,1.379,1.379,0,0,0,.842.265,1.487,1.487,0,0,0,.86-.261,1.115,1.115,0,0,1,.637-.189,1,1,0,0,1,.607.185,1.378,1.378,0,0,0,.841.265,1.485,1.485,0,0,0,.86-.261,1.118,1.118,0,0,1,.638-.189,1,1,0,0,1,.606.185,1.383,1.383,0,0,0,.842.265,1.485,1.485,0,0,0,.86-.261,1.115,1.115,0,0,1,.637-.189,1,1,0,0,1,.607.185,1.379,1.379,0,0,0,.842.265,1.487,1.487,0,0,0,.86-.261,1.115,1.115,0,0,1,.637-.189,1,1,0,0,1,.607.185,1.378,1.378,0,0,0,.841.265,1.485,1.485,0,0,0,.86-.261,1.118,1.118,0,0,1,.638-.189,1,1,0,0,1,.606.185,1.383,1.383,0,0,0,.842.265,1.485,1.485,0,0,0,.86-.261,1.115,1.115,0,0,1,.637-.189,1,1,0,0,1,.607.185,1.379,1.379,0,0,0,.842.265,1.487,1.487,0,0,0,.86-.261,1.115,1.115,0,0,1,.637-.189,1,1,0,0,1,.607.185l.707.546.235-.3-.707-.546a1.383,1.383,0,0,0-.842-.265,1.484,1.484,0,0,0-.86.261,1.107,1.107,0,0,1-.637.189,1,1,0,0,1-.607-.185,1.379,1.379,0,0,0-.842-.265,1.486,1.486,0,0,0-.86.261,1.107,1.107,0,0,1-.637.189,1,1,0,0,1-.607-.185,1.378,1.378,0,0,0-.841-.265,1.487,1.487,0,0,0-.861.261,1.105,1.105,0,0,1-.637.189,1,1,0,0,1-.607-.185,1.378,1.378,0,0,0-.841-.265,1.484,1.484,0,0,0-.86.261,1.107,1.107,0,0,1-.637.189,1,1,0,0,1-.607-.185,1.379,1.379,0,0,0-.842-.265,1.486,1.486,0,0,0-.86.261,1.107,1.107,0,0,1-.637.189,1,1,0,0,1-.607-.185,1.378,1.378,0,0,0-.841-.265,1.487,1.487,0,0,0-.861.261,1.1,1.1,0,0,1-.637.189,1,1,0,0,1-.606-.185,1.383,1.383,0,0,0-.842-.265,1.484,1.484,0,0,0-.86.261,1.107,1.107,0,0,1-.637.189,1,1,0,0,1-.607-.185,1.379,1.379,0,0,0-.842-.265,1.487,1.487,0,0,0-.86.261,1.107,1.107,0,0,1-.637.189,1,1,0,0,1-.607-.185,1.379,1.379,0,0,0-.842-.265,1.486,1.486,0,0,0-.86.261,1.1,1.1,0,0,1-.637.189,1,1,0,0,1-.607-.185,1.378,1.378,0,0,0-.841-.265,1.484,1.484,0,0,0-.86.261,1.107,1.107,0,0,1-.637.189,1,1,0,0,1-.607-.185,1.379,1.379,0,0,0-.842-.265,1.486,1.486,0,0,0-.86.261,1.107,1.107,0,0,1-.637.189,1,1,0,0,1-.607-.185,1.379,1.379,0,0,0-.842-.265,1.486,1.486,0,0,0-.86.261,1.105,1.105,0,0,1-.637.189,1,1,0,0,1-.607-.185l-.706-.546-.235.3" transform="translate(571.999 1248.261) rotate(-90)" fill="#161615"/>
      </g>
      <g transform="translate(-1099.8 -452.2)">
        <path id="Path_413-8" data-name="Path 413" d="M759.064,542.1l.707.546a1.378,1.378,0,0,0,.841.265,1.485,1.485,0,0,0,.86-.261,1.117,1.117,0,0,1,.637-.189,1,1,0,0,1,.607.185,1.381,1.381,0,0,0,.842.265,1.485,1.485,0,0,0,.86-.261,1.115,1.115,0,0,1,.637-.189,1,1,0,0,1,.607.185,1.379,1.379,0,0,0,.842.265,1.487,1.487,0,0,0,.86-.261,1.115,1.115,0,0,1,.637-.189,1,1,0,0,1,.607.185,1.378,1.378,0,0,0,.841.265,1.485,1.485,0,0,0,.86-.261,1.117,1.117,0,0,1,.637-.189,1,1,0,0,1,.607.185,1.381,1.381,0,0,0,.842.265,1.485,1.485,0,0,0,.86-.261,1.115,1.115,0,0,1,.637-.189,1,1,0,0,1,.607.185,1.379,1.379,0,0,0,.842.265,1.487,1.487,0,0,0,.86-.261,1.115,1.115,0,0,1,.637-.189,1,1,0,0,1,.607.185,1.378,1.378,0,0,0,.841.265,1.485,1.485,0,0,0,.86-.261,1.118,1.118,0,0,1,.638-.189,1,1,0,0,1,.606.185,1.383,1.383,0,0,0,.842.265,1.485,1.485,0,0,0,.86-.261,1.115,1.115,0,0,1,.637-.189,1,1,0,0,1,.607.185,1.379,1.379,0,0,0,.842.265,1.487,1.487,0,0,0,.86-.261,1.115,1.115,0,0,1,.637-.189,1,1,0,0,1,.607.185,1.378,1.378,0,0,0,.841.265,1.485,1.485,0,0,0,.86-.261,1.118,1.118,0,0,1,.638-.189,1,1,0,0,1,.606.185,1.383,1.383,0,0,0,.842.265,1.485,1.485,0,0,0,.86-.261,1.115,1.115,0,0,1,.637-.189,1,1,0,0,1,.607.185,1.379,1.379,0,0,0,.842.265,1.487,1.487,0,0,0,.86-.261,1.115,1.115,0,0,1,.637-.189,1,1,0,0,1,.607.185l.707.546.235-.3-.707-.546a1.383,1.383,0,0,0-.842-.265,1.484,1.484,0,0,0-.86.261,1.107,1.107,0,0,1-.637.189,1,1,0,0,1-.607-.185,1.379,1.379,0,0,0-.842-.265,1.486,1.486,0,0,0-.86.261,1.107,1.107,0,0,1-.637.189,1,1,0,0,1-.607-.185,1.378,1.378,0,0,0-.841-.265,1.487,1.487,0,0,0-.861.261,1.105,1.105,0,0,1-.637.189,1,1,0,0,1-.607-.185,1.378,1.378,0,0,0-.841-.265,1.484,1.484,0,0,0-.86.261,1.107,1.107,0,0,1-.637.189,1,1,0,0,1-.607-.185,1.379,1.379,0,0,0-.842-.265,1.486,1.486,0,0,0-.86.261,1.107,1.107,0,0,1-.637.189,1,1,0,0,1-.607-.185,1.378,1.378,0,0,0-.841-.265,1.487,1.487,0,0,0-.861.261,1.1,1.1,0,0,1-.637.189,1,1,0,0,1-.606-.185,1.383,1.383,0,0,0-.842-.265,1.484,1.484,0,0,0-.86.261,1.107,1.107,0,0,1-.637.189,1,1,0,0,1-.607-.185,1.379,1.379,0,0,0-.842-.265,1.487,1.487,0,0,0-.86.261,1.107,1.107,0,0,1-.637.189,1,1,0,0,1-.607-.185,1.379,1.379,0,0,0-.842-.265,1.486,1.486,0,0,0-.86.261,1.1,1.1,0,0,1-.637.189,1,1,0,0,1-.607-.185,1.378,1.378,0,0,0-.841-.265,1.484,1.484,0,0,0-.86.261,1.107,1.107,0,0,1-.637.189,1,1,0,0,1-.607-.185,1.379,1.379,0,0,0-.842-.265,1.486,1.486,0,0,0-.86.261,1.107,1.107,0,0,1-.637.189,1,1,0,0,1-.607-.185,1.379,1.379,0,0,0-.842-.265,1.486,1.486,0,0,0-.86.261,1.105,1.105,0,0,1-.637.189,1,1,0,0,1-.607-.185l-.706-.546-.235.3" transform="translate(571.999 1248.261) rotate(-90)" fill="#161615"/>
      </g>
      <g transform="translate(-1097.8 -452.2)">
        <path id="Path_413-9" data-name="Path 413" d="M759.064,542.1l.707.546a1.378,1.378,0,0,0,.841.265,1.485,1.485,0,0,0,.86-.261,1.117,1.117,0,0,1,.637-.189,1,1,0,0,1,.607.185,1.381,1.381,0,0,0,.842.265,1.485,1.485,0,0,0,.86-.261,1.115,1.115,0,0,1,.637-.189,1,1,0,0,1,.607.185,1.379,1.379,0,0,0,.842.265,1.487,1.487,0,0,0,.86-.261,1.115,1.115,0,0,1,.637-.189,1,1,0,0,1,.607.185,1.378,1.378,0,0,0,.841.265,1.485,1.485,0,0,0,.86-.261,1.117,1.117,0,0,1,.637-.189,1,1,0,0,1,.607.185,1.381,1.381,0,0,0,.842.265,1.485,1.485,0,0,0,.86-.261,1.115,1.115,0,0,1,.637-.189,1,1,0,0,1,.607.185,1.379,1.379,0,0,0,.842.265,1.487,1.487,0,0,0,.86-.261,1.115,1.115,0,0,1,.637-.189,1,1,0,0,1,.607.185,1.378,1.378,0,0,0,.841.265,1.485,1.485,0,0,0,.86-.261,1.118,1.118,0,0,1,.638-.189,1,1,0,0,1,.606.185,1.383,1.383,0,0,0,.842.265,1.485,1.485,0,0,0,.86-.261,1.115,1.115,0,0,1,.637-.189,1,1,0,0,1,.607.185,1.379,1.379,0,0,0,.842.265,1.487,1.487,0,0,0,.86-.261,1.115,1.115,0,0,1,.637-.189,1,1,0,0,1,.607.185,1.378,1.378,0,0,0,.841.265,1.485,1.485,0,0,0,.86-.261,1.118,1.118,0,0,1,.638-.189,1,1,0,0,1,.606.185,1.383,1.383,0,0,0,.842.265,1.485,1.485,0,0,0,.86-.261,1.115,1.115,0,0,1,.637-.189,1,1,0,0,1,.607.185,1.379,1.379,0,0,0,.842.265,1.487,1.487,0,0,0,.86-.261,1.115,1.115,0,0,1,.637-.189,1,1,0,0,1,.607.185l.707.546.235-.3-.707-.546a1.383,1.383,0,0,0-.842-.265,1.484,1.484,0,0,0-.86.261,1.107,1.107,0,0,1-.637.189,1,1,0,0,1-.607-.185,1.379,1.379,0,0,0-.842-.265,1.486,1.486,0,0,0-.86.261,1.107,1.107,0,0,1-.637.189,1,1,0,0,1-.607-.185,1.378,1.378,0,0,0-.841-.265,1.487,1.487,0,0,0-.861.261,1.105,1.105,0,0,1-.637.189,1,1,0,0,1-.607-.185,1.378,1.378,0,0,0-.841-.265,1.484,1.484,0,0,0-.86.261,1.107,1.107,0,0,1-.637.189,1,1,0,0,1-.607-.185,1.379,1.379,0,0,0-.842-.265,1.486,1.486,0,0,0-.86.261,1.107,1.107,0,0,1-.637.189,1,1,0,0,1-.607-.185,1.378,1.378,0,0,0-.841-.265,1.487,1.487,0,0,0-.861.261,1.1,1.1,0,0,1-.637.189,1,1,0,0,1-.606-.185,1.383,1.383,0,0,0-.842-.265,1.484,1.484,0,0,0-.86.261,1.107,1.107,0,0,1-.637.189,1,1,0,0,1-.607-.185,1.379,1.379,0,0,0-.842-.265,1.487,1.487,0,0,0-.86.261,1.107,1.107,0,0,1-.637.189,1,1,0,0,1-.607-.185,1.379,1.379,0,0,0-.842-.265,1.486,1.486,0,0,0-.86.261,1.1,1.1,0,0,1-.637.189,1,1,0,0,1-.607-.185,1.378,1.378,0,0,0-.841-.265,1.484,1.484,0,0,0-.86.261,1.107,1.107,0,0,1-.637.189,1,1,0,0,1-.607-.185,1.379,1.379,0,0,0-.842-.265,1.486,1.486,0,0,0-.86.261,1.107,1.107,0,0,1-.637.189,1,1,0,0,1-.607-.185,1.379,1.379,0,0,0-.842-.265,1.486,1.486,0,0,0-.86.261,1.105,1.105,0,0,1-.637.189,1,1,0,0,1-.607-.185l-.706-.546-.235.3" transform="translate(571.999 1248.261) rotate(-90)" fill="#161615"/>
      </g>
      <g transform="translate(-1095.8 -452.2)">
        <path id="Path_413-10" data-name="Path 413" d="M759.064,542.1l.707.546a1.378,1.378,0,0,0,.841.265,1.485,1.485,0,0,0,.86-.261,1.117,1.117,0,0,1,.637-.189,1,1,0,0,1,.607.185,1.381,1.381,0,0,0,.842.265,1.485,1.485,0,0,0,.86-.261,1.115,1.115,0,0,1,.637-.189,1,1,0,0,1,.607.185,1.379,1.379,0,0,0,.842.265,1.487,1.487,0,0,0,.86-.261,1.115,1.115,0,0,1,.637-.189,1,1,0,0,1,.607.185,1.378,1.378,0,0,0,.841.265,1.485,1.485,0,0,0,.86-.261,1.117,1.117,0,0,1,.637-.189,1,1,0,0,1,.607.185,1.381,1.381,0,0,0,.842.265,1.485,1.485,0,0,0,.86-.261,1.115,1.115,0,0,1,.637-.189,1,1,0,0,1,.607.185,1.379,1.379,0,0,0,.842.265,1.487,1.487,0,0,0,.86-.261,1.115,1.115,0,0,1,.637-.189,1,1,0,0,1,.607.185,1.378,1.378,0,0,0,.841.265,1.485,1.485,0,0,0,.86-.261,1.118,1.118,0,0,1,.638-.189,1,1,0,0,1,.606.185,1.383,1.383,0,0,0,.842.265,1.485,1.485,0,0,0,.86-.261,1.115,1.115,0,0,1,.637-.189,1,1,0,0,1,.607.185,1.379,1.379,0,0,0,.842.265,1.487,1.487,0,0,0,.86-.261,1.115,1.115,0,0,1,.637-.189,1,1,0,0,1,.607.185,1.378,1.378,0,0,0,.841.265,1.485,1.485,0,0,0,.86-.261,1.118,1.118,0,0,1,.638-.189,1,1,0,0,1,.606.185,1.383,1.383,0,0,0,.842.265,1.485,1.485,0,0,0,.86-.261,1.115,1.115,0,0,1,.637-.189,1,1,0,0,1,.607.185,1.379,1.379,0,0,0,.842.265,1.487,1.487,0,0,0,.86-.261,1.115,1.115,0,0,1,.637-.189,1,1,0,0,1,.607.185l.707.546.235-.3-.707-.546a1.383,1.383,0,0,0-.842-.265,1.484,1.484,0,0,0-.86.261,1.107,1.107,0,0,1-.637.189,1,1,0,0,1-.607-.185,1.379,1.379,0,0,0-.842-.265,1.486,1.486,0,0,0-.86.261,1.107,1.107,0,0,1-.637.189,1,1,0,0,1-.607-.185,1.378,1.378,0,0,0-.841-.265,1.487,1.487,0,0,0-.861.261,1.105,1.105,0,0,1-.637.189,1,1,0,0,1-.607-.185,1.378,1.378,0,0,0-.841-.265,1.484,1.484,0,0,0-.86.261,1.107,1.107,0,0,1-.637.189,1,1,0,0,1-.607-.185,1.379,1.379,0,0,0-.842-.265,1.486,1.486,0,0,0-.86.261,1.107,1.107,0,0,1-.637.189,1,1,0,0,1-.607-.185,1.378,1.378,0,0,0-.841-.265,1.487,1.487,0,0,0-.861.261,1.1,1.1,0,0,1-.637.189,1,1,0,0,1-.606-.185,1.383,1.383,0,0,0-.842-.265,1.484,1.484,0,0,0-.86.261,1.107,1.107,0,0,1-.637.189,1,1,0,0,1-.607-.185,1.379,1.379,0,0,0-.842-.265,1.487,1.487,0,0,0-.86.261,1.107,1.107,0,0,1-.637.189,1,1,0,0,1-.607-.185,1.379,1.379,0,0,0-.842-.265,1.486,1.486,0,0,0-.86.261,1.1,1.1,0,0,1-.637.189,1,1,0,0,1-.607-.185,1.378,1.378,0,0,0-.841-.265,1.484,1.484,0,0,0-.86.261,1.107,1.107,0,0,1-.637.189,1,1,0,0,1-.607-.185,1.379,1.379,0,0,0-.842-.265,1.486,1.486,0,0,0-.86.261,1.107,1.107,0,0,1-.637.189,1,1,0,0,1-.607-.185,1.379,1.379,0,0,0-.842-.265,1.486,1.486,0,0,0-.86.261,1.105,1.105,0,0,1-.637.189,1,1,0,0,1-.607-.185l-.706-.546-.235.3" transform="translate(571.999 1248.261) rotate(-90)" fill="#161615"/>
      </g>
      <g transform="translate(-1093.8 -452.2)">
        <path id="Path_413-11" data-name="Path 413" d="M759.064,542.1l.707.546a1.378,1.378,0,0,0,.841.265,1.485,1.485,0,0,0,.86-.261,1.117,1.117,0,0,1,.637-.189,1,1,0,0,1,.607.185,1.381,1.381,0,0,0,.842.265,1.485,1.485,0,0,0,.86-.261,1.115,1.115,0,0,1,.637-.189,1,1,0,0,1,.607.185,1.379,1.379,0,0,0,.842.265,1.487,1.487,0,0,0,.86-.261,1.115,1.115,0,0,1,.637-.189,1,1,0,0,1,.607.185,1.378,1.378,0,0,0,.841.265,1.485,1.485,0,0,0,.86-.261,1.117,1.117,0,0,1,.637-.189,1,1,0,0,1,.607.185,1.381,1.381,0,0,0,.842.265,1.485,1.485,0,0,0,.86-.261,1.115,1.115,0,0,1,.637-.189,1,1,0,0,1,.607.185,1.379,1.379,0,0,0,.842.265,1.487,1.487,0,0,0,.86-.261,1.115,1.115,0,0,1,.637-.189,1,1,0,0,1,.607.185,1.378,1.378,0,0,0,.841.265,1.485,1.485,0,0,0,.86-.261,1.118,1.118,0,0,1,.638-.189,1,1,0,0,1,.606.185,1.383,1.383,0,0,0,.842.265,1.485,1.485,0,0,0,.86-.261,1.115,1.115,0,0,1,.637-.189,1,1,0,0,1,.607.185,1.379,1.379,0,0,0,.842.265,1.487,1.487,0,0,0,.86-.261,1.115,1.115,0,0,1,.637-.189,1,1,0,0,1,.607.185,1.378,1.378,0,0,0,.841.265,1.485,1.485,0,0,0,.86-.261,1.118,1.118,0,0,1,.638-.189,1,1,0,0,1,.606.185,1.383,1.383,0,0,0,.842.265,1.485,1.485,0,0,0,.86-.261,1.115,1.115,0,0,1,.637-.189,1,1,0,0,1,.607.185,1.379,1.379,0,0,0,.842.265,1.487,1.487,0,0,0,.86-.261,1.115,1.115,0,0,1,.637-.189,1,1,0,0,1,.607.185l.707.546.235-.3-.707-.546a1.383,1.383,0,0,0-.842-.265,1.484,1.484,0,0,0-.86.261,1.107,1.107,0,0,1-.637.189,1,1,0,0,1-.607-.185,1.379,1.379,0,0,0-.842-.265,1.486,1.486,0,0,0-.86.261,1.107,1.107,0,0,1-.637.189,1,1,0,0,1-.607-.185,1.378,1.378,0,0,0-.841-.265,1.487,1.487,0,0,0-.861.261,1.105,1.105,0,0,1-.637.189,1,1,0,0,1-.607-.185,1.378,1.378,0,0,0-.841-.265,1.484,1.484,0,0,0-.86.261,1.107,1.107,0,0,1-.637.189,1,1,0,0,1-.607-.185,1.379,1.379,0,0,0-.842-.265,1.486,1.486,0,0,0-.86.261,1.107,1.107,0,0,1-.637.189,1,1,0,0,1-.607-.185,1.378,1.378,0,0,0-.841-.265,1.487,1.487,0,0,0-.861.261,1.1,1.1,0,0,1-.637.189,1,1,0,0,1-.606-.185,1.383,1.383,0,0,0-.842-.265,1.484,1.484,0,0,0-.86.261,1.107,1.107,0,0,1-.637.189,1,1,0,0,1-.607-.185,1.379,1.379,0,0,0-.842-.265,1.487,1.487,0,0,0-.86.261,1.107,1.107,0,0,1-.637.189,1,1,0,0,1-.607-.185,1.379,1.379,0,0,0-.842-.265,1.486,1.486,0,0,0-.86.261,1.1,1.1,0,0,1-.637.189,1,1,0,0,1-.607-.185,1.378,1.378,0,0,0-.841-.265,1.484,1.484,0,0,0-.86.261,1.107,1.107,0,0,1-.637.189,1,1,0,0,1-.607-.185,1.379,1.379,0,0,0-.842-.265,1.486,1.486,0,0,0-.86.261,1.107,1.107,0,0,1-.637.189,1,1,0,0,1-.607-.185,1.379,1.379,0,0,0-.842-.265,1.486,1.486,0,0,0-.86.261,1.105,1.105,0,0,1-.637.189,1,1,0,0,1-.607-.185l-.706-.546-.235.3" transform="translate(571.999 1248.261) rotate(-90)" fill="#161615"/>
      </g>
      <g transform="translate(-1091.8 -452.2)">
        <path id="Path_413-12" data-name="Path 413" d="M759.064,542.1l.707.546a1.378,1.378,0,0,0,.841.265,1.485,1.485,0,0,0,.86-.261,1.117,1.117,0,0,1,.637-.189,1,1,0,0,1,.607.185,1.381,1.381,0,0,0,.842.265,1.485,1.485,0,0,0,.86-.261,1.115,1.115,0,0,1,.637-.189,1,1,0,0,1,.607.185,1.379,1.379,0,0,0,.842.265,1.487,1.487,0,0,0,.86-.261,1.115,1.115,0,0,1,.637-.189,1,1,0,0,1,.607.185,1.378,1.378,0,0,0,.841.265,1.485,1.485,0,0,0,.86-.261,1.117,1.117,0,0,1,.637-.189,1,1,0,0,1,.607.185,1.381,1.381,0,0,0,.842.265,1.485,1.485,0,0,0,.86-.261,1.115,1.115,0,0,1,.637-.189,1,1,0,0,1,.607.185,1.379,1.379,0,0,0,.842.265,1.487,1.487,0,0,0,.86-.261,1.115,1.115,0,0,1,.637-.189,1,1,0,0,1,.607.185,1.378,1.378,0,0,0,.841.265,1.485,1.485,0,0,0,.86-.261,1.118,1.118,0,0,1,.638-.189,1,1,0,0,1,.606.185,1.383,1.383,0,0,0,.842.265,1.485,1.485,0,0,0,.86-.261,1.115,1.115,0,0,1,.637-.189,1,1,0,0,1,.607.185,1.379,1.379,0,0,0,.842.265,1.487,1.487,0,0,0,.86-.261,1.115,1.115,0,0,1,.637-.189,1,1,0,0,1,.607.185,1.378,1.378,0,0,0,.841.265,1.485,1.485,0,0,0,.86-.261,1.118,1.118,0,0,1,.638-.189,1,1,0,0,1,.606.185,1.383,1.383,0,0,0,.842.265,1.485,1.485,0,0,0,.86-.261,1.115,1.115,0,0,1,.637-.189,1,1,0,0,1,.607.185,1.379,1.379,0,0,0,.842.265,1.487,1.487,0,0,0,.86-.261,1.115,1.115,0,0,1,.637-.189,1,1,0,0,1,.607.185l.707.546.235-.3-.707-.546a1.383,1.383,0,0,0-.842-.265,1.484,1.484,0,0,0-.86.261,1.107,1.107,0,0,1-.637.189,1,1,0,0,1-.607-.185,1.379,1.379,0,0,0-.842-.265,1.486,1.486,0,0,0-.86.261,1.107,1.107,0,0,1-.637.189,1,1,0,0,1-.607-.185,1.378,1.378,0,0,0-.841-.265,1.487,1.487,0,0,0-.861.261,1.105,1.105,0,0,1-.637.189,1,1,0,0,1-.607-.185,1.378,1.378,0,0,0-.841-.265,1.484,1.484,0,0,0-.86.261,1.107,1.107,0,0,1-.637.189,1,1,0,0,1-.607-.185,1.379,1.379,0,0,0-.842-.265,1.486,1.486,0,0,0-.86.261,1.107,1.107,0,0,1-.637.189,1,1,0,0,1-.607-.185,1.378,1.378,0,0,0-.841-.265,1.487,1.487,0,0,0-.861.261,1.1,1.1,0,0,1-.637.189,1,1,0,0,1-.606-.185,1.383,1.383,0,0,0-.842-.265,1.484,1.484,0,0,0-.86.261,1.107,1.107,0,0,1-.637.189,1,1,0,0,1-.607-.185,1.379,1.379,0,0,0-.842-.265,1.487,1.487,0,0,0-.86.261,1.107,1.107,0,0,1-.637.189,1,1,0,0,1-.607-.185,1.379,1.379,0,0,0-.842-.265,1.486,1.486,0,0,0-.86.261,1.1,1.1,0,0,1-.637.189,1,1,0,0,1-.607-.185,1.378,1.378,0,0,0-.841-.265,1.484,1.484,0,0,0-.86.261,1.107,1.107,0,0,1-.637.189,1,1,0,0,1-.607-.185,1.379,1.379,0,0,0-.842-.265,1.486,1.486,0,0,0-.86.261,1.107,1.107,0,0,1-.637.189,1,1,0,0,1-.607-.185,1.379,1.379,0,0,0-.842-.265,1.486,1.486,0,0,0-.86.261,1.105,1.105,0,0,1-.637.189,1,1,0,0,1-.607-.185l-.706-.546-.235.3" transform="translate(571.999 1248.261) rotate(-90)" fill="#161615"/>
      </g>
      <g transform="translate(-1089.8 -452.2)">
        <path id="Path_413-13" data-name="Path 413" d="M759.064,542.1l.707.546a1.378,1.378,0,0,0,.841.265,1.485,1.485,0,0,0,.86-.261,1.117,1.117,0,0,1,.637-.189,1,1,0,0,1,.607.185,1.381,1.381,0,0,0,.842.265,1.485,1.485,0,0,0,.86-.261,1.115,1.115,0,0,1,.637-.189,1,1,0,0,1,.607.185,1.379,1.379,0,0,0,.842.265,1.487,1.487,0,0,0,.86-.261,1.115,1.115,0,0,1,.637-.189,1,1,0,0,1,.607.185,1.378,1.378,0,0,0,.841.265,1.485,1.485,0,0,0,.86-.261,1.117,1.117,0,0,1,.637-.189,1,1,0,0,1,.607.185,1.381,1.381,0,0,0,.842.265,1.485,1.485,0,0,0,.86-.261,1.115,1.115,0,0,1,.637-.189,1,1,0,0,1,.607.185,1.379,1.379,0,0,0,.842.265,1.487,1.487,0,0,0,.86-.261,1.115,1.115,0,0,1,.637-.189,1,1,0,0,1,.607.185,1.378,1.378,0,0,0,.841.265,1.485,1.485,0,0,0,.86-.261,1.118,1.118,0,0,1,.638-.189,1,1,0,0,1,.606.185,1.383,1.383,0,0,0,.842.265,1.485,1.485,0,0,0,.86-.261,1.115,1.115,0,0,1,.637-.189,1,1,0,0,1,.607.185,1.379,1.379,0,0,0,.842.265,1.487,1.487,0,0,0,.86-.261,1.115,1.115,0,0,1,.637-.189,1,1,0,0,1,.607.185,1.378,1.378,0,0,0,.841.265,1.485,1.485,0,0,0,.86-.261,1.118,1.118,0,0,1,.638-.189,1,1,0,0,1,.606.185,1.383,1.383,0,0,0,.842.265,1.485,1.485,0,0,0,.86-.261,1.115,1.115,0,0,1,.637-.189,1,1,0,0,1,.607.185,1.379,1.379,0,0,0,.842.265,1.487,1.487,0,0,0,.86-.261,1.115,1.115,0,0,1,.637-.189,1,1,0,0,1,.607.185l.707.546.235-.3-.707-.546a1.383,1.383,0,0,0-.842-.265,1.484,1.484,0,0,0-.86.261,1.107,1.107,0,0,1-.637.189,1,1,0,0,1-.607-.185,1.379,1.379,0,0,0-.842-.265,1.486,1.486,0,0,0-.86.261,1.107,1.107,0,0,1-.637.189,1,1,0,0,1-.607-.185,1.378,1.378,0,0,0-.841-.265,1.487,1.487,0,0,0-.861.261,1.105,1.105,0,0,1-.637.189,1,1,0,0,1-.607-.185,1.378,1.378,0,0,0-.841-.265,1.484,1.484,0,0,0-.86.261,1.107,1.107,0,0,1-.637.189,1,1,0,0,1-.607-.185,1.379,1.379,0,0,0-.842-.265,1.486,1.486,0,0,0-.86.261,1.107,1.107,0,0,1-.637.189,1,1,0,0,1-.607-.185,1.378,1.378,0,0,0-.841-.265,1.487,1.487,0,0,0-.861.261,1.1,1.1,0,0,1-.637.189,1,1,0,0,1-.606-.185,1.383,1.383,0,0,0-.842-.265,1.484,1.484,0,0,0-.86.261,1.107,1.107,0,0,1-.637.189,1,1,0,0,1-.607-.185,1.379,1.379,0,0,0-.842-.265,1.487,1.487,0,0,0-.86.261,1.107,1.107,0,0,1-.637.189,1,1,0,0,1-.607-.185,1.379,1.379,0,0,0-.842-.265,1.486,1.486,0,0,0-.86.261,1.1,1.1,0,0,1-.637.189,1,1,0,0,1-.607-.185,1.378,1.378,0,0,0-.841-.265,1.484,1.484,0,0,0-.86.261,1.107,1.107,0,0,1-.637.189,1,1,0,0,1-.607-.185,1.379,1.379,0,0,0-.842-.265,1.486,1.486,0,0,0-.86.261,1.107,1.107,0,0,1-.637.189,1,1,0,0,1-.607-.185,1.379,1.379,0,0,0-.842-.265,1.486,1.486,0,0,0-.86.261,1.105,1.105,0,0,1-.637.189,1,1,0,0,1-.607-.185l-.706-.546-.235.3" transform="translate(571.999 1248.261) rotate(-90)" fill="#161615"/>
      </g>
      <g transform="translate(-1087.8 -452.2)">
        <path id="Path_413-14" data-name="Path 413" d="M759.064,542.1l.707.546a1.378,1.378,0,0,0,.841.265,1.485,1.485,0,0,0,.86-.261,1.117,1.117,0,0,1,.637-.189,1,1,0,0,1,.607.185,1.381,1.381,0,0,0,.842.265,1.485,1.485,0,0,0,.86-.261,1.115,1.115,0,0,1,.637-.189,1,1,0,0,1,.607.185,1.379,1.379,0,0,0,.842.265,1.487,1.487,0,0,0,.86-.261,1.115,1.115,0,0,1,.637-.189,1,1,0,0,1,.607.185,1.378,1.378,0,0,0,.841.265,1.485,1.485,0,0,0,.86-.261,1.117,1.117,0,0,1,.637-.189,1,1,0,0,1,.607.185,1.381,1.381,0,0,0,.842.265,1.485,1.485,0,0,0,.86-.261,1.115,1.115,0,0,1,.637-.189,1,1,0,0,1,.607.185,1.379,1.379,0,0,0,.842.265,1.487,1.487,0,0,0,.86-.261,1.115,1.115,0,0,1,.637-.189,1,1,0,0,1,.607.185,1.378,1.378,0,0,0,.841.265,1.485,1.485,0,0,0,.86-.261,1.118,1.118,0,0,1,.638-.189,1,1,0,0,1,.606.185,1.383,1.383,0,0,0,.842.265,1.485,1.485,0,0,0,.86-.261,1.115,1.115,0,0,1,.637-.189,1,1,0,0,1,.607.185,1.379,1.379,0,0,0,.842.265,1.487,1.487,0,0,0,.86-.261,1.115,1.115,0,0,1,.637-.189,1,1,0,0,1,.607.185,1.378,1.378,0,0,0,.841.265,1.485,1.485,0,0,0,.86-.261,1.118,1.118,0,0,1,.638-.189,1,1,0,0,1,.606.185,1.383,1.383,0,0,0,.842.265,1.485,1.485,0,0,0,.86-.261,1.115,1.115,0,0,1,.637-.189,1,1,0,0,1,.607.185,1.379,1.379,0,0,0,.842.265,1.487,1.487,0,0,0,.86-.261,1.115,1.115,0,0,1,.637-.189,1,1,0,0,1,.607.185l.707.546.235-.3-.707-.546a1.383,1.383,0,0,0-.842-.265,1.484,1.484,0,0,0-.86.261,1.107,1.107,0,0,1-.637.189,1,1,0,0,1-.607-.185,1.379,1.379,0,0,0-.842-.265,1.486,1.486,0,0,0-.86.261,1.107,1.107,0,0,1-.637.189,1,1,0,0,1-.607-.185,1.378,1.378,0,0,0-.841-.265,1.487,1.487,0,0,0-.861.261,1.105,1.105,0,0,1-.637.189,1,1,0,0,1-.607-.185,1.378,1.378,0,0,0-.841-.265,1.484,1.484,0,0,0-.86.261,1.107,1.107,0,0,1-.637.189,1,1,0,0,1-.607-.185,1.379,1.379,0,0,0-.842-.265,1.486,1.486,0,0,0-.86.261,1.107,1.107,0,0,1-.637.189,1,1,0,0,1-.607-.185,1.378,1.378,0,0,0-.841-.265,1.487,1.487,0,0,0-.861.261,1.1,1.1,0,0,1-.637.189,1,1,0,0,1-.606-.185,1.383,1.383,0,0,0-.842-.265,1.484,1.484,0,0,0-.86.261,1.107,1.107,0,0,1-.637.189,1,1,0,0,1-.607-.185,1.379,1.379,0,0,0-.842-.265,1.487,1.487,0,0,0-.86.261,1.107,1.107,0,0,1-.637.189,1,1,0,0,1-.607-.185,1.379,1.379,0,0,0-.842-.265,1.486,1.486,0,0,0-.86.261,1.1,1.1,0,0,1-.637.189,1,1,0,0,1-.607-.185,1.378,1.378,0,0,0-.841-.265,1.484,1.484,0,0,0-.86.261,1.107,1.107,0,0,1-.637.189,1,1,0,0,1-.607-.185,1.379,1.379,0,0,0-.842-.265,1.486,1.486,0,0,0-.86.261,1.107,1.107,0,0,1-.637.189,1,1,0,0,1-.607-.185,1.379,1.379,0,0,0-.842-.265,1.486,1.486,0,0,0-.86.261,1.105,1.105,0,0,1-.637.189,1,1,0,0,1-.607-.185l-.706-.546-.235.3" transform="translate(571.999 1248.261) rotate(-90)" fill="#161615"/>
      </g>
      <g transform="translate(-1085.8 -452.2)">
        <path id="Path_413-15" data-name="Path 413" d="M759.064,542.1l.707.546a1.378,1.378,0,0,0,.841.265,1.485,1.485,0,0,0,.86-.261,1.117,1.117,0,0,1,.637-.189,1,1,0,0,1,.607.185,1.381,1.381,0,0,0,.842.265,1.485,1.485,0,0,0,.86-.261,1.115,1.115,0,0,1,.637-.189,1,1,0,0,1,.607.185,1.379,1.379,0,0,0,.842.265,1.487,1.487,0,0,0,.86-.261,1.115,1.115,0,0,1,.637-.189,1,1,0,0,1,.607.185,1.378,1.378,0,0,0,.841.265,1.485,1.485,0,0,0,.86-.261,1.117,1.117,0,0,1,.637-.189,1,1,0,0,1,.607.185,1.381,1.381,0,0,0,.842.265,1.485,1.485,0,0,0,.86-.261,1.115,1.115,0,0,1,.637-.189,1,1,0,0,1,.607.185,1.379,1.379,0,0,0,.842.265,1.487,1.487,0,0,0,.86-.261,1.115,1.115,0,0,1,.637-.189,1,1,0,0,1,.607.185,1.378,1.378,0,0,0,.841.265,1.485,1.485,0,0,0,.86-.261,1.118,1.118,0,0,1,.638-.189,1,1,0,0,1,.606.185,1.383,1.383,0,0,0,.842.265,1.485,1.485,0,0,0,.86-.261,1.115,1.115,0,0,1,.637-.189,1,1,0,0,1,.607.185,1.379,1.379,0,0,0,.842.265,1.487,1.487,0,0,0,.86-.261,1.115,1.115,0,0,1,.637-.189,1,1,0,0,1,.607.185,1.378,1.378,0,0,0,.841.265,1.485,1.485,0,0,0,.86-.261,1.118,1.118,0,0,1,.638-.189,1,1,0,0,1,.606.185,1.383,1.383,0,0,0,.842.265,1.485,1.485,0,0,0,.86-.261,1.115,1.115,0,0,1,.637-.189,1,1,0,0,1,.607.185,1.379,1.379,0,0,0,.842.265,1.487,1.487,0,0,0,.86-.261,1.115,1.115,0,0,1,.637-.189,1,1,0,0,1,.607.185l.707.546.235-.3-.707-.546a1.383,1.383,0,0,0-.842-.265,1.484,1.484,0,0,0-.86.261,1.107,1.107,0,0,1-.637.189,1,1,0,0,1-.607-.185,1.379,1.379,0,0,0-.842-.265,1.486,1.486,0,0,0-.86.261,1.107,1.107,0,0,1-.637.189,1,1,0,0,1-.607-.185,1.378,1.378,0,0,0-.841-.265,1.487,1.487,0,0,0-.861.261,1.105,1.105,0,0,1-.637.189,1,1,0,0,1-.607-.185,1.378,1.378,0,0,0-.841-.265,1.484,1.484,0,0,0-.86.261,1.107,1.107,0,0,1-.637.189,1,1,0,0,1-.607-.185,1.379,1.379,0,0,0-.842-.265,1.486,1.486,0,0,0-.86.261,1.107,1.107,0,0,1-.637.189,1,1,0,0,1-.607-.185,1.378,1.378,0,0,0-.841-.265,1.487,1.487,0,0,0-.861.261,1.1,1.1,0,0,1-.637.189,1,1,0,0,1-.606-.185,1.383,1.383,0,0,0-.842-.265,1.484,1.484,0,0,0-.86.261,1.107,1.107,0,0,1-.637.189,1,1,0,0,1-.607-.185,1.379,1.379,0,0,0-.842-.265,1.487,1.487,0,0,0-.86.261,1.107,1.107,0,0,1-.637.189,1,1,0,0,1-.607-.185,1.379,1.379,0,0,0-.842-.265,1.486,1.486,0,0,0-.86.261,1.1,1.1,0,0,1-.637.189,1,1,0,0,1-.607-.185,1.378,1.378,0,0,0-.841-.265,1.484,1.484,0,0,0-.86.261,1.107,1.107,0,0,1-.637.189,1,1,0,0,1-.607-.185,1.379,1.379,0,0,0-.842-.265,1.486,1.486,0,0,0-.86.261,1.107,1.107,0,0,1-.637.189,1,1,0,0,1-.607-.185,1.379,1.379,0,0,0-.842-.265,1.486,1.486,0,0,0-.86.261,1.105,1.105,0,0,1-.637.189,1,1,0,0,1-.607-.185l-.706-.546-.235.3" transform="translate(571.999 1248.261) rotate(-90)" fill="#161615"/>
      </g>
      <g transform="translate(-1083.8 -452.2)">
        <path id="Path_413-16" data-name="Path 413" d="M759.064,542.1l.707.546a1.378,1.378,0,0,0,.841.265,1.485,1.485,0,0,0,.86-.261,1.117,1.117,0,0,1,.637-.189,1,1,0,0,1,.607.185,1.381,1.381,0,0,0,.842.265,1.485,1.485,0,0,0,.86-.261,1.115,1.115,0,0,1,.637-.189,1,1,0,0,1,.607.185,1.379,1.379,0,0,0,.842.265,1.487,1.487,0,0,0,.86-.261,1.115,1.115,0,0,1,.637-.189,1,1,0,0,1,.607.185,1.378,1.378,0,0,0,.841.265,1.485,1.485,0,0,0,.86-.261,1.117,1.117,0,0,1,.637-.189,1,1,0,0,1,.607.185,1.381,1.381,0,0,0,.842.265,1.485,1.485,0,0,0,.86-.261,1.115,1.115,0,0,1,.637-.189,1,1,0,0,1,.607.185,1.379,1.379,0,0,0,.842.265,1.487,1.487,0,0,0,.86-.261,1.115,1.115,0,0,1,.637-.189,1,1,0,0,1,.607.185,1.378,1.378,0,0,0,.841.265,1.485,1.485,0,0,0,.86-.261,1.118,1.118,0,0,1,.638-.189,1,1,0,0,1,.606.185,1.383,1.383,0,0,0,.842.265,1.485,1.485,0,0,0,.86-.261,1.115,1.115,0,0,1,.637-.189,1,1,0,0,1,.607.185,1.379,1.379,0,0,0,.842.265,1.487,1.487,0,0,0,.86-.261,1.115,1.115,0,0,1,.637-.189,1,1,0,0,1,.607.185,1.378,1.378,0,0,0,.841.265,1.485,1.485,0,0,0,.86-.261,1.118,1.118,0,0,1,.638-.189,1,1,0,0,1,.606.185,1.383,1.383,0,0,0,.842.265,1.485,1.485,0,0,0,.86-.261,1.115,1.115,0,0,1,.637-.189,1,1,0,0,1,.607.185,1.379,1.379,0,0,0,.842.265,1.487,1.487,0,0,0,.86-.261,1.115,1.115,0,0,1,.637-.189,1,1,0,0,1,.607.185l.707.546.235-.3-.707-.546a1.383,1.383,0,0,0-.842-.265,1.484,1.484,0,0,0-.86.261,1.107,1.107,0,0,1-.637.189,1,1,0,0,1-.607-.185,1.379,1.379,0,0,0-.842-.265,1.486,1.486,0,0,0-.86.261,1.107,1.107,0,0,1-.637.189,1,1,0,0,1-.607-.185,1.378,1.378,0,0,0-.841-.265,1.487,1.487,0,0,0-.861.261,1.105,1.105,0,0,1-.637.189,1,1,0,0,1-.607-.185,1.378,1.378,0,0,0-.841-.265,1.484,1.484,0,0,0-.86.261,1.107,1.107,0,0,1-.637.189,1,1,0,0,1-.607-.185,1.379,1.379,0,0,0-.842-.265,1.486,1.486,0,0,0-.86.261,1.107,1.107,0,0,1-.637.189,1,1,0,0,1-.607-.185,1.378,1.378,0,0,0-.841-.265,1.487,1.487,0,0,0-.861.261,1.1,1.1,0,0,1-.637.189,1,1,0,0,1-.606-.185,1.383,1.383,0,0,0-.842-.265,1.484,1.484,0,0,0-.86.261,1.107,1.107,0,0,1-.637.189,1,1,0,0,1-.607-.185,1.379,1.379,0,0,0-.842-.265,1.487,1.487,0,0,0-.86.261,1.107,1.107,0,0,1-.637.189,1,1,0,0,1-.607-.185,1.379,1.379,0,0,0-.842-.265,1.486,1.486,0,0,0-.86.261,1.1,1.1,0,0,1-.637.189,1,1,0,0,1-.607-.185,1.378,1.378,0,0,0-.841-.265,1.484,1.484,0,0,0-.86.261,1.107,1.107,0,0,1-.637.189,1,1,0,0,1-.607-.185,1.379,1.379,0,0,0-.842-.265,1.486,1.486,0,0,0-.86.261,1.107,1.107,0,0,1-.637.189,1,1,0,0,1-.607-.185,1.379,1.379,0,0,0-.842-.265,1.486,1.486,0,0,0-.86.261,1.105,1.105,0,0,1-.637.189,1,1,0,0,1-.607-.185l-.706-.546-.235.3" transform="translate(571.999 1248.261) rotate(-90)" fill="#161615"/>
      </g>
      <g transform="translate(-1081.8 -452.2)">
        <path id="Path_413-17" data-name="Path 413" d="M759.064,542.1l.707.546a1.378,1.378,0,0,0,.841.265,1.485,1.485,0,0,0,.86-.261,1.117,1.117,0,0,1,.637-.189,1,1,0,0,1,.607.185,1.381,1.381,0,0,0,.842.265,1.485,1.485,0,0,0,.86-.261,1.115,1.115,0,0,1,.637-.189,1,1,0,0,1,.607.185,1.379,1.379,0,0,0,.842.265,1.487,1.487,0,0,0,.86-.261,1.115,1.115,0,0,1,.637-.189,1,1,0,0,1,.607.185,1.378,1.378,0,0,0,.841.265,1.485,1.485,0,0,0,.86-.261,1.117,1.117,0,0,1,.637-.189,1,1,0,0,1,.607.185,1.381,1.381,0,0,0,.842.265,1.485,1.485,0,0,0,.86-.261,1.115,1.115,0,0,1,.637-.189,1,1,0,0,1,.607.185,1.379,1.379,0,0,0,.842.265,1.487,1.487,0,0,0,.86-.261,1.115,1.115,0,0,1,.637-.189,1,1,0,0,1,.607.185,1.378,1.378,0,0,0,.841.265,1.485,1.485,0,0,0,.86-.261,1.118,1.118,0,0,1,.638-.189,1,1,0,0,1,.606.185,1.383,1.383,0,0,0,.842.265,1.485,1.485,0,0,0,.86-.261,1.115,1.115,0,0,1,.637-.189,1,1,0,0,1,.607.185,1.379,1.379,0,0,0,.842.265,1.487,1.487,0,0,0,.86-.261,1.115,1.115,0,0,1,.637-.189,1,1,0,0,1,.607.185,1.378,1.378,0,0,0,.841.265,1.485,1.485,0,0,0,.86-.261,1.118,1.118,0,0,1,.638-.189,1,1,0,0,1,.606.185,1.383,1.383,0,0,0,.842.265,1.485,1.485,0,0,0,.86-.261,1.115,1.115,0,0,1,.637-.189,1,1,0,0,1,.607.185,1.379,1.379,0,0,0,.842.265,1.487,1.487,0,0,0,.86-.261,1.115,1.115,0,0,1,.637-.189,1,1,0,0,1,.607.185l.707.546.235-.3-.707-.546a1.383,1.383,0,0,0-.842-.265,1.484,1.484,0,0,0-.86.261,1.107,1.107,0,0,1-.637.189,1,1,0,0,1-.607-.185,1.379,1.379,0,0,0-.842-.265,1.486,1.486,0,0,0-.86.261,1.107,1.107,0,0,1-.637.189,1,1,0,0,1-.607-.185,1.378,1.378,0,0,0-.841-.265,1.487,1.487,0,0,0-.861.261,1.105,1.105,0,0,1-.637.189,1,1,0,0,1-.607-.185,1.378,1.378,0,0,0-.841-.265,1.484,1.484,0,0,0-.86.261,1.107,1.107,0,0,1-.637.189,1,1,0,0,1-.607-.185,1.379,1.379,0,0,0-.842-.265,1.486,1.486,0,0,0-.86.261,1.107,1.107,0,0,1-.637.189,1,1,0,0,1-.607-.185,1.378,1.378,0,0,0-.841-.265,1.487,1.487,0,0,0-.861.261,1.1,1.1,0,0,1-.637.189,1,1,0,0,1-.606-.185,1.383,1.383,0,0,0-.842-.265,1.484,1.484,0,0,0-.86.261,1.107,1.107,0,0,1-.637.189,1,1,0,0,1-.607-.185,1.379,1.379,0,0,0-.842-.265,1.487,1.487,0,0,0-.86.261,1.107,1.107,0,0,1-.637.189,1,1,0,0,1-.607-.185,1.379,1.379,0,0,0-.842-.265,1.486,1.486,0,0,0-.86.261,1.1,1.1,0,0,1-.637.189,1,1,0,0,1-.607-.185,1.378,1.378,0,0,0-.841-.265,1.484,1.484,0,0,0-.86.261,1.107,1.107,0,0,1-.637.189,1,1,0,0,1-.607-.185,1.379,1.379,0,0,0-.842-.265,1.486,1.486,0,0,0-.86.261,1.107,1.107,0,0,1-.637.189,1,1,0,0,1-.607-.185,1.379,1.379,0,0,0-.842-.265,1.486,1.486,0,0,0-.86.261,1.105,1.105,0,0,1-.637.189,1,1,0,0,1-.607-.185l-.706-.546-.235.3" transform="translate(571.999 1248.261) rotate(-90)" fill="#161615"/>
      </g>
      <g transform="translate(-1079.8 -452.2)">
        <path id="Path_413-18" data-name="Path 413" d="M759.064,542.1l.707.546a1.378,1.378,0,0,0,.841.265,1.485,1.485,0,0,0,.86-.261,1.117,1.117,0,0,1,.637-.189,1,1,0,0,1,.607.185,1.381,1.381,0,0,0,.842.265,1.485,1.485,0,0,0,.86-.261,1.115,1.115,0,0,1,.637-.189,1,1,0,0,1,.607.185,1.379,1.379,0,0,0,.842.265,1.487,1.487,0,0,0,.86-.261,1.115,1.115,0,0,1,.637-.189,1,1,0,0,1,.607.185,1.378,1.378,0,0,0,.841.265,1.485,1.485,0,0,0,.86-.261,1.117,1.117,0,0,1,.637-.189,1,1,0,0,1,.607.185,1.381,1.381,0,0,0,.842.265,1.485,1.485,0,0,0,.86-.261,1.115,1.115,0,0,1,.637-.189,1,1,0,0,1,.607.185,1.379,1.379,0,0,0,.842.265,1.487,1.487,0,0,0,.86-.261,1.115,1.115,0,0,1,.637-.189,1,1,0,0,1,.607.185,1.378,1.378,0,0,0,.841.265,1.485,1.485,0,0,0,.86-.261,1.118,1.118,0,0,1,.638-.189,1,1,0,0,1,.606.185,1.383,1.383,0,0,0,.842.265,1.485,1.485,0,0,0,.86-.261,1.115,1.115,0,0,1,.637-.189,1,1,0,0,1,.607.185,1.379,1.379,0,0,0,.842.265,1.487,1.487,0,0,0,.86-.261,1.115,1.115,0,0,1,.637-.189,1,1,0,0,1,.607.185,1.378,1.378,0,0,0,.841.265,1.485,1.485,0,0,0,.86-.261,1.118,1.118,0,0,1,.638-.189,1,1,0,0,1,.606.185,1.383,1.383,0,0,0,.842.265,1.485,1.485,0,0,0,.86-.261,1.115,1.115,0,0,1,.637-.189,1,1,0,0,1,.607.185,1.379,1.379,0,0,0,.842.265,1.487,1.487,0,0,0,.86-.261,1.115,1.115,0,0,1,.637-.189,1,1,0,0,1,.607.185l.707.546.235-.3-.707-.546a1.383,1.383,0,0,0-.842-.265,1.484,1.484,0,0,0-.86.261,1.107,1.107,0,0,1-.637.189,1,1,0,0,1-.607-.185,1.379,1.379,0,0,0-.842-.265,1.486,1.486,0,0,0-.86.261,1.107,1.107,0,0,1-.637.189,1,1,0,0,1-.607-.185,1.378,1.378,0,0,0-.841-.265,1.487,1.487,0,0,0-.861.261,1.105,1.105,0,0,1-.637.189,1,1,0,0,1-.607-.185,1.378,1.378,0,0,0-.841-.265,1.484,1.484,0,0,0-.86.261,1.107,1.107,0,0,1-.637.189,1,1,0,0,1-.607-.185,1.379,1.379,0,0,0-.842-.265,1.486,1.486,0,0,0-.86.261,1.107,1.107,0,0,1-.637.189,1,1,0,0,1-.607-.185,1.378,1.378,0,0,0-.841-.265,1.487,1.487,0,0,0-.861.261,1.1,1.1,0,0,1-.637.189,1,1,0,0,1-.606-.185,1.383,1.383,0,0,0-.842-.265,1.484,1.484,0,0,0-.86.261,1.107,1.107,0,0,1-.637.189,1,1,0,0,1-.607-.185,1.379,1.379,0,0,0-.842-.265,1.487,1.487,0,0,0-.86.261,1.107,1.107,0,0,1-.637.189,1,1,0,0,1-.607-.185,1.379,1.379,0,0,0-.842-.265,1.486,1.486,0,0,0-.86.261,1.1,1.1,0,0,1-.637.189,1,1,0,0,1-.607-.185,1.378,1.378,0,0,0-.841-.265,1.484,1.484,0,0,0-.86.261,1.107,1.107,0,0,1-.637.189,1,1,0,0,1-.607-.185,1.379,1.379,0,0,0-.842-.265,1.486,1.486,0,0,0-.86.261,1.107,1.107,0,0,1-.637.189,1,1,0,0,1-.607-.185,1.379,1.379,0,0,0-.842-.265,1.486,1.486,0,0,0-.86.261,1.105,1.105,0,0,1-.637.189,1,1,0,0,1-.607-.185l-.706-.546-.235.3" transform="translate(571.999 1248.261) rotate(-90)" fill="#161615"/>
      </g>
      <g transform="translate(-1077.8 -452.2)">
        <path id="Path_413-19" data-name="Path 413" d="M759.064,542.1l.707.546a1.378,1.378,0,0,0,.841.265,1.485,1.485,0,0,0,.86-.261,1.117,1.117,0,0,1,.637-.189,1,1,0,0,1,.607.185,1.381,1.381,0,0,0,.842.265,1.485,1.485,0,0,0,.86-.261,1.115,1.115,0,0,1,.637-.189,1,1,0,0,1,.607.185,1.379,1.379,0,0,0,.842.265,1.487,1.487,0,0,0,.86-.261,1.115,1.115,0,0,1,.637-.189,1,1,0,0,1,.607.185,1.378,1.378,0,0,0,.841.265,1.485,1.485,0,0,0,.86-.261,1.117,1.117,0,0,1,.637-.189,1,1,0,0,1,.607.185,1.381,1.381,0,0,0,.842.265,1.485,1.485,0,0,0,.86-.261,1.115,1.115,0,0,1,.637-.189,1,1,0,0,1,.607.185,1.379,1.379,0,0,0,.842.265,1.487,1.487,0,0,0,.86-.261,1.115,1.115,0,0,1,.637-.189,1,1,0,0,1,.607.185,1.378,1.378,0,0,0,.841.265,1.485,1.485,0,0,0,.86-.261,1.118,1.118,0,0,1,.638-.189,1,1,0,0,1,.606.185,1.383,1.383,0,0,0,.842.265,1.485,1.485,0,0,0,.86-.261,1.115,1.115,0,0,1,.637-.189,1,1,0,0,1,.607.185,1.379,1.379,0,0,0,.842.265,1.487,1.487,0,0,0,.86-.261,1.115,1.115,0,0,1,.637-.189,1,1,0,0,1,.607.185,1.378,1.378,0,0,0,.841.265,1.485,1.485,0,0,0,.86-.261,1.118,1.118,0,0,1,.638-.189,1,1,0,0,1,.606.185,1.383,1.383,0,0,0,.842.265,1.485,1.485,0,0,0,.86-.261,1.115,1.115,0,0,1,.637-.189,1,1,0,0,1,.607.185,1.379,1.379,0,0,0,.842.265,1.487,1.487,0,0,0,.86-.261,1.115,1.115,0,0,1,.637-.189,1,1,0,0,1,.607.185l.707.546.235-.3-.707-.546a1.383,1.383,0,0,0-.842-.265,1.484,1.484,0,0,0-.86.261,1.107,1.107,0,0,1-.637.189,1,1,0,0,1-.607-.185,1.379,1.379,0,0,0-.842-.265,1.486,1.486,0,0,0-.86.261,1.107,1.107,0,0,1-.637.189,1,1,0,0,1-.607-.185,1.378,1.378,0,0,0-.841-.265,1.487,1.487,0,0,0-.861.261,1.105,1.105,0,0,1-.637.189,1,1,0,0,1-.607-.185,1.378,1.378,0,0,0-.841-.265,1.484,1.484,0,0,0-.86.261,1.107,1.107,0,0,1-.637.189,1,1,0,0,1-.607-.185,1.379,1.379,0,0,0-.842-.265,1.486,1.486,0,0,0-.86.261,1.107,1.107,0,0,1-.637.189,1,1,0,0,1-.607-.185,1.378,1.378,0,0,0-.841-.265,1.487,1.487,0,0,0-.861.261,1.1,1.1,0,0,1-.637.189,1,1,0,0,1-.606-.185,1.383,1.383,0,0,0-.842-.265,1.484,1.484,0,0,0-.86.261,1.107,1.107,0,0,1-.637.189,1,1,0,0,1-.607-.185,1.379,1.379,0,0,0-.842-.265,1.487,1.487,0,0,0-.86.261,1.107,1.107,0,0,1-.637.189,1,1,0,0,1-.607-.185,1.379,1.379,0,0,0-.842-.265,1.486,1.486,0,0,0-.86.261,1.1,1.1,0,0,1-.637.189,1,1,0,0,1-.607-.185,1.378,1.378,0,0,0-.841-.265,1.484,1.484,0,0,0-.86.261,1.107,1.107,0,0,1-.637.189,1,1,0,0,1-.607-.185,1.379,1.379,0,0,0-.842-.265,1.486,1.486,0,0,0-.86.261,1.107,1.107,0,0,1-.637.189,1,1,0,0,1-.607-.185,1.379,1.379,0,0,0-.842-.265,1.486,1.486,0,0,0-.86.261,1.105,1.105,0,0,1-.637.189,1,1,0,0,1-.607-.185l-.706-.546-.235.3" transform="translate(571.999 1248.261) rotate(-90)" fill="#161615"/>
      </g>
      <g transform="translate(-1075.8 -452.2)">
        <path id="Path_413-20" data-name="Path 413" d="M759.064,542.1l.707.546a1.378,1.378,0,0,0,.841.265,1.485,1.485,0,0,0,.86-.261,1.117,1.117,0,0,1,.637-.189,1,1,0,0,1,.607.185,1.381,1.381,0,0,0,.842.265,1.485,1.485,0,0,0,.86-.261,1.115,1.115,0,0,1,.637-.189,1,1,0,0,1,.607.185,1.379,1.379,0,0,0,.842.265,1.487,1.487,0,0,0,.86-.261,1.115,1.115,0,0,1,.637-.189,1,1,0,0,1,.607.185,1.378,1.378,0,0,0,.841.265,1.485,1.485,0,0,0,.86-.261,1.117,1.117,0,0,1,.637-.189,1,1,0,0,1,.607.185,1.381,1.381,0,0,0,.842.265,1.485,1.485,0,0,0,.86-.261,1.115,1.115,0,0,1,.637-.189,1,1,0,0,1,.607.185,1.379,1.379,0,0,0,.842.265,1.487,1.487,0,0,0,.86-.261,1.115,1.115,0,0,1,.637-.189,1,1,0,0,1,.607.185,1.378,1.378,0,0,0,.841.265,1.485,1.485,0,0,0,.86-.261,1.118,1.118,0,0,1,.638-.189,1,1,0,0,1,.606.185,1.383,1.383,0,0,0,.842.265,1.485,1.485,0,0,0,.86-.261,1.115,1.115,0,0,1,.637-.189,1,1,0,0,1,.607.185,1.379,1.379,0,0,0,.842.265,1.487,1.487,0,0,0,.86-.261,1.115,1.115,0,0,1,.637-.189,1,1,0,0,1,.607.185,1.378,1.378,0,0,0,.841.265,1.485,1.485,0,0,0,.86-.261,1.118,1.118,0,0,1,.638-.189,1,1,0,0,1,.606.185,1.383,1.383,0,0,0,.842.265,1.485,1.485,0,0,0,.86-.261,1.115,1.115,0,0,1,.637-.189,1,1,0,0,1,.607.185,1.379,1.379,0,0,0,.842.265,1.487,1.487,0,0,0,.86-.261,1.115,1.115,0,0,1,.637-.189,1,1,0,0,1,.607.185l.707.546.235-.3-.707-.546a1.383,1.383,0,0,0-.842-.265,1.484,1.484,0,0,0-.86.261,1.107,1.107,0,0,1-.637.189,1,1,0,0,1-.607-.185,1.379,1.379,0,0,0-.842-.265,1.486,1.486,0,0,0-.86.261,1.107,1.107,0,0,1-.637.189,1,1,0,0,1-.607-.185,1.378,1.378,0,0,0-.841-.265,1.487,1.487,0,0,0-.861.261,1.105,1.105,0,0,1-.637.189,1,1,0,0,1-.607-.185,1.378,1.378,0,0,0-.841-.265,1.484,1.484,0,0,0-.86.261,1.107,1.107,0,0,1-.637.189,1,1,0,0,1-.607-.185,1.379,1.379,0,0,0-.842-.265,1.486,1.486,0,0,0-.86.261,1.107,1.107,0,0,1-.637.189,1,1,0,0,1-.607-.185,1.378,1.378,0,0,0-.841-.265,1.487,1.487,0,0,0-.861.261,1.1,1.1,0,0,1-.637.189,1,1,0,0,1-.606-.185,1.383,1.383,0,0,0-.842-.265,1.484,1.484,0,0,0-.86.261,1.107,1.107,0,0,1-.637.189,1,1,0,0,1-.607-.185,1.379,1.379,0,0,0-.842-.265,1.487,1.487,0,0,0-.86.261,1.107,1.107,0,0,1-.637.189,1,1,0,0,1-.607-.185,1.379,1.379,0,0,0-.842-.265,1.486,1.486,0,0,0-.86.261,1.1,1.1,0,0,1-.637.189,1,1,0,0,1-.607-.185,1.378,1.378,0,0,0-.841-.265,1.484,1.484,0,0,0-.86.261,1.107,1.107,0,0,1-.637.189,1,1,0,0,1-.607-.185,1.379,1.379,0,0,0-.842-.265,1.486,1.486,0,0,0-.86.261,1.107,1.107,0,0,1-.637.189,1,1,0,0,1-.607-.185,1.379,1.379,0,0,0-.842-.265,1.486,1.486,0,0,0-.86.261,1.105,1.105,0,0,1-.637.189,1,1,0,0,1-.607-.185l-.706-.546-.235.3" transform="translate(571.999 1248.261) rotate(-90)" fill="#161615"/>
      </g>
      <g transform="translate(-1073.8 -452.2)">
        <path id="Path_413-21" data-name="Path 413" d="M759.064,542.1l.707.546a1.378,1.378,0,0,0,.841.265,1.485,1.485,0,0,0,.86-.261,1.117,1.117,0,0,1,.637-.189,1,1,0,0,1,.607.185,1.381,1.381,0,0,0,.842.265,1.485,1.485,0,0,0,.86-.261,1.115,1.115,0,0,1,.637-.189,1,1,0,0,1,.607.185,1.379,1.379,0,0,0,.842.265,1.487,1.487,0,0,0,.86-.261,1.115,1.115,0,0,1,.637-.189,1,1,0,0,1,.607.185,1.378,1.378,0,0,0,.841.265,1.485,1.485,0,0,0,.86-.261,1.117,1.117,0,0,1,.637-.189,1,1,0,0,1,.607.185,1.381,1.381,0,0,0,.842.265,1.485,1.485,0,0,0,.86-.261,1.115,1.115,0,0,1,.637-.189,1,1,0,0,1,.607.185,1.379,1.379,0,0,0,.842.265,1.487,1.487,0,0,0,.86-.261,1.115,1.115,0,0,1,.637-.189,1,1,0,0,1,.607.185,1.378,1.378,0,0,0,.841.265,1.485,1.485,0,0,0,.86-.261,1.118,1.118,0,0,1,.638-.189,1,1,0,0,1,.606.185,1.383,1.383,0,0,0,.842.265,1.485,1.485,0,0,0,.86-.261,1.115,1.115,0,0,1,.637-.189,1,1,0,0,1,.607.185,1.379,1.379,0,0,0,.842.265,1.487,1.487,0,0,0,.86-.261,1.115,1.115,0,0,1,.637-.189,1,1,0,0,1,.607.185,1.378,1.378,0,0,0,.841.265,1.485,1.485,0,0,0,.86-.261,1.118,1.118,0,0,1,.638-.189,1,1,0,0,1,.606.185,1.383,1.383,0,0,0,.842.265,1.485,1.485,0,0,0,.86-.261,1.115,1.115,0,0,1,.637-.189,1,1,0,0,1,.607.185,1.379,1.379,0,0,0,.842.265,1.487,1.487,0,0,0,.86-.261,1.115,1.115,0,0,1,.637-.189,1,1,0,0,1,.607.185l.707.546.235-.3-.707-.546a1.383,1.383,0,0,0-.842-.265,1.484,1.484,0,0,0-.86.261,1.107,1.107,0,0,1-.637.189,1,1,0,0,1-.607-.185,1.379,1.379,0,0,0-.842-.265,1.486,1.486,0,0,0-.86.261,1.107,1.107,0,0,1-.637.189,1,1,0,0,1-.607-.185,1.378,1.378,0,0,0-.841-.265,1.487,1.487,0,0,0-.861.261,1.105,1.105,0,0,1-.637.189,1,1,0,0,1-.607-.185,1.378,1.378,0,0,0-.841-.265,1.484,1.484,0,0,0-.86.261,1.107,1.107,0,0,1-.637.189,1,1,0,0,1-.607-.185,1.379,1.379,0,0,0-.842-.265,1.486,1.486,0,0,0-.86.261,1.107,1.107,0,0,1-.637.189,1,1,0,0,1-.607-.185,1.378,1.378,0,0,0-.841-.265,1.487,1.487,0,0,0-.861.261,1.1,1.1,0,0,1-.637.189,1,1,0,0,1-.606-.185,1.383,1.383,0,0,0-.842-.265,1.484,1.484,0,0,0-.86.261,1.107,1.107,0,0,1-.637.189,1,1,0,0,1-.607-.185,1.379,1.379,0,0,0-.842-.265,1.487,1.487,0,0,0-.86.261,1.107,1.107,0,0,1-.637.189,1,1,0,0,1-.607-.185,1.379,1.379,0,0,0-.842-.265,1.486,1.486,0,0,0-.86.261,1.1,1.1,0,0,1-.637.189,1,1,0,0,1-.607-.185,1.378,1.378,0,0,0-.841-.265,1.484,1.484,0,0,0-.86.261,1.107,1.107,0,0,1-.637.189,1,1,0,0,1-.607-.185,1.379,1.379,0,0,0-.842-.265,1.486,1.486,0,0,0-.86.261,1.107,1.107,0,0,1-.637.189,1,1,0,0,1-.607-.185,1.379,1.379,0,0,0-.842-.265,1.486,1.486,0,0,0-.86.261,1.105,1.105,0,0,1-.637.189,1,1,0,0,1-.607-.185l-.706-.546-.235.3" transform="translate(571.999 1248.261) rotate(-90)" fill="#161615"/>
      </g>
      <g transform="translate(-1071.8 -452.2)">
        <path id="Path_413-22" data-name="Path 413" d="M759.064,542.1l.707.546a1.378,1.378,0,0,0,.841.265,1.485,1.485,0,0,0,.86-.261,1.117,1.117,0,0,1,.637-.189,1,1,0,0,1,.607.185,1.381,1.381,0,0,0,.842.265,1.485,1.485,0,0,0,.86-.261,1.115,1.115,0,0,1,.637-.189,1,1,0,0,1,.607.185,1.379,1.379,0,0,0,.842.265,1.487,1.487,0,0,0,.86-.261,1.115,1.115,0,0,1,.637-.189,1,1,0,0,1,.607.185,1.378,1.378,0,0,0,.841.265,1.485,1.485,0,0,0,.86-.261,1.117,1.117,0,0,1,.637-.189,1,1,0,0,1,.607.185,1.381,1.381,0,0,0,.842.265,1.485,1.485,0,0,0,.86-.261,1.115,1.115,0,0,1,.637-.189,1,1,0,0,1,.607.185,1.379,1.379,0,0,0,.842.265,1.487,1.487,0,0,0,.86-.261,1.115,1.115,0,0,1,.637-.189,1,1,0,0,1,.607.185,1.378,1.378,0,0,0,.841.265,1.485,1.485,0,0,0,.86-.261,1.118,1.118,0,0,1,.638-.189,1,1,0,0,1,.606.185,1.383,1.383,0,0,0,.842.265,1.485,1.485,0,0,0,.86-.261,1.115,1.115,0,0,1,.637-.189,1,1,0,0,1,.607.185,1.379,1.379,0,0,0,.842.265,1.487,1.487,0,0,0,.86-.261,1.115,1.115,0,0,1,.637-.189,1,1,0,0,1,.607.185,1.378,1.378,0,0,0,.841.265,1.485,1.485,0,0,0,.86-.261,1.118,1.118,0,0,1,.638-.189,1,1,0,0,1,.606.185,1.383,1.383,0,0,0,.842.265,1.485,1.485,0,0,0,.86-.261,1.115,1.115,0,0,1,.637-.189,1,1,0,0,1,.607.185,1.379,1.379,0,0,0,.842.265,1.487,1.487,0,0,0,.86-.261,1.115,1.115,0,0,1,.637-.189,1,1,0,0,1,.607.185l.707.546.235-.3-.707-.546a1.383,1.383,0,0,0-.842-.265,1.484,1.484,0,0,0-.86.261,1.107,1.107,0,0,1-.637.189,1,1,0,0,1-.607-.185,1.379,1.379,0,0,0-.842-.265,1.486,1.486,0,0,0-.86.261,1.107,1.107,0,0,1-.637.189,1,1,0,0,1-.607-.185,1.378,1.378,0,0,0-.841-.265,1.487,1.487,0,0,0-.861.261,1.105,1.105,0,0,1-.637.189,1,1,0,0,1-.607-.185,1.378,1.378,0,0,0-.841-.265,1.484,1.484,0,0,0-.86.261,1.107,1.107,0,0,1-.637.189,1,1,0,0,1-.607-.185,1.379,1.379,0,0,0-.842-.265,1.486,1.486,0,0,0-.86.261,1.107,1.107,0,0,1-.637.189,1,1,0,0,1-.607-.185,1.378,1.378,0,0,0-.841-.265,1.487,1.487,0,0,0-.861.261,1.1,1.1,0,0,1-.637.189,1,1,0,0,1-.606-.185,1.383,1.383,0,0,0-.842-.265,1.484,1.484,0,0,0-.86.261,1.107,1.107,0,0,1-.637.189,1,1,0,0,1-.607-.185,1.379,1.379,0,0,0-.842-.265,1.487,1.487,0,0,0-.86.261,1.107,1.107,0,0,1-.637.189,1,1,0,0,1-.607-.185,1.379,1.379,0,0,0-.842-.265,1.486,1.486,0,0,0-.86.261,1.1,1.1,0,0,1-.637.189,1,1,0,0,1-.607-.185,1.378,1.378,0,0,0-.841-.265,1.484,1.484,0,0,0-.86.261,1.107,1.107,0,0,1-.637.189,1,1,0,0,1-.607-.185,1.379,1.379,0,0,0-.842-.265,1.486,1.486,0,0,0-.86.261,1.107,1.107,0,0,1-.637.189,1,1,0,0,1-.607-.185,1.379,1.379,0,0,0-.842-.265,1.486,1.486,0,0,0-.86.261,1.105,1.105,0,0,1-.637.189,1,1,0,0,1-.607-.185l-.706-.546-.235.3" transform="translate(571.999 1248.261) rotate(-90)" fill="#161615"/>
      </g>
      <g transform="translate(-1069.8 -452.2)">
        <path id="Path_413-23" data-name="Path 413" d="M759.064,542.1l.707.546a1.378,1.378,0,0,0,.841.265,1.485,1.485,0,0,0,.86-.261,1.117,1.117,0,0,1,.637-.189,1,1,0,0,1,.607.185,1.381,1.381,0,0,0,.842.265,1.485,1.485,0,0,0,.86-.261,1.115,1.115,0,0,1,.637-.189,1,1,0,0,1,.607.185,1.379,1.379,0,0,0,.842.265,1.487,1.487,0,0,0,.86-.261,1.115,1.115,0,0,1,.637-.189,1,1,0,0,1,.607.185,1.378,1.378,0,0,0,.841.265,1.485,1.485,0,0,0,.86-.261,1.117,1.117,0,0,1,.637-.189,1,1,0,0,1,.607.185,1.381,1.381,0,0,0,.842.265,1.485,1.485,0,0,0,.86-.261,1.115,1.115,0,0,1,.637-.189,1,1,0,0,1,.607.185,1.379,1.379,0,0,0,.842.265,1.487,1.487,0,0,0,.86-.261,1.115,1.115,0,0,1,.637-.189,1,1,0,0,1,.607.185,1.378,1.378,0,0,0,.841.265,1.485,1.485,0,0,0,.86-.261,1.118,1.118,0,0,1,.638-.189,1,1,0,0,1,.606.185,1.383,1.383,0,0,0,.842.265,1.485,1.485,0,0,0,.86-.261,1.115,1.115,0,0,1,.637-.189,1,1,0,0,1,.607.185,1.379,1.379,0,0,0,.842.265,1.487,1.487,0,0,0,.86-.261,1.115,1.115,0,0,1,.637-.189,1,1,0,0,1,.607.185,1.378,1.378,0,0,0,.841.265,1.485,1.485,0,0,0,.86-.261,1.118,1.118,0,0,1,.638-.189,1,1,0,0,1,.606.185,1.383,1.383,0,0,0,.842.265,1.485,1.485,0,0,0,.86-.261,1.115,1.115,0,0,1,.637-.189,1,1,0,0,1,.607.185,1.379,1.379,0,0,0,.842.265,1.487,1.487,0,0,0,.86-.261,1.115,1.115,0,0,1,.637-.189,1,1,0,0,1,.607.185l.707.546.235-.3-.707-.546a1.383,1.383,0,0,0-.842-.265,1.484,1.484,0,0,0-.86.261,1.107,1.107,0,0,1-.637.189,1,1,0,0,1-.607-.185,1.379,1.379,0,0,0-.842-.265,1.486,1.486,0,0,0-.86.261,1.107,1.107,0,0,1-.637.189,1,1,0,0,1-.607-.185,1.378,1.378,0,0,0-.841-.265,1.487,1.487,0,0,0-.861.261,1.105,1.105,0,0,1-.637.189,1,1,0,0,1-.607-.185,1.378,1.378,0,0,0-.841-.265,1.484,1.484,0,0,0-.86.261,1.107,1.107,0,0,1-.637.189,1,1,0,0,1-.607-.185,1.379,1.379,0,0,0-.842-.265,1.486,1.486,0,0,0-.86.261,1.107,1.107,0,0,1-.637.189,1,1,0,0,1-.607-.185,1.378,1.378,0,0,0-.841-.265,1.487,1.487,0,0,0-.861.261,1.1,1.1,0,0,1-.637.189,1,1,0,0,1-.606-.185,1.383,1.383,0,0,0-.842-.265,1.484,1.484,0,0,0-.86.261,1.107,1.107,0,0,1-.637.189,1,1,0,0,1-.607-.185,1.379,1.379,0,0,0-.842-.265,1.487,1.487,0,0,0-.86.261,1.107,1.107,0,0,1-.637.189,1,1,0,0,1-.607-.185,1.379,1.379,0,0,0-.842-.265,1.486,1.486,0,0,0-.86.261,1.1,1.1,0,0,1-.637.189,1,1,0,0,1-.607-.185,1.378,1.378,0,0,0-.841-.265,1.484,1.484,0,0,0-.86.261,1.107,1.107,0,0,1-.637.189,1,1,0,0,1-.607-.185,1.379,1.379,0,0,0-.842-.265,1.486,1.486,0,0,0-.86.261,1.107,1.107,0,0,1-.637.189,1,1,0,0,1-.607-.185,1.379,1.379,0,0,0-.842-.265,1.486,1.486,0,0,0-.86.261,1.105,1.105,0,0,1-.637.189,1,1,0,0,1-.607-.185l-.706-.546-.235.3" transform="translate(571.999 1248.261) rotate(-90)" fill="#161615"/>
      </g>
      <g transform="translate(-1067.8 -452.2)">
        <path id="Path_413-24" data-name="Path 413" d="M759.064,542.1l.707.546a1.378,1.378,0,0,0,.841.265,1.485,1.485,0,0,0,.86-.261,1.117,1.117,0,0,1,.637-.189,1,1,0,0,1,.607.185,1.381,1.381,0,0,0,.842.265,1.485,1.485,0,0,0,.86-.261,1.115,1.115,0,0,1,.637-.189,1,1,0,0,1,.607.185,1.379,1.379,0,0,0,.842.265,1.487,1.487,0,0,0,.86-.261,1.115,1.115,0,0,1,.637-.189,1,1,0,0,1,.607.185,1.378,1.378,0,0,0,.841.265,1.485,1.485,0,0,0,.86-.261,1.117,1.117,0,0,1,.637-.189,1,1,0,0,1,.607.185,1.381,1.381,0,0,0,.842.265,1.485,1.485,0,0,0,.86-.261,1.115,1.115,0,0,1,.637-.189,1,1,0,0,1,.607.185,1.379,1.379,0,0,0,.842.265,1.487,1.487,0,0,0,.86-.261,1.115,1.115,0,0,1,.637-.189,1,1,0,0,1,.607.185,1.378,1.378,0,0,0,.841.265,1.485,1.485,0,0,0,.86-.261,1.118,1.118,0,0,1,.638-.189,1,1,0,0,1,.606.185,1.383,1.383,0,0,0,.842.265,1.485,1.485,0,0,0,.86-.261,1.115,1.115,0,0,1,.637-.189,1,1,0,0,1,.607.185,1.379,1.379,0,0,0,.842.265,1.487,1.487,0,0,0,.86-.261,1.115,1.115,0,0,1,.637-.189,1,1,0,0,1,.607.185,1.378,1.378,0,0,0,.841.265,1.485,1.485,0,0,0,.86-.261,1.118,1.118,0,0,1,.638-.189,1,1,0,0,1,.606.185,1.383,1.383,0,0,0,.842.265,1.485,1.485,0,0,0,.86-.261,1.115,1.115,0,0,1,.637-.189,1,1,0,0,1,.607.185,1.379,1.379,0,0,0,.842.265,1.487,1.487,0,0,0,.86-.261,1.115,1.115,0,0,1,.637-.189,1,1,0,0,1,.607.185l.707.546.235-.3-.707-.546a1.383,1.383,0,0,0-.842-.265,1.484,1.484,0,0,0-.86.261,1.107,1.107,0,0,1-.637.189,1,1,0,0,1-.607-.185,1.379,1.379,0,0,0-.842-.265,1.486,1.486,0,0,0-.86.261,1.107,1.107,0,0,1-.637.189,1,1,0,0,1-.607-.185,1.378,1.378,0,0,0-.841-.265,1.487,1.487,0,0,0-.861.261,1.105,1.105,0,0,1-.637.189,1,1,0,0,1-.607-.185,1.378,1.378,0,0,0-.841-.265,1.484,1.484,0,0,0-.86.261,1.107,1.107,0,0,1-.637.189,1,1,0,0,1-.607-.185,1.379,1.379,0,0,0-.842-.265,1.486,1.486,0,0,0-.86.261,1.107,1.107,0,0,1-.637.189,1,1,0,0,1-.607-.185,1.378,1.378,0,0,0-.841-.265,1.487,1.487,0,0,0-.861.261,1.1,1.1,0,0,1-.637.189,1,1,0,0,1-.606-.185,1.383,1.383,0,0,0-.842-.265,1.484,1.484,0,0,0-.86.261,1.107,1.107,0,0,1-.637.189,1,1,0,0,1-.607-.185,1.379,1.379,0,0,0-.842-.265,1.487,1.487,0,0,0-.86.261,1.107,1.107,0,0,1-.637.189,1,1,0,0,1-.607-.185,1.379,1.379,0,0,0-.842-.265,1.486,1.486,0,0,0-.86.261,1.1,1.1,0,0,1-.637.189,1,1,0,0,1-.607-.185,1.378,1.378,0,0,0-.841-.265,1.484,1.484,0,0,0-.86.261,1.107,1.107,0,0,1-.637.189,1,1,0,0,1-.607-.185,1.379,1.379,0,0,0-.842-.265,1.486,1.486,0,0,0-.86.261,1.107,1.107,0,0,1-.637.189,1,1,0,0,1-.607-.185,1.379,1.379,0,0,0-.842-.265,1.486,1.486,0,0,0-.86.261,1.105,1.105,0,0,1-.637.189,1,1,0,0,1-.607-.185l-.706-.546-.235.3" transform="translate(571.999 1248.261) rotate(-90)" fill="#161615"/>
      </g>
      <g transform="translate(-1065.8 -452.2)">
        <path id="Path_413-25" data-name="Path 413" d="M759.064,542.1l.707.546a1.378,1.378,0,0,0,.841.265,1.485,1.485,0,0,0,.86-.261,1.117,1.117,0,0,1,.637-.189,1,1,0,0,1,.607.185,1.381,1.381,0,0,0,.842.265,1.485,1.485,0,0,0,.86-.261,1.115,1.115,0,0,1,.637-.189,1,1,0,0,1,.607.185,1.379,1.379,0,0,0,.842.265,1.487,1.487,0,0,0,.86-.261,1.115,1.115,0,0,1,.637-.189,1,1,0,0,1,.607.185,1.378,1.378,0,0,0,.841.265,1.485,1.485,0,0,0,.86-.261,1.117,1.117,0,0,1,.637-.189,1,1,0,0,1,.607.185,1.381,1.381,0,0,0,.842.265,1.485,1.485,0,0,0,.86-.261,1.115,1.115,0,0,1,.637-.189,1,1,0,0,1,.607.185,1.379,1.379,0,0,0,.842.265,1.487,1.487,0,0,0,.86-.261,1.115,1.115,0,0,1,.637-.189,1,1,0,0,1,.607.185,1.378,1.378,0,0,0,.841.265,1.485,1.485,0,0,0,.86-.261,1.118,1.118,0,0,1,.638-.189,1,1,0,0,1,.606.185,1.383,1.383,0,0,0,.842.265,1.485,1.485,0,0,0,.86-.261,1.115,1.115,0,0,1,.637-.189,1,1,0,0,1,.607.185,1.379,1.379,0,0,0,.842.265,1.487,1.487,0,0,0,.86-.261,1.115,1.115,0,0,1,.637-.189,1,1,0,0,1,.607.185,1.378,1.378,0,0,0,.841.265,1.485,1.485,0,0,0,.86-.261,1.118,1.118,0,0,1,.638-.189,1,1,0,0,1,.606.185,1.383,1.383,0,0,0,.842.265,1.485,1.485,0,0,0,.86-.261,1.115,1.115,0,0,1,.637-.189,1,1,0,0,1,.607.185,1.379,1.379,0,0,0,.842.265,1.487,1.487,0,0,0,.86-.261,1.115,1.115,0,0,1,.637-.189,1,1,0,0,1,.607.185l.707.546.235-.3-.707-.546a1.383,1.383,0,0,0-.842-.265,1.484,1.484,0,0,0-.86.261,1.107,1.107,0,0,1-.637.189,1,1,0,0,1-.607-.185,1.379,1.379,0,0,0-.842-.265,1.486,1.486,0,0,0-.86.261,1.107,1.107,0,0,1-.637.189,1,1,0,0,1-.607-.185,1.378,1.378,0,0,0-.841-.265,1.487,1.487,0,0,0-.861.261,1.105,1.105,0,0,1-.637.189,1,1,0,0,1-.607-.185,1.378,1.378,0,0,0-.841-.265,1.484,1.484,0,0,0-.86.261,1.107,1.107,0,0,1-.637.189,1,1,0,0,1-.607-.185,1.379,1.379,0,0,0-.842-.265,1.486,1.486,0,0,0-.86.261,1.107,1.107,0,0,1-.637.189,1,1,0,0,1-.607-.185,1.378,1.378,0,0,0-.841-.265,1.487,1.487,0,0,0-.861.261,1.1,1.1,0,0,1-.637.189,1,1,0,0,1-.606-.185,1.383,1.383,0,0,0-.842-.265,1.484,1.484,0,0,0-.86.261,1.107,1.107,0,0,1-.637.189,1,1,0,0,1-.607-.185,1.379,1.379,0,0,0-.842-.265,1.487,1.487,0,0,0-.86.261,1.107,1.107,0,0,1-.637.189,1,1,0,0,1-.607-.185,1.379,1.379,0,0,0-.842-.265,1.486,1.486,0,0,0-.86.261,1.1,1.1,0,0,1-.637.189,1,1,0,0,1-.607-.185,1.378,1.378,0,0,0-.841-.265,1.484,1.484,0,0,0-.86.261,1.107,1.107,0,0,1-.637.189,1,1,0,0,1-.607-.185,1.379,1.379,0,0,0-.842-.265,1.486,1.486,0,0,0-.86.261,1.107,1.107,0,0,1-.637.189,1,1,0,0,1-.607-.185,1.379,1.379,0,0,0-.842-.265,1.486,1.486,0,0,0-.86.261,1.105,1.105,0,0,1-.637.189,1,1,0,0,1-.607-.185l-.706-.546-.235.3" transform="translate(571.999 1248.261) rotate(-90)" fill="#161615"/>
      </g>
    </g>
  </g>
</svg>
