<?xml version="1.0" encoding="utf-8"?>
<!-- Generator: Adobe Illustrator 23.0.1, SVG Export Plug-In . SVG Version: 6.00 Build 0)  -->
<svg version="1.1" id="appearance-v2_1_" xmlns="http://www.w3.org/2000/svg" xmlns:xlink="http://www.w3.org/1999/xlink" x="0px"
	 y="0px" viewBox="0 0 128 128" style="enable-background:new 0 0 128 128;" xml:space="preserve">
<style type="text/css">
	.st0{fill:#929292;}
	.st1{fill:#BCBCBC;}
	.st2{fill:#DADADA;}
</style>
<g id="appearance-v2">
	<g>
		<rect class="st0" width="25.6" height="25.6"/>
		<rect x="25.6" class="st1" width="25.6" height="25.6"/>
		<rect x="51.2" class="st2" width="25.6" height="25.6"/>
		<rect x="76.8" class="st1" width="25.6" height="25.6"/>
		<rect x="102.4" class="st1" width="25.6" height="25.6"/>
		<rect y="25.6" class="st2" width="25.6" height="25.6"/>
		<rect x="25.6" y="25.6" class="st2" width="25.6" height="25.6"/>
		<rect x="51.2" y="25.6" class="st2" width="25.6" height="25.6"/>
		<rect x="76.8" y="25.6" class="st0" width="25.6" height="25.6"/>
		<rect x="102.4" y="25.6" class="st1" width="25.6" height="25.6"/>
		<rect y="51.2" class="st1" width="25.6" height="25.6"/>
		<rect x="25.6" y="51.2" class="st2" width="25.6" height="25.6"/>
		<rect x="51.2" y="51.2" class="st2" width="25.6" height="25.6"/>
		<rect x="76.8" y="51.2" class="st2" width="25.6" height="25.6"/>
		<rect x="102.4" y="51.2" class="st1" width="25.6" height="25.6"/>
		<rect y="76.8" class="st2" width="25.6" height="25.6"/>
		<rect x="25.6" y="76.8" class="st0" width="25.6" height="25.6"/>
		<rect x="51.2" y="76.8" class="st2" width="25.6" height="25.6"/>
		<rect x="76.8" y="76.8" class="st1" width="25.6" height="25.6"/>
		<rect x="102.4" y="76.8" class="st2" width="25.6" height="25.6"/>
		<rect y="102.4" class="st2" width="25.6" height="25.6"/>
		<rect x="25.6" y="102.4" class="st1" width="25.6" height="25.6"/>
		<rect x="51.2" y="102.4" class="st2" width="25.6" height="25.6"/>
		<rect x="76.8" y="102.4" class="st2" width="25.6" height="25.6"/>
		<rect x="102.4" y="102.4" class="st2" width="25.6" height="25.6"/>
	</g>
</g>
</svg>
