<?xml version="1.0" encoding="utf-8"?>
<!-- Generator: Adobe Illustrator 23.0.1, SVG Export Plug-In . SVG Version: 6.00 Build 0)  -->
<svg version="1.1" id="appearance-v1_1_" xmlns="http://www.w3.org/2000/svg" xmlns:xlink="http://www.w3.org/1999/xlink" x="0px"
	 y="0px" viewBox="0 0 128 128" style="enable-background:new 0 0 128 128;" xml:space="preserve">
<style type="text/css">
	.st0{fill:#DADADA;}
	.st1{fill:#BCBCBC;}
</style>
<g id="appearance-v1">
	<g>
		<rect x="0.5" class="st0" width="25.5" height="25.5"/>
		<rect x="26" class="st1" width="25.5" height="25.5"/>
		<rect x="51.5" class="st0" width="25.5" height="25.5"/>
		<rect x="77" class="st0" width="25.5" height="25.5"/>
		<rect x="102.5" class="st0" width="25.5" height="25.5"/>
		<rect x="0.5" y="25.5" class="st0" width="25.5" height="25.5"/>
		<rect x="26" y="25.5" class="st0" width="25.5" height="25.5"/>
		<rect x="51.5" y="25.5" class="st0" width="25.5" height="25.5"/>
		<rect x="77" y="25.5" class="st1" width="25.5" height="25.5"/>
		<rect x="102.5" y="25.5" class="st0" width="25.5" height="25.5"/>
		<rect x="0.5" y="51" class="st0" width="25.5" height="25.5"/>
		<rect x="26" y="51" class="st0" width="25.5" height="25.5"/>
		<rect x="51.5" y="51" class="st0" width="25.5" height="25.5"/>
		<rect x="77" y="51" class="st0" width="25.5" height="25.5"/>
		<rect x="102.5" y="51" class="st0" width="25.5" height="25.5"/>
		<rect x="0.5" y="76.5" class="st0" width="25.5" height="25.5"/>
		<rect x="26" y="76.5" class="st0" width="25.5" height="25.5"/>
		<rect x="51.5" y="76.5" class="st0" width="25.5" height="25.5"/>
		<rect x="77" y="76.5" class="st0" width="25.5" height="25.5"/>
		<rect x="102.5" y="76.5" class="st0" width="25.5" height="25.5"/>
		<rect x="0.5" y="102" class="st0" width="25.5" height="25.5"/>
		<rect x="26" y="102" class="st1" width="25.5" height="25.5"/>
		<rect x="51.5" y="102" class="st0" width="25.5" height="25.5"/>
		<rect x="77" y="102" class="st0" width="25.5" height="25.5"/>
		<rect x="102.5" y="102" class="st0" width="25.5" height="25.5"/>
	</g>
</g>
</svg>
