<?xml version="1.0" encoding="utf-8"?>
<!-- Generator: Adobe Illustrator 23.0.1, SVG Export Plug-In . SVG Version: 6.00 Build 0)  -->
<svg version="1.1" id="bulk-impact-resistance_1_" xmlns="http://www.w3.org/2000/svg" xmlns:xlink="http://www.w3.org/1999/xlink"
	 x="0px" y="0px" viewBox="0 0 128 128" style="enable-background:new 0 0 128 128;" xml:space="preserve">
<style type="text/css">
	.st0{fill:#575756;}
	.st1{fill:#4A4A49;}
	.st2{fill:#B2B2B2;}
	.st3{clip-path:url(#SVGID_2_);fill:#3C3C3B;}
	.st4{clip-path:url(#SVGID_4_);fill:#3C3C3B;}
	.st5{clip-path:url(#SVGID_6_);fill:#3C3C3B;}
	.st6{clip-path:url(#SVGID_8_);fill:#3C3C3B;}
	.st7{fill:#FFFFFF;}
</style>
<g id="bulk-impact-resistance">
	<g>
		<rect x="13.6" y="9.9" class="st0" width="100.7" height="108.1"/>
		<rect x="13.6" y="9.9" class="st1" width="100.7" height="108.1"/>
		<rect x="13.6" y="76" class="st2" width="100.7" height="42.1"/>
		<g>
			<g>
				<defs>
					<rect id="SVGID_1_" x="13.6" y="9.9" width="100.7" height="108.1"/>
				</defs>
				<clipPath id="SVGID_2_">
					<use xlink:href="#SVGID_1_"  style="overflow:visible;"/>
				</clipPath>
				<rect x="13.6" y="75.3" class="st3" width="101" height="2.3"/>
			</g>
			<g>
				<defs>
					
						<rect id="SVGID_3_" x="12.5" y="9.1" transform="matrix(0.9995 -3.160099e-02 3.160099e-02 0.9995 -1.963 2.0185)" width="100.7" height="108.1"/>
				</defs>
				<clipPath id="SVGID_4_">
					<use xlink:href="#SVGID_3_"  style="overflow:visible;"/>
				</clipPath>
				
					<rect x="35.8" y="76.4" transform="matrix(0.9995 -3.160099e-02 3.160099e-02 0.9995 -3.061 1.2163)" class="st4" width="2.3" height="42.1"/>
			</g>
			<g>
				<defs>
					
						<rect id="SVGID_5_" x="5.9" y="21.1" transform="matrix(0.9627 -0.2707 0.2707 0.9627 -18.2328 18.0316)" width="100.7" height="108.1"/>
				</defs>
				<clipPath id="SVGID_6_">
					<use xlink:href="#SVGID_5_"  style="overflow:visible;"/>
				</clipPath>
				
					<rect x="99.5" y="75.6" transform="matrix(0.9627 -0.2707 0.2707 0.9627 -22.6158 30.8832)" class="st5" width="2.3" height="43.7"/>
			</g>
			<g>
				<defs>
					<rect id="SVGID_7_" x="13.6" y="9.9" width="100.7" height="108.1"/>
				</defs>
				<clipPath id="SVGID_8_">
					<use xlink:href="#SVGID_7_"  style="overflow:visible;"/>
				</clipPath>
				<rect x="13.6" y="104.3" class="st6" width="101" height="2.3"/>
			</g>
		</g>
		<polygon class="st2" points="61.9,62.2 93,9.9 103,9.9 69.5,66.8 		"/>
		<polygon points="81.3,74.3 60.1,60.7 48.2,53.2 46.5,56 52.4,63 53.8,68 76.2,82.4 		"/>
		<rect x="63" y="11.1" class="st7" width="2.3" height="32.8"/>
		<rect x="71.3" y="11.1" class="st7" width="2.3" height="24"/>
		<rect x="78.8" y="11.1" class="st7" width="2.3" height="8"/>
	</g>
</g>
</svg>
