<?xml version="1.0" encoding="utf-8"?>
<!-- Generator: Adobe Illustrator 23.0.1, SVG Export Plug-In . SVG Version: 6.00 Build 0)  -->
<svg version="1.1" id="bulk-mohs-hardness_1_" xmlns="http://www.w3.org/2000/svg" xmlns:xlink="http://www.w3.org/1999/xlink"
	 x="0px" y="0px" viewBox="0 0 128 128" style="enable-background:new 0 0 128 128;" xml:space="preserve">
<style type="text/css">
	.st0{fill:#B2B2B2;}
	.st1{fill:#FFFFFF;}
	.st2{fill:#4A4A49;}
	.st3{fill:#3C3C3B;}
</style>
<g id="bulk-mohs-hardness">
	<g>
		<polygon class="st0" points="122.2,74.9 114.5,71.6 114.5,5.5 13.8,5.5 13.8,71.5 5.9,74.9 13.8,81.2 13.8,113.6 54.2,113.6 
			64.1,121.7 74.1,113.6 114.5,113.6 114.5,81.1 		"/>
		<path class="st1" d="M64.1,125.4l-11-8.8H10.8v-34L0.2,74.1l10.6-4.6v-67h106.6v67.1l10.4,4.5l-10.4,8.4v34.1H75.1L64.1,125.4z
			 M16.7,110.7h38.5l8.9,7.2l8.9-7.2h38.5v-31l5-4l-5-2.2v-65H16.7v65l-5.2,2.2l5.2,4.2V110.7z"/>
		<path class="st1" d="M64.1,125.4l-11-8.8H10.8v-34L0.2,74.1l10.6-4.6v-67h106.6v67.1l10.4,4.5l-10.4,8.4v34.1H75.1L64.1,125.4z
			 M16.7,110.7h38.5l8.9,7.2l8.9-7.2h38.5v-31l5-4l-5-2.1v-65H16.7v65l-5.2,2.2l5.2,4.2V110.7z"/>
		<rect x="13.8" y="5.5" class="st2" width="100.7" height="108.1"/>
		<polygon class="st0" points="64.1,121.7 5.8,74.9 64.1,49.8 122.2,74.9 		"/>
		<path class="st3" d="M64.1,123.1L3.7,74.6l60.5-26l60.2,26L64.1,123.1z M8,75.2l56.1,45l55.9-45L64.1,51.1L8,75.2z"/>
		<polygon class="st1" points="26.5,38.5 41.5,18.9 85.2,18.9 100.9,38.3 63.3,80.7 		"/>
		<path class="st2" d="M63.3,82l-38-43.5L41.1,18h44.5l16.5,20.3L63.3,82z M27.6,38.5l35.7,40.8l36.4-41.1l-15-18.4H42L27.6,38.5z"
			/>
		<path class="st2" d="M63,81.3L40.7,38.4H26.3v-1.8h14.4l8.4-18.8l1.6,0.7l-8.1,18.1h40l-7.3-17.8L77,18l7.6,18.5h17.9v1.8H84.6
			L63,81.3z M42.7,38.4l20.3,39l19.6-39H42.7z"/>
	</g>
</g>
</svg>
