<?xml version="1.0" encoding="utf-8"?>
<!-- Generator: Adobe Illustrator 23.0.1, SVG Export Plug-In . SVG Version: 6.00 Build 0)  -->
<svg version="1.1" id="surface-abrasion-resistance_1_"
	 xmlns="http://www.w3.org/2000/svg" xmlns:xlink="http://www.w3.org/1999/xlink" x="0px" y="0px" viewBox="0 0 128 128"
	 style="enable-background:new 0 0 128 128;" xml:space="preserve">
<style type="text/css">
	.st0{fill:#B2B2B2;}
	.st1{fill:#FFFFFF;}
	.st2{fill:#4A4A49;}
	.st3{fill:#3C3C3B;}
</style>
<g id="surface-abrasion-resistance">
	<g>
		<polygon class="st0" points="122.2,74.9 114.5,71.6 114.5,5.5 13.8,5.5 13.8,71.5 5.9,74.9 13.8,81.2 13.8,113.6 54.2,113.6 
			64.1,121.7 74.1,113.6 114.5,113.6 114.5,81.1 		"/>
		<path class="st1" d="M64.1,125.4l-11-8.8H10.8v-34L0.2,74.1l10.6-4.6v-67h106.6v67.1l10.4,4.5l-10.4,8.3v34.1H75.1L64.1,125.4z
			 M16.7,110.7h38.5l8.9,7.2l8.9-7.2h38.5v-31l5-4l-5-2.2v-65H16.7v65l-5.2,2.2l5.2,4.2V110.7z"/>
		<path class="st1" d="M64.1,125.4l-11-8.8H10.8v-34L0.2,74.1l10.6-4.6v-67h106.6v67.1l10.4,4.5l-10.4,8.3v34.1H75.1L64.1,125.4z
			 M16.7,110.7h38.5l8.9,7.2l8.9-7.2h38.5v-31l5-4l-5-2.2v-65H16.7v65l-5.2,2.2l5.2,4.2V110.7z"/>
		<rect x="13.8" y="5.5" class="st2" width="100.7" height="108.1"/>
		<polygon class="st0" points="64.1,121.7 5.8,74.9 64.1,49.8 122.2,74.9 		"/>
		<path class="st3" d="M64.1,123.1L3.7,74.6l60.5-26l60.2,26L64.1,123.1z M8,75.2l56.1,45l55.9-45L64.1,51.1L8,75.2z"/>
		<g>
			<path class="st1" d="M97,42.3c-0.7-2.3-0.9,5.6-3.2,7.2c-2.3,1.6-4.9,5.3-4.9,3.6c0.1-1.6,2.3-3.8,3.3-9.7s-9.6-20.6-11.5-21.7
				s3.4,5,2.9,7.8c-0.5,2.7,0.2,6.8-0.9,5.6S81.4,30.8,78,26c-3.4-4.8-21.1-7.8-23.4-7.2c-2.3,0.7,5.7,1.3,7.1,3.6
				c1.4,2.2,4.9,4.2,3.3,4.1c-1.6-0.1-4.3-2-10-2.9s-19.8,9.6-20.9,11.5c-1.1,1.9,5.1-3,7.6-2.6c2.5,0.5,6.5-1,5.2,0.1
				c-1.2,1.1-4.8,1.6-9.4,5.1s-7,21.1-6.4,23.3c0.7,2.3,1.4-5.3,3.4-6.7c2-1.5,3.8-5.7,3.7-4c-0.1,1.6-2.5,4.6-3.2,10.4
				s10.4,19.8,12.4,20.9c1.9,1.1-3-4.7-2.7-7.2s-1.3-7.2-0.2-6s1.1,5.1,4.8,9.8c3.7,4.7,21.9,7,24.2,6.4c2.3-0.7-5.2-1-6.9-3.1
				c-1.7-2-6-4.6-4.4-4.5s4.1,2.8,10.1,3.6c6,0.8,20.6-10.4,21.7-12.4c1.1-1.9-4.6,3.4-7.4,3.1s-7.6,0.6-6.3-0.5
				c1.2-1.1,4.6-0.8,9.5-4.4C94.8,62.9,97.7,44.6,97,42.3"/>
			<path class="st2" d="M47.9,51.8c0-9,7.3-16.2,16.2-16.2c9,0,16.2,7.3,16.2,16.2c0,9-7.3,16.2-16.2,16.2
				C55.2,68,47.9,60.8,47.9,51.8"/>
			<path class="st1" d="M56,51.8c0-4.5,3.6-8.1,8.2-8.1c4.5,0,8.1,3.6,8.1,8.1S68.7,60,64.2,60C59.6,59.9,56,56.3,56,51.8"/>
		</g>
	</g>
</g>
</svg>
