<?xml version="1.0" encoding="utf-8"?>
<!-- Generator: Adobe Illustrator 23.0.1, SVG Export Plug-In . SVG Version: 6.00 Build 0)  -->
<svg version="1.1" id="chemical-resistance_1_" xmlns="http://www.w3.org/2000/svg" xmlns:xlink="http://www.w3.org/1999/xlink"
	 x="0px" y="0px" viewBox="0 0 128 128" style="enable-background:new 0 0 128 128;" xml:space="preserve">
<style type="text/css">
	.st0{fill:#B2B2B2;}
	.st1{fill:#FFFFFF;}
	.st2{fill:#4A4A49;}
	.st3{fill:#3C3C3B;}
</style>
<g id="chemical-resistance">
	<g>
		<polygon class="st0" points="114.5,71.6 114.5,5.5 13.8,5.5 13.8,71.5 5.8,74.9 13.8,81.2 13.8,113.6 54.2,113.6 64.1,121.7 
			74.1,113.6 114.5,113.6 114.5,81.1 122.2,74.9 		"/>
		<path class="st1" d="M64.1,125.4l-11-8.8H10.8v-34L0.2,74.1l10.6-4.6v-67h106.6v67.1l10.4,4.5l-10.4,8.3v34.1H75.1L64.1,125.4z
			 M16.7,110.7h38.5l8.9,7.2l8.9-7.2h38.5v-31l5-4l-5-2.2v-65H16.7v65l-5.2,2.2l5.2,4.2V110.7z"/>
		<rect x="13.8" y="5.5" class="st2" width="100.7" height="108.1"/>
		<polygon class="st0" points="64.1,121.7 5.8,74.9 64.1,49.8 122.2,74.9 		"/>
		<path class="st3" d="M64.1,123.1L3.7,74.6l60.5-26l60.2,26L64.1,123.1z M8,75.2l56.1,45l55.9-45L64.1,51.1L8,75.2z"/>
		<g>
			<path class="st1" d="M54.8,71.3l4.8-10.4l5,10.4c0,3.9-2.2,7.1-4.9,7.1C57,78.4,54.8,75.2,54.8,71.3"/>
		</g>
		<polygon class="st1" points="58.6,42.6 58.6,23.3 84.3,23.3 110.6,8.3 110.6,65.9 84.3,38 64.1,38 		"/>
		<path class="st1" d="M111.3,67.6L84,38.7H64.3l-6.4,5.5V22.6h26.2l27.2-15.5V67.6z M63.8,37.3h20.8L110,64.1V9.5L84.5,24H59.3
			v17.2L63.8,37.3z"/>
		<g>
			<path class="st1" d="M56.5,52.4l3.1-6.8l3.3,6.8c0,2.6-1.4,4.7-3.2,4.7C57.9,57.1,56.5,55,56.5,52.4"/>
		</g>
	</g>
</g>
</svg>
