<?xml version="1.0" encoding="utf-8"?>
<!-- Generator: Adobe Illustrator 23.0.1, SVG Export Plug-In . SVG Version: 6.00 Build 0)  -->
<svg version="1.1" id="chemical-staining_1_" xmlns="http://www.w3.org/2000/svg" xmlns:xlink="http://www.w3.org/1999/xlink"
	 x="0px" y="0px" viewBox="0 0 128 128" style="enable-background:new 0 0 128 128;" xml:space="preserve">
<style type="text/css">
	.st0{fill:#B2B2B2;}
	.st1{fill:#FFFFFF;}
	.st2{fill:#4A4A49;}
	.st3{fill:#3C3C3B;}
	.st4{fill:#D0D0D0;}
	.st5{fill:#878787;}
</style>
<g id="chemical-staining">
	<g>
		<polygon class="st0" points="114.5,71.6 114.5,5.5 13.8,5.5 13.8,71.5 5.9,74.9 13.8,81.2 13.8,113.6 54.2,113.6 64.1,121.7 
			74.1,113.6 114.5,113.6 114.5,81.1 122.2,74.9 		"/>
		<path class="st1" d="M64.1,125.4l-11-8.8H10.8v-34L0.2,74.1l10.6-4.6v-67h106.6v67.1l10.4,4.5l-10.4,8.4v34.1H75.1L64.1,125.4z
			 M16.7,110.7h38.5l8.9,7.2l8.9-7.2h38.5v-31l5-4l-5-2.2v-65H16.7v65l-5.2,2.2l5.2,4.2V110.7z"/>
		<rect x="13.8" y="5.5" class="st2" width="100.7" height="108.1"/>
		<polygon class="st0" points="64.1,121.7 5.8,74.9 64.1,49.8 122.2,74.9 		"/>
		<path class="st3" d="M64.1,123.1L3.7,74.6l60.5-26l60.2,26L64.1,123.1z M8,75.2l56.1,45l55.9-45L64.1,51.1L8,75.2z"/>
		<polygon class="st1" points="39.9,87.3 72.8,113 110.3,83 88.3,71.5 		"/>
		<polygon class="st4" points="40.2,65.3 31.1,75.6 36.8,74.4 34.5,79 36.8,77.9 35.6,81.3 39,81.3 39,84.8 41.3,82.5 41.3,88.2 
			43.6,85.9 43.6,91.6 45.8,89.3 45.8,93.9 48.1,90.5 49.2,93.9 53.8,89.3 54.9,91.6 56,88.2 57.2,90.5 59.4,85.9 61.7,88.2 
			62.9,84.8 65.1,87 66.3,83.6 67.4,85.9 69.7,81.3 70.8,84.8 71.9,80.2 74.2,82.5 76.5,79 77.6,81.3 81,76.7 82.1,80.2 84.4,75.6 
			85.5,77.9 88.9,73.3 88.9,75.6 91.2,72.1 92.4,74.4 93.5,71 95.8,73.3 98,60.7 98,59.5 42.4,64.1 		"/>
		<path class="st1" d="M45.3,95.5v-5L43,92.8v-5.7l-2.3,2.3v-5.7L38.4,86v-4.1h-3.6l1-3l-2.5,1.3l2.5-5l-6.1,1.2l10.2-11.5l2.5-1.2
			L98.5,59v1.7l-2.4,13.6l-2.4-2.4l-1.3,3.8l-1.3-2.6l-2.7,4.1v-2.4l-3,4l-1.1-2.1l-2.4,4.8l-1.2-3.7l-3.3,4.5l-1-2.3l-2.1,3.2
			l-2.1-2.1l-1.3,5.4l-1.3-3.9L67.4,87l-1-2.1l-1,3.1l-2.3-2.3L62,89.1l-2.3-2.4l-2.4,4.9l-1-2.1L55,92.9l-1.4-2.7L49,94.8l-1-3.2
			L45.3,95.5z M48.2,89.4l1.2,3.6l4.5-4.5l0.9,1.8l1.1-3.4l1.2,2.5l2.1-4.3l2.2,2.2l1.1-3.4l2.3,2.3l1.3-3.8l1.2,2.5l2.4-4.8l1,3
			l0.9-3.8l2.5,2.5l2.4-3.6l1.2,2.3l3.5-4.7l1.1,3.2l2.2-4.4l1.2,2.5l3.8-5.1v2l1.8-2.8l1,2l1-3.1l2.2,2.2l2.1-11.7v-0.5l-55,4.5
			l-2.1,1.1l-8.1,9.2l5.2-1.1L35.5,78l2-1l-1.3,3.9h3.2v2.7l2.3-2.3V87l2.3-2.3v5.7l2.3-2.3v4.1L48.2,89.4z"/>
		<polygon class="st5" points="100.3,54 89,38.1 42.5,56.3 53.8,74.5 		"/>
		<path class="st1" d="M53.7,75.1l-11.9-19l47.3-18.5L101,54.3l-0.5,0.2L53.7,75.1z M43.2,56.6L54,73.9l45.5-20L88.8,38.7L43.2,56.6
			z"/>
		<polygon class="st5" points="97,60.7 100.4,53.8 53.9,74.4 42.6,57.2 39.2,64.1 50.5,81.3 		"/>
		<path class="st1" d="M50.3,81.9L38.6,64.1l3.9-7.9l11.6,17.5l47.4-21L97.4,61l-0.2,0.1L50.3,81.9z M39.7,64.1l11,16.6l46-20.4
			l2.7-5.5L53.8,75L42.6,58.2L39.7,64.1z"/>
		<polygon class="st1" points="71.4,58 70.3,56.9 69.2,55.8 69.2,52.4 88.3,17.5 90.6,15.2 92.8,15.2 95.1,17.5 94,20.9 75.9,56.9 
			73.7,58 		"/>
	</g>
</g>
</svg>
