<?xml version="1.0" encoding="utf-8"?>
<!-- Generator: Adobe Illustrator 23.0.1, SVG Export Plug-In . SVG Version: 6.00 Build 0)  -->
<svg version="1.1" id="physical-reaction-to-fire_1_"
	 xmlns="http://www.w3.org/2000/svg" xmlns:xlink="http://www.w3.org/1999/xlink" x="0px" y="0px" viewBox="0 0 128 128"
	 style="enable-background:new 0 0 128 128;" xml:space="preserve">
<style type="text/css">
	.st0{fill:#575756;}
	.st1{fill:#FFFFFF;}
	.st2{fill:#4A4A49;}
	.st3{fill:#9D9D9C;}
</style>
<g id="physical-reaction-to-fire">
	<g>
		<rect x="13.6" y="9.9" class="st0" width="100.7" height="108.1"/>
		<path class="st1" d="M117.3,121H10.7V7h106.6C117.3,7,117.3,121,117.3,121z M16.6,115.1h94.9V12.9H16.6V115.1z"/>
		<rect x="13.6" y="9.9" class="st2" width="100.7" height="108.1"/>
		<g>
			<path class="st1" d="M60.3,98.9c0,0-8.8,2.1-16.4-5.1c-7.6-7.1-3-20.3-12.4-24c6.1,0.1,10.4,4.6,11.4,6.7
				c1-5.8,2.4-14.7-4.5-17.5c6.7,0.6,9.2,4.6,10.1,6.9c2.3-4.8,3.9-12.4,1.4-23c6.5,2.5,7.1,5.6,8.8,9.4
				c-1.2-10.6,1.4-20.2,3.7-23.7c0.5,10.1,3,10.9,4.8,15.2s1.4,8.3,0,13.4c5-1.4,6.7-6.4,7.6-10.6c4.3,9.2,4.1,13.4,1.4,20.5
				c4.6,0.7,8.3-6,8.1-9.9c3.7,7.4,2.5,13.1,0.7,17.5c3.9-4.6,7.6-8.9,11.5-7.4C93,70.8,90,71.7,90,81.8s-16.1,19-26,17.3
				c10.8-4.4,8.3-12.7,11.6-13.9c-2.6-2.1-4.5,1.4-7.5,3.5c1.6-4.4-1.4-3.9,0-6c-2.3,1.8-3.5,4.4-4.8,3.9c4.8-6.9,4.1-11.4,1.4-16.4
				c-0.7,5.5-1.6,7-3.7,8.5c-1.2-4.6-2.8-5.4-4.4-6c1.7,3.9-2.8,7.7,1.8,13.4c-3,0.2-4.8-2.8-5.8-4.1c0,3.9,0.5,4.6,0.9,4.6
				c-3-0.7-4.3-1.2-5.5-1.6C50.9,92.7,51.8,95.7,60.3,98.9"/>
		</g>
		
			<rect x="61.7" y="12.3" transform="matrix(0.681 -0.7323 0.7323 0.681 -26.4853 67.2706)" class="st3" width="4.5" height="103.4"/>
		
			<rect x="12.3" y="61.7" transform="matrix(0.7321 -0.6812 0.6812 0.7321 -26.4353 60.7101)" class="st3" width="103.4" height="4.5"/>
	</g>
</g>
</svg>
