<?xml version="1.0" encoding="utf-8"?>
<!-- Generator: Adobe Illustrator 23.0.1, SVG Export Plug-In . SVG Version: 6.00 Build 0)  -->
<svg version="1.1" id="regularity-thickness_1_" xmlns="http://www.w3.org/2000/svg" xmlns:xlink="http://www.w3.org/1999/xlink"
	 x="0px" y="0px" viewBox="0 0 128 128" style="enable-background:new 0 0 128 128;" xml:space="preserve">
<style type="text/css">
	.st0{fill:#FFFFFF;}
	.st1{fill:#4A4A49;}
	.st2{fill:#9D9D9C;}
	.st3{fill:#3C3C3B;}
</style>
<g id="regularity-thickness">
	<g>
		<path class="st0" d="M116.7,120.3H11.5V63.1l-10-8l10-4.3V7.7h105.2v43.2l9.7,4.2l-9.7,7.9V120.3z M16,115.8h96.2v-55l5.6-4.5
			l-5.6-2.4V12.2H16v41.6l-5.8,2.5L16,61V115.8z"/>
		<rect x="13.8" y="9.9" class="st1" width="100.7" height="108.1"/>
		<polygon class="st2" points="64.1,102.5 5.8,55.7 64.1,30.6 122.2,55.7 		"/>
		<path class="st3" d="M64.1,103.9L3.7,55.4l60.5-26l60.2,26L64.1,103.9z M8,56l56.1,45L120,56L64.1,31.9L8,56z"/>
		<polygon class="st0" points="19.5,44.2 27.6,44.3 20.5,38.8 		"/>
		
			<rect x="21.3" y="33.3" transform="matrix(0.9076 -0.4199 0.4199 0.9076 -10.7328 20.1678)" class="st0" width="38.3" height="2.3"/>
		<polygon class="st0" points="60.8,24.5 53,24.9 60.8,29.4 		"/>
		<polygon class="st0" points="108.5,44.2 100.4,44.3 107.5,38.8 		"/>
		
			<rect x="86.4" y="15.3" transform="matrix(0.4204 -0.9073 0.9073 0.4204 19.4715 99.3637)" class="st0" width="2.3" height="38.3"/>
		<polygon class="st0" points="67.2,24.5 75,24.9 67.2,29.4 		"/>
		<polygon class="st0" points="18.6,74.6 26.3,74.5 19.5,83.3 		"/>
		
			<rect x="38.8" y="69.2" transform="matrix(0.644 -0.7651 0.7651 0.644 -56.4614 63.4897)" class="st0" width="2.3" height="46.4"/>
		<polygon class="st0" points="60.8,110 52.9,110 60.8,102.3 		"/>
		<polygon class="st0" points="110.1,74.6 102.5,74.5 109.2,83.3 		"/>
		
			<rect x="65.6" y="91.2" transform="matrix(0.7651 -0.6439 0.6439 0.7651 -38.6077 78.8602)" class="st0" width="46.4" height="2.3"/>
		<polygon class="st0" points="68,110 75.9,110 68,102.3 		"/>
	</g>
</g>
</svg>
