<?xml version="1.0" encoding="utf-8"?>
<!-- Generator: Adobe Illustrator 23.0.1, SVG Export Plug-In . SVG Version: 6.00 Build 0)  -->
<svg version="1.1" id="regularity-flatness_1_" xmlns="http://www.w3.org/2000/svg" xmlns:xlink="http://www.w3.org/1999/xlink"
	 x="0px" y="0px" viewBox="0 0 128 128" style="enable-background:new 0 0 128 128;" xml:space="preserve">
<style type="text/css">
	.st0{fill:#4A4A49;}
	.st1{fill:#B2B2B2;}
	.st2{fill:#3C3C3B;}
	.st3{fill:#FFFFFF;}
</style>
<g id="regularity-flatness">
	<g>
		<rect x="13.8" y="5.2" class="st0" width="100.7" height="108.1"/>
		<polygon class="st1" points="64.1,121.3 5.8,74.6 64.1,49.5 122.2,74.6 		"/>
		<path class="st2" d="M64.1,122.8L3.7,74.3l60.5-26l60.2,26L64.1,122.8z M8,74.9l56.1,45l55.9-45L64.1,50.7L8,74.9z"/>
		<rect x="20.2" y="44.2" class="st3" width="2.3" height="31.3"/>
		<polygon class="st3" points="21.3,41.2 16.3,47.1 26.3,47.1 		"/>
		<polygon class="st3" points="21.3,78.4 16.3,72.6 26.3,72.6 		"/>
		<rect x="62.9" y="26.5" class="st3" width="2.3" height="31.3"/>
		<polygon class="st3" points="64,23.6 59,29.5 69,29.5 		"/>
		<polygon class="st3" points="64,60.8 59,54.9 69,54.9 		"/>
		<rect x="105.6" y="44.2" class="st3" width="2.3" height="31.3"/>
		<polygon class="st3" points="106.7,41.2 101.7,47.1 111.7,47.1 		"/>
		<polygon class="st3" points="106.7,78.4 101.7,72.6 111.7,72.6 		"/>
		<rect x="62.9" y="81.4" class="st3" width="2.3" height="31.3"/>
		<polygon class="st3" points="64,78.4 59,84.3 69,84.3 		"/>
		<polygon class="st3" points="64,115.6 59,109.8 69,109.8 		"/>
	</g>
</g>
</svg>
