<?xml version="1.0" encoding="utf-8"?>
<!-- Generator: Adobe Illustrator 23.0.1, SVG Export Plug-In . SVG Version: 6.00 Build 0)  -->
<svg version="1.1" id="safety_1_" xmlns="http://www.w3.org/2000/svg" xmlns:xlink="http://www.w3.org/1999/xlink" x="0px" y="0px"
	 viewBox="0 0 128 128" style="enable-background:new 0 0 128 128;" xml:space="preserve">
<style type="text/css">
	.st0{fill:#575756;}
	.st1{fill:#FFFFFF;}
	.st2{fill:#4A4A49;}
	.st3{fill:#DADADA;}
</style>
<g id="safety">
	<g>
		<rect x="13.6" y="9.9" class="st0" width="100.7" height="108.1"/>
		<path class="st1" d="M117.3,121H10.7V7h106.6C117.3,7,117.3,121,117.3,121z M16.6,115.1h94.9V12.9H16.6V115.1z"/>
		<rect x="13.6" y="9.9" class="st2" width="100.7" height="108.1"/>
		<polygon class="st3" points="27.6,112.3 108.7,36.4 108.7,112.3 		"/>
		<g>
			<path class="st1" d="M76.5,28.8c0,0,9.7-3.3,15.3-14.1c3.6,0.2,14.6,15.2,14.6,15.2l-6.5,6.2c0,0-0.9-0.8-3.4-2.7
				c-0.2,7.5-0.1,7.6-6.1,13.4c-4.3,4.7-11.6,11.4-15.1,14.9s-4.5,4.4-5.7,3.1c-2.9-3,0.5-9.8,5.2-18.6
				C75.8,40.6,76.5,28.8,76.5,28.8"/>
			<path class="st2" d="M94.4,31.9c-4.4-5.6-3.6-9.1-3.6-9.2l0.8,0.2c0,0-0.7,3.3,3.4,8.5L94.4,31.9z"/>
			<path class="st2" d="M73.6,35.7l-0.1-1.4c0,0,4-0.4,6-1.9l0.8,1.1C78,35.3,73.8,35.7,73.6,35.7z"/>
			<path class="st2" d="M73,38.5l-0.1-1.4c0,0,4-0.4,6-1.9l0.8,1.1C77.4,38.1,73.2,38.5,73,38.5z"/>
			<path class="st2" d="M72.4,41.3L72.2,40c0,0,4-0.4,6-1.9l0.8,1.1C76.8,40.9,72.5,41.3,72.4,41.3z"/>
		</g>
	</g>
</g>
</svg>
