<?xml version="1.0" encoding="utf-8"?>
<!-- Generator: Adobe Illustrator 23.0.1, SVG Export Plug-In . SVG Version: 6.00 Build 0)  -->
<svg version="1.1" id="structural-water-absorbtion_1_"
	 xmlns="http://www.w3.org/2000/svg" xmlns:xlink="http://www.w3.org/1999/xlink" x="0px" y="0px" viewBox="0 0 128 128"
	 style="enable-background:new 0 0 128 128;" xml:space="preserve">
<style type="text/css">
	.st0{fill:#FFFFFF;}
	.st1{fill:#4A4A49;}
	.st2{fill:#B2B2B2;}
	.st3{fill:#3C3C3B;}
	.st4{fill:#575756;}
</style>
<g id="structural-water-absorbtion">
	<g>
		<path class="st0" d="M64.1,125.4l-11-8.8H10.8v-34L0.2,74.1l10.6-4.6v-67h106.6v67.1l10.4,4.5l-10.4,8.4v34.1H75.1L64.1,125.4z
			 M16.7,110.7h38.5l8.9,7.2l8.9-7.2h38.5v-31l5-4l-5-2.2v-65H16.7v65l-5.2,2.2l5.2,4.2V110.7z"/>
		<rect x="13.8" y="5.5" class="st1" width="100.7" height="108.1"/>
		<polygon class="st2" points="64.1,121.7 5.8,74.9 64.1,49.8 122.2,74.9 		"/>
		<path class="st3" d="M64.1,123.1L3.7,74.6l60.5-26l60.2,26L64.1,123.1z M8,75.2l56.1,45l55.9-45L64.1,51.1L8,75.2z"/>
		<g>
			<path class="st0" d="M64.1,14.2c0-0.2-0.1,0.5-0.1,0.5c-7,29.2-23.4,28.8-23.4,46.4S58.2,82.9,64,83l0,0h0.1h0.1l0,0
				c5.8-0.1,23.4-4.3,23.4-21.8c0-17.6-16.4-17.3-23.4-46.4C64.3,14.7,64.2,14.1,64.1,14.2"/>
			<path class="st4" d="M60.5,75.6c-6-0.6-15.4-7.7-15.4-14.8s6-11.8,9.1-16.7c3.2-4.9,7-12.6,7-15.1c1.3,8.1-1.3,13-3.8,18.3
				C55,52.6,51.3,61.8,60.5,75.6"/>
		</g>
	</g>
</g>
</svg>
