<?xml version="1.0" encoding="utf-8"?>
<!-- Generator: Adobe Illustrator 23.0.1, SVG Export Plug-In . SVG Version: 6.00 Build 0)  -->
<svg version="1.1" id="thermal-frost-resistance_1_"
	 xmlns="http://www.w3.org/2000/svg" xmlns:xlink="http://www.w3.org/1999/xlink" x="0px" y="0px" viewBox="0 0 128 128"
	 style="enable-background:new 0 0 128 128;" xml:space="preserve">
<style type="text/css">
	.st0{fill:#575756;}
	.st1{fill:#FFFFFF;}
	.st2{fill:#4A4A49;}
</style>
<g id="thermal-frost-resistance">
	<g>
		<rect x="13.6" y="9.9" class="st0" width="100.7" height="108.1"/>
		<path class="st1" d="M117.3,121H10.7V7h106.6C117.3,7,117.3,121,117.3,121z M16.6,115.1h94.9V12.9H16.6V115.1z"/>
		<rect x="13.6" y="9.9" class="st2" width="100.7" height="108.1"/>
		<polygon class="st1" points="64.4,101.8 61.7,101.8 61.7,88.7 51.4,96.7 49.7,94.5 61.7,85.2 61.7,66.3 45.1,76 43.1,91 
			40.4,90.6 42.1,77.7 31.1,84.1 29.7,81.7 40.5,75.5 29.5,71.6 30.4,69.1 43.6,73.7 60.4,64 43.4,54.2 30.2,59.7 29.2,57.2 
			40.5,52.5 29.7,46.3 31.1,43.9 42.4,50.5 40.1,38.2 42.8,37.7 45.5,52.2 61.7,61.7 61.7,40.4 49.7,31.1 51.4,29 61.7,37 
			61.7,26.2 64.4,26.2 64.4,36.6 73.2,29 75,31.1 64.4,40.1 64.4,61.7 82.7,51.1 85.2,37.3 87.9,37.8 85.7,49.3 95.1,43.9 
			96.4,46.3 86.8,51.8 98.8,56.8 97.8,59.3 83.9,53.5 65.8,64 96.4,81.7 95.1,84.1 64.4,66.3 64.4,85.5 75,94.6 73.2,96.6 
			64.4,89.1 		"/>
		<polygon points="54,78.6 55.4,68.1 45,62.8 54.8,58.8 53,49.1 62.8,55.2 72.5,48.7 70.6,58.4 80.4,62.5 70.2,68.2 71.6,78.7 
			63.4,72 		"/>
		<path class="st1" d="M73.4,81.9l-10.1-8.2l-11,7.8L54,68.9l-12.2-6.2L53.3,58l-2.2-11.7l11.7,7.3l11.6-7.8l-2.2,11.8l11.4,4.7
			L71.7,69L73.4,81.9z M48.2,63l8.7,4.4l-1.1,8.4l7.7-5.4l6.4,5.2l-1.1-8l8.6-4.8l-8.2-3.4l1.4-7.7l-7.7,5.2l-8-4.9l1.5,7.8L48.2,63
			z"/>
		<polygon class="st1" points="85.2,91.3 83.1,74.9 97.6,69.7 98.5,72.3 86,76.7 87.9,91 		"/>
	</g>
</g>
</svg>
