<?xml version="1.0" encoding="utf-8"?>
<!-- Generator: Adobe Illustrator 23.0.1, SVG Export Plug-In . SVG Version: 6.00 Build 0)  -->
<svg version="1.1" id="thermal-moisture_1_" xmlns="http://www.w3.org/2000/svg" xmlns:xlink="http://www.w3.org/1999/xlink"
	 x="0px" y="0px" viewBox="0 0 128 128" style="enable-background:new 0 0 128 128;" xml:space="preserve">
<style type="text/css">
	.st0{fill:#878787;}
	.st1{fill:#FFFFFF;}
	.st2{fill:#4A4A49;}
	.st3{fill:#B2B2B2;}
	.st4{fill:#3C3C3B;}
	.st5{fill:#9D9D9C;}
</style>
<g id="thermal-moisture">
	<g>
		<rect x="10.3" y="106.6" class="st0" width="107.4" height="11.5"/>
		<path class="st1" d="M117.7,121H10.3c-1.6,0-2.9-1.3-2.9-2.9v-11.5c0-0.8,0.3-1.6,0.9-2.1l2.4-2.4V9.9C10.7,8.3,12,7,13.6,7h100.7
			c1.6,0,2.9,1.3,2.9,2.9v92.3l2.4,2.2c0.6,0.6,1,1.3,1,2.2v11.5C120.6,119.7,119.3,121,117.7,121z M13.2,115.1h101.5v-7.3l-2.4-2.2
			c-0.6-0.6-1-1.3-1-2.2V12.9H16.6v90.5c0,0.8-0.3,1.6-0.9,2.1l-2.4,2.4v7.2H13.2z"/>
		<rect x="13.6" y="9.9" class="st2" width="100.7" height="108.1"/>
		<rect x="10.3" y="106.6" class="st0" width="107.4" height="11.5"/>
		<polygon class="st3" points="10.3,106.6 36.7,81 89.7,81 117.7,106.6 		"/>
		<path class="st4" d="M117.7,107.7H10.3c-0.5,0-0.9-0.3-1-0.7c-0.2-0.4-0.1-0.9,0.3-1.2l26.3-25.6c0.2-0.2,0.5-0.3,0.8-0.3h53
			c0.3,0,0.6,0.1,0.8,0.3l28,25.6c0.3,0.3,0.5,0.8,0.3,1.2C118.6,107.4,118.1,107.7,117.7,107.7z M13.1,105.4h101.7L89.3,82.1H37.1
			L13.1,105.4z"/>
		<path class="st4" d="M117.7,119.2H10.3c-0.6,0-1.1-0.5-1.1-1.1v-11.5c0-0.6,0.5-1.1,1.1-1.1h107.4c0.6,0,1.1,0.5,1.1,1.1v11.5
			C118.8,118.7,118.3,119.2,117.7,119.2z M11.4,116.9h105.1v-9.2H11.4V116.9z"/>
		<path class="st4" d="M65.9,96.3c-0.9,0-1.7-0.8-1.7-1.7V15.8c0-0.9,0.8-1.7,1.7-1.7c0.9,0,1.7,0.8,1.7,1.7v78.8
			C67.6,95.6,66.9,96.3,65.9,96.3z"/>
		<g>
			<path class="st5" d="M30.1,62.1c0,0-0.6-39.6,35.8-39.6s37.7,39.7,37.7,39.7s-1.3-7-8.6-7c-7.3,0-6.7,7.4-6.7,7.4s0.6-7.4-7-7.4
				c-7.7,0-7.4,7.4-7.4,7.4s-0.3-7.4-8-7.4s-6.4,7.4-6.4,7.4s0.3-7.4-7.7-7.4s-7.7,7.4-7.7,7.4s1-7-7-7
				C29.2,55.6,30.1,62.1,30.1,62.1"/>
			<path class="st4" d="M59.5,63.2c-0.3,0-0.5-0.2-0.6-0.5c0-0.1-0.1-0.5-0.1-1.2c-0.2-1-0.6-2.6-1.7-3.8c-1.2-1.3-3-1.9-5.3-1.9
				s-4.1,0.6-5.3,1.9c-1.3,1.3-1.7,3.1-1.8,4.1c0,0.5,0,0.8,0,0.9c0,0.3-0.3,0.5-0.6,0.5l0,0c-0.3,0-0.5-0.2-0.5-0.5
				c0,0,0-0.4,0-0.9c0-0.9-0.2-2.5-1.3-3.8c-1.1-1.2-2.8-1.9-5.2-1.9s-4.2,0.6-5.3,1.9c-0.7,0.8-1,1.7-1.1,2.5c-0.1,1,0,1.6,0,1.6
				c0,0.3-0.2,0.5-0.5,0.6c-0.3,0-0.6-0.2-0.6-0.5c0-0.1-0.1-0.9,0.1-1.9C30,55.3,31.6,41,41,31.4c6.2-6.3,14.6-9.5,25-9.5
				c19.1,0,28.5,11,33,20.1c4.9,9.9,5.2,20,5.2,20.1c0,0.3-0.2,0.5-0.5,0.6c-0.3,0-0.6-0.2-0.6-0.5c-0.1-0.3-1.3-6.5-8.1-6.5
				c-2,0-3.5,0.6-4.6,1.7c-1.2,1.3-1.5,3.2-1.6,4.2c0,0.5,0,0.9,0,0.9c0,0.3-0.3,0.5-0.6,0.5c-0.3,0-0.5-0.2-0.6-0.5
				c0,0,0-0.4,0-0.9c-0.1-1-0.4-2.8-1.6-4.1c-1.1-1.2-2.7-1.8-4.9-1.8c-2.2,0-3.8,0.6-5,1.8c-1.9,2-1.8,4.9-1.8,5v0.1l0,0l0,0l0,0
				l0,0c0,0.2-0.3,0.4-0.5,0.5c-0.3,0-0.6-0.2-0.6-0.5l0,0c0-0.3-0.4-6.8-7.4-6.8c-2.1,0-3.7,0.6-4.7,1.8s-1.2,2.8-1.2,3.8
				c0.1,0.7,0.1,1.2,0.1,1.3C60.1,62.9,59.8,63.1,59.5,63.2L59.5,63.2z M65.9,54.7c4.8,0,7,2.8,7.9,5.1c0.3-1,0.8-2,1.7-2.9
				c1.4-1.4,3.3-2.2,5.8-2.2s4.4,0.7,5.7,2.2c0.6,0.7,1,1.4,1.3,2.1c0.3-0.8,0.7-1.5,1.3-2.2c1.3-1.4,3.1-2.1,5.4-2.1
				c4.1,0,6.4,2.1,7.7,4c-0.5-3.7-1.8-10-4.8-16.1c-6.4-12.9-17.1-19.5-32-19.5c-10.1,0-18.2,3.1-24.2,9.1C34.1,40,31.7,51,31,57.3
				c1.3-1.5,3.4-2.3,6.1-2.3c2.7,0,4.7,0.8,6,2.3c0.5,0.6,0.9,1.2,1.1,1.9c0.3-0.8,0.8-1.5,1.4-2.2c1.4-1.5,3.5-2.3,6.1-2.3
				s4.7,0.8,6.1,2.3c0.6,0.6,1,1.3,1.3,1.9c0.2-0.7,0.6-1.4,1.1-2C61.6,55.4,63.4,54.7,65.9,54.7z"/>
			<path class="st1" d="M92.6,36.3C92.6,36.3,92.6,36.4,92.6,36.3c-1,5.9-3.3,5.9-3.3,9.4s2.5,4.4,3.3,4.4l0,0l0,0l0,0l0,0
				c0.8,0,3.3-0.9,3.3-4.4S93.6,42.3,92.6,36.3C92.6,36.4,92.6,36.3,92.6,36.3"/>
			<path class="st1" d="M78.9,36.1C78.9,36,78.9,36.2,78.9,36.1c-1,5.9-3.3,5.9-3.3,9.4s2.5,4.4,3.3,4.4l0,0l0,0l0,0l0,0
				c0.8,0,3.3-0.9,3.3-4.4S79.9,42,78.9,36.1C78.9,36.2,78.9,36,78.9,36.1"/>
			<path class="st1" d="M64.2,32C64.2,31.9,64.2,32.1,64.2,32c-1,5.9-3.3,5.9-3.3,9.4s2.5,4.4,3.3,4.4l0,0l0,0l0,0l0,0
				c0.8,0,3.3-0.9,3.3-4.4S65.2,37.9,64.2,32C64.2,32.1,64.2,31.9,64.2,32"/>
			<path class="st1" d="M50,38.1C50,38.1,50,38.2,50,38.1c-1,5.9-3.3,5.9-3.3,9.4s2.5,4.4,3.3,4.4l0,0l0,0l0,0l0,0
				c0.8,0,3.3-0.9,3.3-4.4S51,44.1,50,38.1C50.1,38.2,50,38.1,50,38.1"/>
			<path class="st1" d="M54.2,16.9C54.2,16.9,54.1,17,54.2,16.9c-1,5.9-3.3,5.9-3.3,9.4s2.5,4.4,3.3,4.4l0,0l0,0l0,0l0,0
				c0.8,0,3.3-0.9,3.3-4.4S55.2,22.9,54.2,16.9C54.2,17,54.2,16.9,54.2,16.9"/>
			<path class="st1" d="M35.9,32C35.9,31.9,35.9,32.1,35.9,32c-1,5.9-3.3,5.9-3.3,9.4s2.5,4.4,3.3,4.4l0,0l0,0l0,0l0,0
				c0.8,0,3.3-0.9,3.3-4.4S36.9,37.9,35.9,32C35.9,32.1,35.9,31.9,35.9,32"/>
			<path class="st1" d="M84.8,18.2C84.8,18.1,84.8,18.3,84.8,18.2c-1,5.9-3.3,5.9-3.3,9.4S84,32,84.8,32l0,0l0,0l0,0l0,0
				c0.8,0,3.3-0.9,3.3-4.4S85.8,24.1,84.8,18.2C84.9,18.3,84.8,18.1,84.8,18.2"/>
		</g>
	</g>
</g>
</svg>
