<?xml version="1.0" encoding="utf-8"?>
<!-- Generator: Adobe Illustrator 23.0.1, SVG Export Plug-In . SVG Version: 6.00 Build 0)  -->
<svg version="1.1" id="thermal-crazing-resistance_1_"
	 xmlns="http://www.w3.org/2000/svg" xmlns:xlink="http://www.w3.org/1999/xlink" x="0px" y="0px" viewBox="0 0 128 128"
	 style="enable-background:new 0 0 128 128;" xml:space="preserve">
<style type="text/css">
	.st0{fill:#4A4A49;}
	.st1{fill:#B2B2B2;}
	.st2{fill:#3C3C3B;}
	.st3{fill:#FFFFFF;}
</style>
<g id="thermal-crazing-resistance">
	<g>
		<rect x="15.9" y="12.2" class="st0" width="96.4" height="103.5"/>
		<polygon class="st1" points="64.1,102.8 8.3,58 64.1,34 119.7,58 		"/>
		<path class="st2" d="M64.1,104.2L6.2,57.7l57.9-24.9l57.6,24.9L64.1,104.2z M10.4,58.3l53.7,43.1l53.5-43.1L64.1,35.2L10.4,58.3z"
			/>
		<polygon class="st3" points="59.5,96.2 58.3,94.4 65.9,89.3 57.8,84.4 60.2,77.5 59.7,77.5 60,77 54.2,74.1 46.5,79.5 45.3,77.7 
			54.1,71.5 61.4,75.3 68.7,65.9 61.4,60.7 47.6,60.5 41.2,65.6 30.4,65.2 31.5,63.5 22,63.7 21.9,61.5 35.6,61.3 34.3,63.2 
			40.5,63.4 46.9,58.3 61.2,58.5 69.7,48 66,47.5 61.2,45.5 60.3,51 52.9,50.6 54.6,52.7 40.8,51.9 42.7,53.3 35.9,53.3 35.9,51.1 
			36.3,51.1 33.9,49.2 49.9,50.3 48.3,48.2 58.4,48.7 59.5,42.5 66.6,45.4 72.5,46.2 72.5,46.2 72.5,46.2 77.3,46.6 81.3,44.1 
			82.4,45.9 77.8,48.8 75.8,48.6 78.9,50.9 90,51.1 86.3,58.6 86.4,60.3 96.3,60.1 100.9,65.2 99.3,66.6 95.3,62.3 86.6,62.5 
			86.7,64.4 88.7,70.4 79.4,72 79.1,69.9 85.9,68.7 84.6,64.8 84.1,58.2 86.5,53.2 78.1,53 72,48.5 63.3,59.4 71.8,65.4 63.8,75.6 
			73.6,76.4 79,82 77.5,83.5 72.6,78.5 62.4,77.7 60.4,83.5 69.9,89.2 		"/>
	</g>
</g>
</svg>
