<?xml version="1.0" encoding="utf-8"?>
<!-- Generator: Adobe Illustrator 23.0.1, SVG Export Plug-In . SVG Version: 6.00 Build 0)  -->
<svg version="1.1" id="thermal-shock_1_" xmlns="http://www.w3.org/2000/svg" xmlns:xlink="http://www.w3.org/1999/xlink" x="0px"
	 y="0px" viewBox="0 0 128 128" style="enable-background:new 0 0 128 128;" xml:space="preserve">
<style type="text/css">
	.st0{fill:#575756;}
	.st1{fill:#FFFFFF;}
	.st2{fill:#4A4A49;}
</style>
<g id="thermal-shock">
	<g>
		<rect x="13.6" y="9.9" class="st0" width="100.7" height="108.1"/>
		<path class="st1" d="M117.3,121H10.7V7h106.6C117.3,7,117.3,121,117.3,121z M16.6,115.1h94.9V12.9H16.6V115.1z"/>
		<rect x="13.6" y="9.9" class="st2" width="100.7" height="108.1"/>
		<polygon class="st1" points="93.8,38.2 90.5,34.9 34,91.5 37.2,94.7 45.1,86.6 47.7,99.5 51.5,98 48.4,83.2 62.3,69.3 67.1,88.1 
			57.6,99.1 59.3,102.6 68.2,93 71.5,106.3 76.7,105.3 73,91.8 85.2,96 85.9,92 71.7,87.1 66.3,67.7 85.6,73.2 90.6,87.3 94.5,86.6 
			90.3,74.6 103.8,78.2 104.8,73.1 91.5,69.7 101.2,60.8 97.7,59 86.6,68.6 67.8,63.8 81.7,50 96.6,52.9 98.1,49.2 85.2,46.5 		"/>
		<g>
			<path class="st1" d="M44.9,86l-1.4-1.4C32.7,73.8,32.8,56,43.8,45s28.7-11.1,39.6-0.3l1.4,1.4L44.9,86z M63.9,40.6
				c-6.3,0-12.5,2.4-17.3,7.2c-9,9-9.6,23.3-1.6,32.8l34.3-34.3C74.9,42.5,69.4,40.6,63.9,40.6z"/>
		</g>
		<path class="st1" d="M28.8,83.4l-2.1-3.2l11.8-7.7l2.1,3.2L28.8,83.4z M23.1,68.2L23,64.3l14.8-0.5l0.1,3.8L23.1,68.2z M39.4,55.8
			l-14.3-4.5l1.2-3.7l14.3,4.5L39.4,55.8z M45.4,47.6L35.3,37.5l2.7-2.7l10.1,10.1L45.4,47.6z M75,41.2l-3.4-1.9l6.9-12.5l3.4,1.9
			L75,41.2z M52.6,39.6l-4.7-14l3.6-1.2l4.7,14L52.6,39.6z M65.8,38.7L62,38.6l0.7-16.9l3.8,0.1L65.8,38.7z"/>
		<polygon class="st1" points="54.6,75.6 58.9,83.1 65.3,76.2 76.1,77.5 73.1,68.1 80.4,59.5 71.2,57.8 		"/>
	</g>
</g>
</svg>
