<?xml version="1.0" encoding="utf-8"?>
<!-- Generator: Adobe Illustrator 23.0.1, SVG Export Plug-In . SVG Version: 6.00 Build 0)  -->
<svg version="1.1" id="pin-top-store" xmlns="http://www.w3.org/2000/svg" xmlns:xlink="http://www.w3.org/1999/xlink" x="0px"
	 y="0px" width="36px" height="45px" viewBox="0 0 36 45" style="enable-background:new 0 0 36 45;" xml:space="preserve">
<style type="text/css">
	.st0{fill:#5A7986;}
	.st1{fill:#232120;}
	.st2{fill:#FFFFFF;}
	.st3{fill:none;stroke:#232120;stroke-width:2;}
</style>
<path class="st0" d="M17.7,43.2c-1.3-1.6-4.2-5-7.3-9.2l-0.1-0.2l-0.2-0.1c-2.5-1.3-4.8-3.6-6.4-6.3C1.9,24.5,1,21.3,1,18.2
	c0-4.5,1.8-8.8,5-12s7.5-5,12-5s8.8,1.8,12,5s5,7.5,5,12c0,6.6-3.8,12.6-10,15.5l-0.2,0.1L24.7,34C21.7,37.9,19,41.6,17.7,43.2z"/>
<path class="st1" d="M18,2.2c-4.3,0-8.3,1.7-11.3,4.7S2,13.9,2,18.2c0,3,0.9,6,2.5,8.7c1.5,2.6,3.7,4.7,6.1,5.9L11,33l0.3,0.4
	c2.5,3.5,4.9,6.4,6.4,8.2c1.4-1.9,3.7-4.9,6.2-8.2l0.3-0.4l0.4-0.2C30.4,30,34,24.4,34,18.2c0-4.3-1.7-8.3-4.7-11.3S22.3,2.2,18,2.2
	 M18,0.2c9.9,0,18,8.1,18,18c0,7.2-4.2,13.4-10.6,16.4c-4.1,5.5-7.7,10.2-7.7,10.2s-3.9-4.3-8.2-10.2C4.2,31.7,0,25.1,0,18.2
	C0,8.3,8.1,0.2,18,0.2z"/>
<circle class="st2" cx="18" cy="18" r="8"/>
<circle class="st3" cx="18" cy="18" r="7"/>
</svg>
