<?xml version="1.0" encoding="utf-8"?>
<!-- Generator: Adobe Illustrator 23.0.1, SVG Export Plug-In . SVG Version: 6.00 Build 0)  -->
<svg version="1.1" id="pin" xmlns="http://www.w3.org/2000/svg" xmlns:xlink="http://www.w3.org/1999/xlink" x="0px" y="0px"
	 width="24px" height="30px" viewBox="0 0 24 30" style="enable-background:new 0 0 24 30;" xml:space="preserve">
<style type="text/css">
	.st0{fill:#1E1C1C;}
	.st1{fill:none;stroke:#1E1C1C;}
</style>
<path class="st0" d="M12,1.1c-2.9,0-5.7,1.1-7.8,3.2C2.1,6.4,1,9.2,1,12.1c0,2,0.6,4.1,1.7,6c1.1,1.8,2.5,3.2,4.2,4.1l0.2,0.1
	l0.1,0.2c1.9,2.6,3.6,4.7,4.6,5.8c0.9-1.2,2.6-3.4,4.4-5.8l0.1-0.2l0.2-0.1c4-1.9,6.5-5.7,6.5-10c0-2.9-1.1-5.7-3.2-7.8
	C17.7,2.3,14.9,1.1,12,1.1 M12,0.1c6.6,0,12,5.4,12,12c0,4.8-2.8,8.9-7,10.9c-2.7,3.6-5.1,6.8-5.1,6.8S9.3,27,6.4,23.1
	C2.8,21.1,0,16.7,0,12.1C0,5.5,5.4,0.1,12,0.1z"/>
<circle class="st1" cx="12" cy="12" r="4.8"/>
</svg>
